<svg width="65" height="77" viewBox="0 0 65 77" fill="none" xmlns="http://www.w3.org/2000/svg">
<path d="M39.9066 45.1283C40.0114 44.9304 40.0929 44.7267 40.1569 44.5172C41.9724 45.9315 44.5735 47.0489 46.8894 47.4622C47.5993 47.5902 48.2801 47.6542 48.9086 47.6484C50.7125 47.6484 52.1614 47.1246 53.1332 46.1235C53.3892 46.1759 53.6627 46.2108 53.9537 46.2108C57.4159 46.205 62.4784 42.2009 64.3695 37.9755C64.5208 37.6322 64.4161 37.2306 64.1194 37.0094C63.8226 36.7824 63.4036 36.7999 63.1185 37.0443C60.2672 39.4713 57.0377 40.8215 54.6752 41.8109C53.6336 42.2474 52.8189 42.585 52.2428 42.94C50.4797 42.1077 48.3732 42.067 46.1504 42.0379C43.8519 42.0088 41.4894 41.9622 39.4993 40.9903C39.9067 40.6877 40.2442 40.3094 40.4769 39.8612C40.6049 39.6226 40.6864 39.3782 40.7504 39.1279C42.5368 40.1289 45.1786 40.6993 47.4887 40.6993C47.8088 40.6993 48.1231 40.6877 48.4315 40.6644C50.858 40.4781 52.5978 39.6226 53.4125 38.2433C56.4558 37.9115 60.2439 33.401 60.9538 29.1233C61.012 28.7567 60.8142 28.3958 60.4709 28.2561C60.1275 28.1106 59.7318 28.227 59.5107 28.5239C57.6428 31.1021 55.2047 32.8481 53.4183 34.1227C52.6793 34.6523 52.0974 35.0714 51.6784 35.4613C49.9211 35.0888 47.8146 35.4497 45.7605 35.8163C43.4853 36.2179 40.8959 36.6486 39.1793 35.6475C40.0114 34.9899 40.5933 33.9423 40.9133 32.7783C42.2226 33.2788 43.4213 33.5058 44.4978 33.5058C47.3316 33.5 49.3857 32.01 50.7706 30.427C52.8945 30.1593 54.6751 29.3386 55.5713 28.1921C56.0019 27.645 56.2288 27.0165 56.2521 26.3588C58.0618 25.3403 59.1558 23.7805 59.3304 21.9007C59.4991 20.0732 58.7484 18.1235 57.4857 16.9479C58.1025 14.6373 58.0211 11.6458 56.7817 8.78821C55.3618 5.51155 51.3293 0.01164 40.2907 0C39.9125 0 39.5866 0.273544 39.5051 0.640204C39.4295 1.01268 39.6273 1.39099 39.9823 1.53649C44.4803 3.42217 48.8853 5.65122 49.508 10.3247C48.798 10.1792 48.0648 10.0686 47.2793 10.0279C46.226 9.9755 45.3183 9.49825 44.5735 8.60779C43.5319 7.35649 43.1944 5.71524 43.2875 4.99938C43.3398 4.60362 43.0896 4.22533 42.7056 4.12057C42.3157 4.01581 41.9142 4.21368 41.7571 4.58034C39.9998 8.73583 39.9707 14.6897 44.0498 17.9489C46.3017 19.7473 48.0067 19.9859 49.3741 19.9801C49.8746 19.9801 50.3575 19.9452 50.8638 19.9044C51.2071 19.8811 51.5562 19.8579 51.917 19.8404C51.5271 20.9811 51.5388 22.1393 51.7541 23.1112C51.1023 23.3615 50.5088 23.8096 50.0374 24.4324C48.4547 26.5276 46.7323 27.389 46.034 27.3424C44.2999 26.4927 42.6241 25.8001 40.5118 27.5228C39.895 26.2075 38.9233 25.3927 37.8177 25.317C38.0446 24.7641 38.1319 24.1705 38.1319 23.6176C38.1319 23.3324 38.097 23.0763 38.0446 22.8377C38.9582 22.0869 39.7437 20.8298 39.4819 19.2351C39.2491 17.8092 37.9806 16.1505 35.17 16.1563C34.8267 16.1563 34.5241 16.3775 34.4135 16.6976C34.303 17.0235 34.4136 17.3785 34.6812 17.5881C34.9838 17.8209 35.3039 18.3388 35.2806 18.9208C35.2631 19.4737 34.9256 20.0034 34.3263 20.469C33.7037 20.4166 33.0519 20.3991 32.3886 20.4049C31.7252 20.4108 31.0735 20.4224 30.4567 20.4806C29.8573 20.015 29.514 19.4854 29.4966 18.9325C29.4733 18.3505 29.7933 17.8267 30.0959 17.5939C30.3636 17.3844 30.4741 17.0235 30.3636 16.7034C30.253 16.3775 29.9446 16.1621 29.6013 16.1621C26.7966 16.168 25.5338 17.8325 25.3069 19.2584C25.0509 20.8589 25.8481 22.1102 26.7616 22.8552C26.7093 23.0938 26.6802 23.3441 26.6802 23.6351C26.6802 24.1938 26.7674 24.7816 27.0002 25.3345C25.8946 25.416 24.9287 26.2366 24.3118 27.5519C22.1996 25.8408 20.5237 26.5392 18.7897 27.3948C18.0914 27.4413 16.369 26.5858 14.7746 24.5022C14.2974 23.8795 13.7039 23.4313 13.0522 23.1869C13.2675 22.215 13.2733 21.0568 12.8776 19.9219C13.2384 19.9335 13.5875 19.9568 13.9309 19.9801C14.4371 20.015 14.9201 20.0499 15.4205 20.0499C16.788 20.0499 18.4929 19.7997 20.739 17.9955C24.8006 14.7246 24.7425 8.77075 22.9735 4.62109C22.8164 4.25443 22.4091 4.05654 22.025 4.1613C21.641 4.26606 21.3907 4.64437 21.4489 5.04013C21.5479 5.75599 21.2104 7.40304 20.1804 8.65435C19.4472 9.54481 18.5395 10.0337 17.4862 10.0861C16.7065 10.1326 15.9733 10.2432 15.2634 10.3887C15.8627 5.71525 20.256 3.4629 24.7483 1.55976C25.0974 1.41426 25.2952 1.03597 25.2196 0.663489C25.144 0.291009 24.8123 0.023285 24.4341 0.023285C13.3955 0.0873051 9.38623 5.60466 7.98386 8.88714C6.76188 11.7506 6.69207 14.7479 7.3147 17.0526C6.05781 18.2341 5.3188 20.1838 5.49336 22.0171C5.67375 23.897 6.77354 25.4567 8.58905 26.4636C8.61815 27.1212 8.84508 27.744 9.27569 28.2969C10.1776 29.4376 11.964 30.2524 14.0879 30.5143C15.4845 32.0973 17.5386 33.5756 20.3782 33.564C21.4547 33.564 22.6535 33.3312 23.9627 32.8248C24.2886 33.9888 24.8763 35.0364 25.7084 35.6883C23.9976 36.6951 21.4024 36.2819 19.1272 35.8862C17.0789 35.5311 14.9666 35.1761 13.2093 35.5544C12.7903 35.1645 12.2026 34.7513 11.4636 34.2275C9.67138 32.9645 7.22741 31.2301 5.34789 28.6577C5.12677 28.3609 4.73107 28.2503 4.38775 28.39C4.04443 28.5355 3.84658 28.8963 3.91059 29.263C4.63796 33.5349 8.44939 38.0279 11.4927 38.348C12.3132 39.7215 14.0588 40.5713 16.4853 40.7459C16.7879 40.7691 17.1022 40.775 17.428 40.775C19.7382 40.775 22.3741 40.1871 24.1605 39.1745C24.2246 39.4247 24.3119 39.675 24.4399 39.9078C24.6785 40.3501 25.016 40.7284 25.4233 41.031C23.439 42.0088 21.0707 42.067 18.778 42.1077C16.5552 42.1485 14.4487 42.195 12.6856 43.0389C12.1037 42.6897 11.289 42.3522 10.2474 41.9215C7.88495 40.9496 4.64379 39.611 1.78087 37.1957C1.49574 36.9512 1.08257 36.9396 0.779988 37.1666C0.483221 37.3935 0.37849 37.7951 0.535602 38.1385C2.44422 42.3522 7.52418 46.3331 10.9865 46.3272C11.2774 46.3272 11.5451 46.2923 11.8069 46.2341C12.7787 47.2293 14.2334 47.7415 16.0373 47.7415C16.6716 47.7415 17.3466 47.6775 18.0565 47.5436C20.3666 47.1246 22.9619 45.9955 24.7716 44.5696C24.8356 44.7791 24.917 44.9828 25.0218 45.1807C25.2254 45.559 25.5106 45.8791 25.8364 46.1527C24.3817 47.3341 22.3276 47.9394 20.3259 48.5272C18.3591 49.1034 16.497 49.6563 15.1761 50.733C14.5884 50.5526 13.8086 50.4362 12.8136 50.2848C10.5791 49.9531 7.52417 49.4991 4.53905 48.05C4.20155 47.887 3.79422 47.9801 3.56147 48.277C3.32871 48.5738 3.3345 48.9928 3.57308 49.278C6.11596 52.3684 10.4802 54.2075 13.2267 54.2017C13.7854 54.2017 14.2741 54.1144 14.7106 53.9689C15.403 54.3996 16.2235 54.6266 17.1487 54.6208C18.1438 54.6208 19.2494 54.3647 20.4248 53.8642C22.2694 53.0726 24.242 51.6293 25.5862 50.0462C25.6269 50.1452 25.6619 50.2441 25.7084 50.3372C26.1448 51.1346 26.8838 51.7224 27.7334 51.9552C28.1873 52.0774 28.647 52.1764 29.1067 52.2637C28.6819 52.5197 28.3328 52.8107 28.0767 53.1483C27.5821 53.8118 27.4308 54.6149 27.6112 55.5287C27.9545 57.199 29.706 58.2292 32.3304 58.3805C31.6554 59.1313 31.3353 59.9984 31.4342 60.8831C31.5739 62.0936 32.4875 63.083 33.8259 63.6359C33.0519 64.2529 32.5573 65.0793 32.4991 66.0163C32.4758 66.4295 32.534 66.8369 32.6679 67.2211C31.4051 67.2211 30.3286 67.7274 29.6944 68.6121C29.5024 68.8856 29.3569 69.1824 29.258 69.4909C28.6819 69.1184 28.0185 68.9031 27.3319 68.9031C26.9362 68.9031 26.5463 68.9729 26.1797 69.1126C25.8655 69.2348 25.592 69.4094 25.336 69.6073C24.981 68.7983 24.3468 68.1697 23.5088 67.9195C23.3052 67.8613 23.0899 67.8322 22.8804 67.8147C23.3459 66.8137 23.5787 65.6729 23.5088 64.5148C23.3866 62.4137 22.3567 60.5455 20.5994 59.2593C19.2261 58.2524 17.3698 57.7054 15.3681 57.7054C12.2666 57.7112 8.75198 59.1895 7.89077 62.4778C7.80931 62.8037 7.93732 63.1529 8.21081 63.3391C8.49012 63.5312 8.85672 63.5254 9.13021 63.3275C10.0962 62.6349 10.9748 62.2799 11.7604 62.2799C12.5459 62.2799 13.0463 62.6407 13.3198 62.9434C13.5642 63.2111 13.669 63.473 13.7039 63.601C12.9707 64.4682 12.5983 65.6147 12.6739 66.7904C12.7554 68.1057 13.3722 69.2814 14.4022 70.102C15.2343 70.7655 16.3282 71.1205 17.556 71.1146C18.1787 71.1146 18.8071 71.0099 19.4006 70.8411C19.2261 71.6501 19.2726 72.4765 19.5752 73.1924C19.936 74.0596 20.5936 74.6765 21.4257 74.9267C21.6759 75.0024 21.9435 75.0373 22.2112 75.0373C22.9793 75.0373 23.7183 74.7056 24.3118 74.1643C24.9403 75.6251 26.3078 76.6029 27.78 76.5971C28.1756 76.5971 28.5655 76.5273 28.9321 76.3876C29.834 76.0442 30.5323 75.3342 30.8989 74.3855C30.9164 74.3331 30.928 74.2749 30.9455 74.2225C31.0851 74.3447 31.2306 74.4612 31.3819 74.5717C32.3769 75.2876 33.5291 75.6775 34.6347 75.6775C35.8741 75.6775 36.9506 75.1712 37.5849 74.2866C38.2133 73.4136 38.3646 72.2903 37.998 71.1263C37.8933 70.7829 37.7304 70.4512 37.5442 70.1252C37.614 70.1252 37.6838 70.1311 37.7478 70.1311C40.3838 70.1252 42.467 68.6179 42.5892 66.6274C42.6823 65.1375 41.6698 63.8047 40.087 63.0772C40.314 62.9375 40.5293 62.792 40.7271 62.6291C41.7338 61.791 42.2226 60.7318 42.1004 59.6609C41.9317 58.1884 40.6224 57.0419 38.8069 56.6112C39.511 55.9943 39.9241 55.2551 39.9241 54.4636C39.9241 53.4044 39.3888 52.4965 38.417 51.9086C38.2482 51.8097 38.0679 51.7166 37.8758 51.6351C38.4345 51.3325 38.9058 50.8669 39.2142 50.2907C39.2666 50.1976 39.2957 50.0986 39.3364 49.9997C40.6864 51.5827 42.6649 53.0144 44.5153 53.7943C45.6907 54.289 46.8021 54.5393 47.7971 54.5393C48.7224 54.5393 49.537 54.3065 50.2295 53.8758C50.6659 54.0155 51.1605 54.1028 51.7191 54.097C54.4657 54.0911 58.8183 52.2287 61.3495 49.1325C61.5881 48.8415 61.5881 48.4225 61.3553 48.1315C61.1226 47.8346 60.7152 47.7415 60.3777 47.9103C57.3984 49.3711 54.3435 49.8367 52.1148 50.1801C51.114 50.3314 50.3342 50.4536 49.7523 50.6399C48.4314 49.569 46.5636 49.0219 44.5909 48.4574C42.5892 47.8812 40.5235 47.2817 39.0687 46.1061C39.4004 45.8325 39.6797 45.5125 39.8834 45.1342L39.9066 45.1283ZM55.2803 43.2834C56.7234 42.6839 58.6204 41.8924 60.5814 40.7575C58.4633 43.0506 55.7284 44.6103 53.942 44.6103C53.5347 44.6103 53.1971 44.5289 52.9469 44.3659C53.4066 44.0691 54.4308 43.6442 55.2861 43.2892L55.2803 43.2834ZM46.1155 43.6326C47.995 43.6559 49.7756 43.685 51.1838 44.2204C51.1373 44.6278 51.2827 44.9887 51.5969 45.3146C50.3168 46.24 48.3383 46.0886 47.1571 45.8791C44.7829 45.4543 42.531 44.3601 41.0763 43.2135C42.7579 43.5802 44.4978 43.6093 46.1096 43.6268L46.1155 43.6326ZM54.3435 35.4206C55.3385 34.7105 56.6245 33.791 57.9221 32.6211C56.5256 34.9375 54.489 36.6602 53.0517 36.666C52.9586 36.6777 52.8364 36.6544 52.7374 36.6311C53.0982 36.3052 53.7732 35.8221 54.3377 35.4206H54.3435ZM46.034 37.3819C47.7564 37.0734 49.5312 36.765 50.9277 36.9454C50.9801 37.3353 51.2246 37.6496 51.6319 37.8941C50.759 38.7263 49.2461 38.9882 48.2917 39.0581C45.8885 39.2443 43.3864 38.6856 41.8153 37.9057C43.1653 37.8882 44.6084 37.638 46.0282 37.3819H46.034ZM11.8418 36.7592C10.4104 36.7592 8.36211 35.0481 6.95393 32.7375C8.25155 33.8957 9.54335 34.8095 10.5442 35.5195C11.1145 35.9211 11.7895 36.3983 12.1503 36.7242C12.0513 36.7475 11.9291 36.7708 11.836 36.7592H11.8418ZM16.6076 39.1279C15.6532 39.0581 14.1345 38.8078 13.2617 37.9755C13.669 37.7311 13.9076 37.4168 13.9658 37.0269C15.3623 36.8406 17.1371 37.1433 18.8653 37.4401C20.2851 37.6845 21.7341 37.9348 23.0841 37.9464C21.5188 38.7321 19.0166 39.3025 16.6134 39.1279H16.6076ZM10.9922 44.7093C9.20583 44.7093 6.45932 43.167 4.3354 40.8855C6.3022 42.0146 8.19918 42.7945 9.64228 43.3882C10.4977 43.7432 11.5218 44.1622 11.9873 44.459C11.7371 44.6278 11.3996 44.7093 10.9922 44.7093ZM17.7713 45.949C16.5901 46.1643 14.6117 46.3214 13.3315 45.4019C13.6457 45.0701 13.7854 44.7093 13.7446 44.3252C15.147 43.7664 16.9334 43.7257 18.8071 43.6966C20.419 43.6675 22.1588 43.6326 23.8347 43.2601C22.3916 44.4125 20.1455 45.5183 17.7655 45.9548L17.7713 45.949ZM13.2267 52.5896C11.8767 52.5896 10.0089 52.0367 8.23989 51.0415C9.88084 51.4547 11.3938 51.6758 12.5808 51.8563C13.314 51.961 14.1753 52.0949 14.664 52.2287C14.3615 52.4615 13.861 52.5896 13.2267 52.5896ZM19.8022 52.3859C18.9177 52.7642 17.4397 53.2298 16.206 52.8806C16.4563 52.4965 16.5377 52.1298 16.4388 51.769C17.5153 51.0124 19.1097 50.5409 20.7797 50.0462C22.0774 49.6621 23.3983 49.2722 24.6086 48.7251C23.5205 50.1277 21.6817 51.5769 19.7963 52.3859H19.8022ZM17.5793 69.52C16.98 69.52 16.1188 69.4094 15.4263 68.8565C14.7513 68.321 14.3498 67.5528 14.2974 66.6914C14.2451 65.8592 14.5185 65.056 15.0772 64.4973C16.0548 63.5137 17.6317 63.6359 18.4172 64.3111C18.7489 64.5962 19.2552 64.5613 19.5461 64.2238C19.8313 63.8862 19.7964 63.3799 19.4589 63.0947C18.394 62.1809 16.5785 61.9074 15.0539 62.6349C14.9783 62.4836 14.891 62.3264 14.7862 62.1809C14.0996 61.2206 13.0056 60.6736 11.7837 60.6794C11.4694 60.6794 11.1494 60.7143 10.8293 60.7841C12.0339 59.7773 13.7795 59.3059 15.3972 59.3059C17.0149 59.3059 18.5977 59.754 19.68 60.5513C21.0474 61.5524 21.8446 62.9899 21.9377 64.6021C22.025 66.1327 21.4664 67.6168 20.4364 68.5655C19.8313 69.1242 18.6558 69.5142 17.5793 69.52ZM23.9569 71.8596C23.6427 72.913 22.7 73.6347 21.9028 73.3961C21.542 73.2855 21.2453 73.0003 21.0765 72.5813C20.8787 72.1099 20.8612 71.5395 21.0242 70.9866C21.2977 70.067 22.025 69.4036 22.7524 69.3977C22.8629 69.3977 22.9735 69.4152 23.0782 69.4443C23.8696 69.6829 24.2711 70.7829 23.9569 71.8538V71.8596ZM29.4267 73.8268C29.2289 74.3389 28.8623 74.7231 28.3909 74.8977C27.3959 75.276 26.1914 74.6008 25.755 73.4426C25.3069 72.2612 25.7608 70.9866 26.7675 70.6025C26.9537 70.5326 27.1515 70.4977 27.3552 70.4977C28.2222 70.4977 29.0485 71.1263 29.4034 72.0633C29.6246 72.6511 29.6362 73.2797 29.4267 73.8268ZM52.3825 51.7631C53.5637 51.5827 55.0767 51.3499 56.7177 50.9309C54.9545 51.9319 53.0866 52.4964 51.7424 52.5023C51.1082 52.5023 50.6019 52.3801 50.2993 52.1473C50.7881 52.0076 51.6551 51.8795 52.3825 51.769V51.7631ZM44.172 49.9938C45.8478 50.4769 47.4422 50.9425 48.5245 51.6991C48.4314 52.06 48.5129 52.4324 48.7631 52.8107C47.5353 53.1657 46.0515 52.706 45.167 52.3335C43.27 51.5303 41.4312 50.087 40.3373 48.696C41.5534 49.2373 42.8743 49.6272 44.1778 49.9997L44.172 49.9938ZM56.8398 18.6298C57.4159 19.4214 57.8349 20.5563 57.7243 21.7435C57.6429 22.6224 57.2355 23.7864 55.8739 24.7001C55.4491 23.8562 54.6926 23.216 53.7558 22.9716C53.6219 22.9366 53.4881 22.9192 53.3543 22.9017C53.1913 22.2557 53.04 21.0626 53.6278 19.8753C54.1398 19.9335 54.6403 20.0208 55.1523 20.1605C55.2221 20.178 55.292 20.1896 55.3618 20.1896C55.5829 20.1896 55.7924 20.0965 55.9437 19.9335C56.287 19.5669 56.578 19.1304 56.834 18.624L56.8398 18.6298ZM44.5967 1.92061C51.4922 3.08461 54.2446 6.94327 55.3094 9.40513C56.159 11.3723 56.386 13.4209 56.1939 15.1669C56.0834 14.8876 55.9495 14.614 55.7924 14.3405C54.8323 12.7109 53.2146 11.4829 51.1547 10.7496C50.8696 6.41947 48.0241 3.80629 44.5967 1.92061ZM50.7532 18.2923C48.9144 18.4261 47.4073 18.56 45.0506 16.6801C42.4786 14.6257 41.8851 11.221 42.3913 8.11891C42.6416 8.6369 42.9558 9.14904 43.3457 9.61464C44.3698 10.8485 45.7023 11.5353 47.1978 11.6109C50.5088 11.7797 53.203 13.1067 54.4133 15.1553C55.0359 16.2145 55.1989 17.3844 54.8788 18.4494C54.0875 18.2865 53.3019 18.205 52.4581 18.205C51.8471 18.205 51.2944 18.2457 50.7532 18.2865V18.2923ZM51.3235 25.3811C51.8705 24.6536 52.6386 24.3335 53.3659 24.5255C54.0409 24.7001 54.5297 25.2647 54.6402 25.998C54.7043 26.4345 54.5995 26.8244 54.3086 27.1969C53.6627 28.0233 52.1265 28.6694 50.3866 28.8556C49.5487 28.7567 48.8097 28.5471 48.1405 28.2911C49.217 27.68 50.3459 26.6789 51.3235 25.3869V25.3811ZM45.615 28.9021C46.4879 29.3328 47.512 29.845 48.7689 30.1709C46.6567 32.0449 44.108 32.3592 41.1694 31.1429C41.2101 30.4677 41.181 29.8043 41.0588 29.1757C42.7405 27.4821 43.6773 27.936 45.615 28.8963V28.9021ZM36.7993 18.0595C37.7013 18.5018 37.8817 19.27 37.9166 19.4737C38.0679 20.3817 37.6373 21.0219 37.2474 21.406C36.9623 21.1615 36.619 20.9695 36.2291 20.8298C36.7353 20.143 36.8866 19.4737 36.9041 18.9558C36.9099 18.6531 36.875 18.3505 36.8052 18.0595H36.7993ZM32.4119 21.9938C36.5317 21.9822 36.5375 22.7737 36.5375 23.6059C36.5375 24.834 36.072 26.2482 32.4235 26.2541C28.7692 26.2599 28.2979 24.8514 28.2979 23.6234C28.2979 22.7911 28.2978 22.0054 32.4177 21.9938H32.4119ZM26.9013 19.5028C26.9362 19.2991 27.1166 18.5309 28.0127 18.0828C27.937 18.3738 27.9021 18.6764 27.9138 18.979C27.9312 19.497 28.0883 20.1721 28.5946 20.8531C28.2047 20.9986 27.8672 21.1848 27.5763 21.4351C27.1806 21.051 26.75 20.4108 26.8955 19.5028H26.9013ZM17.5851 11.6749C19.0806 11.5934 20.4131 10.8951 21.4315 9.66121C21.8155 9.19561 22.1297 8.68345 22.38 8.16547C22.9037 11.2675 22.3218 14.6722 19.7614 16.7383C17.4106 18.6298 15.9093 18.5018 14.0647 18.3738C13.5235 18.333 12.9707 18.2981 12.3597 18.2981C11.516 18.2981 10.7304 18.3796 9.93902 18.5484C9.61898 17.4833 9.77028 16.3135 10.3871 15.2542C11.5858 13.1998 14.2742 11.8612 17.5851 11.6808V11.6749ZM9.4619 9.50989C10.5151 7.04802 13.25 3.1719 20.1455 1.9788C16.7239 3.88194 13.8901 6.50676 13.6224 10.8368C11.5625 11.576 9.95067 12.8098 9.00218 14.4453C8.84506 14.713 8.71705 14.9923 8.60067 15.2717C8.40282 13.5315 8.61815 11.477 9.4619 9.50989ZM8.96144 24.8049C7.59398 23.8911 7.18087 22.733 7.0994 21.8541C6.98302 20.6727 7.40199 19.5319 7.97224 18.7404C8.22828 19.2409 8.52503 19.6774 8.86835 20.0441C9.01964 20.2071 9.22913 20.2944 9.45025 20.2944C9.52007 20.2944 9.58989 20.2827 9.65972 20.2653C10.1718 20.1256 10.6722 20.0325 11.1785 19.9684C11.772 21.1499 11.6265 22.343 11.4694 22.9948C11.3356 23.0123 11.2017 23.0298 11.0679 23.0647C10.1369 23.3091 9.3804 23.9493 8.96144 24.7991V24.8049ZM14.4778 28.9312C12.7321 28.7508 11.1959 28.1106 10.55 27.29C10.2591 26.9234 10.1485 26.5334 10.2125 26.0969C10.3173 25.3636 10.8002 24.7991 11.4811 24.6186C12.2084 24.4266 12.9765 24.7467 13.5293 25.4683C14.5186 26.7604 15.6474 27.7556 16.7298 28.3609C16.0606 28.617 15.3216 28.8323 14.4836 28.9371L14.4778 28.9312ZM16.0955 30.2466C17.3524 29.909 18.3765 29.3969 19.2436 28.9604C21.1755 27.9942 22.1065 27.5286 23.7998 29.2164C23.6776 29.845 23.6485 30.5085 23.7009 31.1836C20.7681 32.4116 18.2136 32.1148 16.0955 30.2466ZM25.3826 29.4667C25.7375 27.709 26.5696 26.9059 27.1981 26.9059C27.3086 26.9059 27.425 26.9292 27.5356 26.9757C30.736 28.3434 34.1226 28.3376 37.3114 26.9583C37.4278 26.9117 37.5442 26.8826 37.6547 26.8826C38.2832 26.8826 39.1211 27.68 39.4819 29.4376C39.9183 31.5386 39.0978 34.0587 37.7886 34.6232C34.2797 36.1422 30.608 36.1539 27.0933 34.6465C25.7899 34.0878 24.9578 31.5735 25.3767 29.4667H25.3826ZM36.3105 73.3612C35.6181 74.3215 33.7444 74.2982 32.342 73.2855C30.9047 72.2496 30.2996 70.5385 31.0153 69.5374C31.3528 69.0718 31.9405 68.8099 32.6679 68.8099C33.436 68.8099 34.2623 69.0951 34.9838 69.6131C35.7228 70.1485 36.264 70.8586 36.4967 71.6094C36.7062 72.2787 36.6364 72.9014 36.3105 73.3612ZM41.0181 66.5401C40.9424 67.7274 39.3364 68.6528 37.4336 68.5306C35.5599 68.4142 34.047 67.3084 34.1168 66.1094C34.1866 64.992 35.6123 64.1132 37.3638 64.1074C37.4743 64.1074 37.5907 64.1074 37.7013 64.119C39.575 64.2354 41.0879 65.3412 41.0181 66.5401ZM40.5351 59.8471C40.6166 60.5513 40.0638 61.1275 39.7263 61.4069C39.0629 61.9598 38.0795 62.3497 37.0321 62.4661C35.0013 62.6931 33.1683 61.8434 33.0345 60.691C32.953 59.9868 33.5058 59.4106 33.8433 59.1313C34.5067 58.5784 35.4901 58.1942 36.5317 58.072C36.7644 58.0429 36.9856 58.0313 37.2125 58.0313C38.9582 58.0313 40.4187 58.8228 40.5293 59.8413L40.5351 59.8471ZM38.3472 54.4753C38.3472 55.4356 36.4502 56.617 33.7211 56.78C31.2423 56.9313 29.4151 56.2853 29.1998 55.2028C29.0776 54.5975 29.2463 54.2832 29.3802 54.097C29.7293 53.6255 30.7011 53.0086 33.3661 52.7583C33.8317 52.7176 34.2739 52.6943 34.6871 52.6885C36.2989 52.6885 37.1717 53.0086 37.6198 53.2822C38.1144 53.5848 38.353 53.9747 38.353 54.4753H38.3472ZM37.8351 49.5341C37.6082 49.9589 37.2416 50.2557 36.7993 50.378C33.9713 51.1578 30.992 51.1637 28.164 50.3954C27.7218 50.279 27.3552 49.9764 27.1224 49.5573C26.9071 49.1616 26.8489 48.7134 26.9711 48.3235C27.1748 47.6717 27.6927 47.2526 28.292 47.2526C28.3968 47.2526 28.5015 47.2643 28.6062 47.2934C31.1375 47.986 33.8142 47.9743 36.3397 47.2759C37.0205 47.0897 37.7362 47.532 37.9806 48.3002C38.1028 48.6843 38.0504 49.1325 37.8351 49.5283V49.5341ZM38.4926 44.3717C38.2482 44.8315 37.8002 45.1691 37.2649 45.3087C34.1226 46.0944 30.8175 46.1061 27.6694 45.332C27.1341 45.1982 26.686 44.8606 26.4358 44.4008C26.2379 44.0342 26.1914 43.6268 26.3136 43.2892C26.5463 42.6257 27.1515 42.195 27.8556 42.195C27.9836 42.195 28.1174 42.2125 28.2396 42.2416C31.0095 42.9226 33.9248 42.9167 36.6771 42.2242C37.486 42.0263 38.3297 42.4802 38.609 43.2659C38.7312 43.6035 38.6905 44.0109 38.4926 44.3775V44.3717ZM39.0513 39.1046C38.7836 39.611 38.2774 39.9893 37.6664 40.1348C34.2565 40.967 30.6604 40.9728 27.2446 40.158C26.6336 40.0125 26.1274 39.6401 25.8539 39.1337C25.6444 38.7496 25.6037 38.3364 25.7375 37.9697C25.9935 37.2538 26.6744 36.7882 27.4657 36.7882C27.617 36.7882 27.7625 36.8057 27.9022 36.8348C30.8815 37.5449 34.0179 37.539 36.9914 36.8174C37.905 36.602 38.8593 37.0909 39.1677 37.9406C39.3015 38.3015 39.2608 38.7147 39.0513 39.1046ZM28.1873 33.5174C27.8963 33.5174 27.617 33.3603 27.4774 33.0867C26.9478 32.0741 26.8664 30.5725 27.2795 29.4376C27.4308 29.0244 27.8905 28.809 28.3036 28.9604C28.7168 29.1117 28.9321 29.5714 28.7808 29.9847C28.4899 30.7762 28.6121 31.8063 28.8914 32.3476C29.095 32.7375 28.9438 33.2206 28.5539 33.4301C28.4375 33.4883 28.3095 33.5232 28.1873 33.5232V33.5174ZM36.6946 33.5C36.5724 33.5 36.4444 33.4709 36.328 33.4127C35.9381 33.209 35.781 32.7259 35.9847 32.3359C36.264 31.7947 36.3804 30.7645 36.0836 29.973C35.9323 29.5598 36.1418 29.0942 36.5607 28.9429C36.9739 28.7916 37.4336 29.0011 37.5907 29.4143C38.0097 30.5492 37.934 32.0508 37.4103 33.0693C37.2707 33.3428 36.9914 33.5 36.7004 33.5H36.6946Z" fill="white"/>
</svg>
