<svg width="75" height="72" viewBox="0 0 75 72" fill="none" xmlns="http://www.w3.org/2000/svg">
<path d="M42.6007 25.0202C42.8451 25.3869 42.7461 25.8874 42.3795 26.1318C40.6688 27.2667 39.2198 29.1058 38.6554 30.846V33.7968C38.6554 34.2391 38.2946 34.5999 37.8524 34.5999C37.4101 34.5999 37.0494 34.2391 37.0494 33.7968V30.846C36.4791 29.1058 35.0302 27.2667 33.3252 26.1318C32.9586 25.8874 32.8597 25.3869 33.1041 25.0202C33.3485 24.6535 33.8431 24.5546 34.2155 24.799C35.711 25.7943 37.0028 27.2143 37.8582 28.7334C38.7078 27.2143 40.0054 25.7943 41.495 24.799C41.8675 24.5546 42.3621 24.6535 42.6065 25.0202H42.6007ZM74.8551 33.6047C74.8551 50.1801 66.761 63.374 52.0099 70.6781C51.3291 71.0099 50.6657 71.3533 50.0198 71.7025C49.9034 71.7665 49.7696 71.7956 49.6416 71.7956C49.4554 71.7956 49.2692 71.7316 49.1237 71.6035C48.8735 71.3882 48.7804 71.039 48.8909 70.7305C50.5843 65.9115 48.4487 60.2196 43.6946 56.5763C42.8916 58.4329 40.7153 59.7191 37.8582 59.7191C35.0011 59.7191 32.9354 58.5027 32.0509 56.553C27.2793 60.1963 25.1322 65.8999 26.8255 70.7305C26.936 71.039 26.8429 71.3882 26.5927 71.6035C26.4414 71.7316 26.261 71.7956 26.0748 71.7956C25.9468 71.7956 25.813 71.7665 25.6966 71.7025C25.0507 71.3533 24.3815 71.0157 23.7007 70.6781C8.9671 63.409 0.855469 50.2441 0.855469 33.6105C0.855469 23.5477 7.08173 9.55062 20.7621 2.60735C24.1662 0.878809 27.5645 0 30.8696 0C34.3785 0 36.805 1.00102 37.864 1.54228C38.9231 1.00102 41.3496 0 44.8584 0C48.1578 0 51.5619 0.878809 54.9659 2.60735C68.6405 9.55062 74.8726 23.5477 74.8726 33.6105L74.8551 33.6047ZM61.7741 17.4949C61.8847 17.8209 61.9836 18.1526 62.0418 18.5076C62.2804 19.8579 62.1174 21.2837 61.6228 22.3895C62.3967 22.6747 63.223 22.9774 64.1133 23.2858C68.8267 24.9387 71.4743 27.4006 72.9523 29.7693C72.2599 25.0958 70.3163 19.9335 67.0403 15.2368C65.7776 16.977 63.77 17.3553 61.7683 17.5008L61.7741 17.4949ZM24.8179 2.62483C25.8944 3.15445 26.9709 3.47453 28.094 3.80627C29.4033 4.19621 30.7591 4.59781 32.1673 5.35441C34.7451 6.73375 36.6478 8.63105 37.8524 10.9998C39.0569 8.62523 40.9655 6.73375 43.5375 5.35441C44.9457 4.59781 46.3015 4.19621 47.6108 3.80627C48.7338 3.47453 49.8103 3.14863 50.8868 2.62483C48.8444 1.94389 46.8252 1.59468 44.8526 1.59468C41.175 1.59468 38.8765 2.77615 38.2597 3.13699C38.0095 3.28249 37.7011 3.28249 37.4509 3.13699C36.8341 2.77615 34.5356 1.59468 30.858 1.59468C28.8854 1.59468 26.8604 1.94389 24.8179 2.62483ZM17.1776 6.62899C18.2483 7.8803 20.0813 8.19455 22.0074 8.52629L22.147 8.54959C26.1214 9.23053 28.8563 10.6099 30.2703 12.6585C31.2013 14.0088 31.5563 15.6209 31.3352 17.46C33.4533 17.687 36.2755 18.6589 37.8466 20.7425C39.4235 18.6473 42.2632 17.6754 44.358 17.4542C44.1369 15.6151 44.4918 14.0029 45.4228 12.6527C46.8427 10.604 49.5718 9.2247 53.5461 8.54376L53.6858 8.5205C55.6118 8.19458 57.4448 7.88029 58.5155 6.62317C57.1771 5.68033 55.7515 4.80149 54.2211 4.02743C53.7498 3.78881 53.2784 3.57347 52.8129 3.36977C51.1894 4.41155 49.6009 4.88881 48.0588 5.34859C46.7729 5.73271 45.5509 6.09355 44.2882 6.76867C41.4543 8.28769 39.5399 10.4993 38.603 13.3394C38.4983 13.6654 38.1899 13.8924 37.8466 13.8924C37.5033 13.8924 37.1949 13.6712 37.0843 13.3394C36.1474 10.4993 34.2388 8.28769 31.3992 6.76867C30.1365 6.09355 28.9145 5.72689 27.6285 5.34859C26.0923 4.89463 24.5037 4.41155 22.8744 3.36977C22.403 3.57347 21.9375 3.78881 21.4662 4.02743C19.9358 4.80731 18.5102 5.68033 17.1718 6.62317L17.1776 6.62899ZM47.122 51.1753C47.122 48.923 45.3647 47.4098 42.752 47.4098C41.3205 47.4098 39.5574 48.1256 38.6496 49.0335V52.1414C39.5283 53.2181 40.9306 54.516 43.3164 54.516C45.7021 54.516 47.1162 52.7816 47.1162 51.1811L47.122 51.1753ZM41.7627 45.8907C42.1119 45.5997 42.3505 45.105 42.5017 44.4881C42.3505 44.5987 42.1875 44.7035 42.0071 44.7908C41.0994 45.2389 39.6504 45.2738 37.8524 45.2738C36.0543 45.2738 34.5996 45.2389 33.6977 44.7908C33.5115 44.6977 33.3485 44.5929 33.1914 44.4823C33.3427 45.105 33.5813 45.5939 33.9304 45.8907C35.356 46.1003 36.8341 46.7346 37.8466 47.5844C38.8591 46.7346 40.3313 46.1003 41.7569 45.8907H41.7627ZM52.4929 39.9601C54.1862 38.2782 55.1812 36.0084 55.0939 34.0412C55.0299 32.6386 54.4422 31.4688 53.3483 30.5667C52.7547 30.072 52.0856 29.7461 51.3989 29.5424C51.4513 29.7752 51.4862 30.0196 51.4862 30.2582C51.4862 32.173 49.886 33.7269 47.925 33.7269C46.6274 33.7269 45.5043 33.0402 44.8817 32.0275C43.875 33.7618 43.8284 35.438 43.9041 37.3644C43.9216 37.7311 43.939 38.1094 43.9797 38.5051C44.1252 40.1173 44.6489 43.5104 43.6597 45.8616C44.9399 46.0071 46.0455 46.4669 46.8951 47.1711C48.3032 44.5754 50.7065 41.7469 52.4987 39.9601H52.4929ZM47.9192 32.1264C49.0015 32.1264 49.8802 31.2883 49.8802 30.2582C49.8802 29.9148 49.7812 29.5831 49.6008 29.2921C48.1461 29.3096 46.7903 29.8101 45.9931 30.5376C46.1386 31.4338 46.9416 32.1206 47.925 32.1206L47.9192 32.1264ZM55.4198 30.427C55.3383 30.0138 55.2394 29.6122 55.1172 29.2514C54.6401 27.8138 53.9709 26.9408 53.5229 26.7196C49.403 24.6943 45.8534 22.8377 44.6896 19.0314C42.7868 19.206 39.6039 20.1721 38.5914 22.6456C38.4692 22.9483 38.1782 23.1403 37.8524 23.1403C37.5265 23.1403 37.2356 22.9424 37.1134 22.6456C36.0951 20.1605 32.8946 19.2002 31.0151 19.0314C29.8513 22.8377 26.3076 24.6884 22.1819 26.7196C21.7339 26.9408 21.0647 27.8138 20.5875 29.2514C20.4653 29.6122 20.3606 30.0138 20.2791 30.4386C20.5817 30.037 20.9309 29.6646 21.3382 29.327C24.4804 26.7255 29.2229 27.4355 31.2013 29.7751C33.4183 32.4 33.5056 34.8909 33.4009 37.4285C33.3834 37.8068 33.3543 38.2083 33.3252 38.6157C33.1507 40.9845 33.1216 42.713 34.4076 43.3474C35.0476 43.6675 36.6711 43.6675 37.8524 43.6675C39.0336 43.6675 40.6571 43.6675 41.2972 43.3474C42.5832 42.713 42.5541 40.9845 42.3795 38.6157C42.3504 38.2083 42.3213 37.8068 42.3039 37.4285C42.1991 34.8909 42.2864 32.3941 44.5035 29.7751C46.4877 27.4297 51.2243 26.7255 54.3666 29.327C54.7681 29.6588 55.1172 30.0312 55.4198 30.4212V30.427ZM24.2186 30.264C24.2186 30.0196 24.2535 29.781 24.3059 29.5424C23.6192 29.7461 22.9559 30.072 22.3565 30.5667C21.2626 31.4746 20.6748 32.6444 20.6108 34.0412C20.5235 36.0084 21.5186 38.2782 23.2119 39.9601C25.0099 41.7469 27.4132 44.5754 28.8214 47.1711C29.6535 46.4786 30.7416 46.0246 31.9985 45.8675C31.0675 43.8188 31.6319 39.8612 31.7367 38.5051C31.7658 38.1152 31.7949 37.7311 31.8123 37.3644C31.8938 35.438 31.8414 33.7618 30.8347 32.0275C30.2121 33.0402 29.089 33.7269 27.7856 33.7269C25.8246 33.7269 24.2244 32.173 24.2244 30.2582L24.2186 30.264ZM27.7798 32.1264C28.7573 32.1264 29.5662 31.4397 29.7117 30.5434C28.9145 29.8159 27.5587 29.3153 26.1039 29.2979C25.9177 29.5889 25.8188 29.9206 25.8188 30.264C25.8188 31.2942 26.6974 32.1323 27.7798 32.1323V32.1264ZM2.73498 29.781C4.213 27.4122 6.85481 24.9445 11.5798 23.2858C12.4701 22.9716 13.3022 22.6747 14.0703 22.3895C13.5815 21.2837 13.4128 19.8579 13.6513 18.5076C13.7154 18.1584 13.8085 17.8209 13.919 17.4949C11.9173 17.3553 9.90395 16.9711 8.64706 15.2309C5.37099 19.9335 3.42744 25.1017 2.73498 29.7751V29.781ZM3.78239 44.5405C4.96363 35.0713 12.5341 30.3164 15.2748 28.5937C17.2184 27.3715 19.1619 26.417 21.0356 25.4974C25.4406 23.3324 28.9261 21.6213 29.6535 17.8383C29.9852 16.1272 29.7524 14.7304 28.9494 13.5664C27.7856 11.8844 25.4056 10.7263 21.8677 10.121L21.7281 10.0977C19.6449 9.74267 17.3231 9.3411 15.8916 7.58927C13.4884 9.4575 11.4052 11.5643 9.66538 13.8167C10.544 15.4928 12.2082 15.8013 14.722 15.9352C15.1468 15.3474 15.6763 14.8352 16.299 14.4453C17.9225 13.4209 19.8136 13.1648 21.6117 13.7352C23.113 14.2066 24.3349 15.196 24.8005 16.3193C24.8936 16.5463 24.8819 16.8024 24.7597 17.0177C23.142 19.9393 20.4595 21.6271 15.5599 23.5303C14.5358 23.926 13.3255 24.3684 12.0977 24.799C3.22379 27.9127 2.37422 34.047 2.49642 36.0025C2.68263 38.9766 3.0725 41.8284 3.77077 44.5405H3.78239ZM15.5716 21.8134C19.5692 20.2245 21.7804 18.8277 23.1537 16.6161C22.8046 16.1214 22.1121 15.5743 21.1403 15.2659C20.797 15.1553 20.2966 15.0447 19.7089 15.0447C18.9699 15.0447 18.0796 15.2193 17.1602 15.8013C15.8567 16.6219 15.3912 17.879 15.2341 18.787C15.0246 19.9801 15.2341 21.0859 15.5716 21.8134ZM10.2938 57.944C9.5257 55.261 9.35696 52.2462 9.90394 49.2663C10.9223 43.6908 14.1925 39.0522 19.1386 36.1306C18.2716 33.9597 18.2309 31.265 19.063 28.7508C19.1328 28.5471 19.2084 28.3609 19.2841 28.1688C18.2367 28.7159 17.1776 29.2921 16.1361 29.9498C13.1626 31.818 4.11989 37.5041 5.34769 49.2955C6.60458 52.415 8.25717 55.3075 10.2996 57.944H10.2938ZM30.4448 55.7789C29.7 55.5229 29.06 55.1271 28.5362 54.6382C25.8712 55.0863 22.1936 58.9857 21.7804 61.9307C21.7222 62.3322 21.3789 62.6175 20.989 62.6175C20.9541 62.6175 20.9134 62.6175 20.8785 62.6116C20.4421 62.5476 20.1337 62.146 20.1977 61.7037C20.6748 58.299 24.2826 54.289 27.5005 53.2473C27.2852 52.8224 27.1222 52.3742 27.0408 51.9261C22.8046 51.7573 18.7546 54.9176 17.6141 57.4376C17.4802 57.7345 17.1893 57.909 16.8867 57.909C16.7761 57.909 16.6656 57.8857 16.5608 57.8392C16.1593 57.6588 15.9789 57.1816 16.1593 56.78C17.6548 53.4684 22.374 50.1801 27.0466 50.3198C27.1164 49.8658 27.2328 49.4293 27.4074 49.0277C24.0324 48.242 18.3996 49.2198 15.688 52.898C15.5309 53.1075 15.2865 53.224 15.0421 53.224C14.8792 53.224 14.7104 53.1716 14.5649 53.0668C14.21 52.8049 14.1343 52.3044 14.3962 51.9493C17.358 47.9335 23.1246 46.7172 27.064 47.3457C25.7722 45.1749 23.7705 42.7712 22.083 41.0951C21.0647 40.0824 20.2791 38.8834 19.7438 37.6321C15.3214 40.321 12.4003 44.523 11.4809 49.5573C10.6022 54.3705 11.7602 59.8646 14.3089 62.3323C17.1369 65.0735 20.989 67.5528 24.8354 69.4501C23.9683 64.637 26.1214 59.3932 30.4507 55.7731L30.4448 55.7789ZM37.0494 52.1414V49.0335C36.1416 48.1256 34.3785 47.4098 32.947 47.4098C30.3343 47.4098 28.577 48.923 28.577 51.1753C28.577 52.7816 30.0317 54.5102 32.3767 54.5102C34.7218 54.5102 36.1707 53.2123 37.0436 52.1356L37.0494 52.1414ZM42.1235 56.0175C40.5058 55.7673 39.0918 54.9932 37.8466 53.6663C36.6071 54.9991 35.1931 55.7673 33.5696 56.0175C34.2388 57.8217 36.4675 58.1186 37.8466 58.1186C39.2257 58.1186 41.4543 57.8217 42.1235 56.0175ZM64.2239 49.5573C63.3045 44.523 60.3834 40.321 55.961 37.6321C55.4315 38.8834 54.6401 40.0882 53.6218 41.0951C51.9343 42.7712 49.9267 45.1749 48.6407 47.3457C52.5744 46.7172 58.341 47.9335 61.3086 51.9493C61.5705 52.3044 61.4948 52.8049 61.1398 53.0668C60.9944 53.1716 60.8314 53.224 60.6627 53.224C60.4183 53.224 60.1739 53.1133 60.0168 52.898C57.3052 49.2198 51.6666 48.2478 48.2974 49.0277C48.472 49.4293 48.5883 49.86 48.6582 50.3198C53.3308 50.1743 58.05 53.4684 59.5455 56.78C59.7258 57.1816 59.5455 57.6588 59.1439 57.8392C59.0392 57.8857 58.9228 57.909 58.8123 57.909C58.5097 57.909 58.2187 57.7345 58.0849 57.4376C56.9444 54.9176 52.8886 51.7515 48.6582 51.9261C48.5767 52.3742 48.4196 52.8224 48.1985 53.2473C51.4164 54.289 55.0241 58.299 55.5013 61.7037C55.5653 62.1402 55.2569 62.5476 54.8205 62.6116C54.7797 62.6116 54.7448 62.6175 54.7099 62.6175C54.32 62.6175 53.9767 62.3264 53.9185 61.9307C53.5054 58.9857 49.8278 55.0863 47.1627 54.6382C46.6448 55.1271 45.9989 55.517 45.2541 55.7789C49.5834 59.399 51.7364 64.637 50.8694 69.456C54.7332 67.5354 58.5911 65.0211 61.4366 62.2683C63.9504 59.8355 65.0967 54.3414 64.2239 49.5632V49.5573ZM59.5687 29.9498C58.5213 29.2921 57.4681 28.7159 56.4207 28.1746C56.4963 28.3609 56.572 28.5529 56.636 28.7508C57.4681 31.265 57.4215 33.9597 56.5603 36.1306C61.5064 39.0522 64.7767 43.6908 65.795 49.2663C66.3362 52.2229 66.1732 55.2086 65.4226 57.8741C67.4534 55.2435 69.106 52.3568 70.3571 49.2431C71.5558 37.4808 62.5422 31.8122 59.5687 29.9439V29.9498ZM73.1909 35.9909C73.3248 34.2449 72.4461 27.9069 63.5896 24.799C62.3618 24.3684 61.1515 23.926 60.1273 23.5303C55.2278 21.6271 52.5453 19.9393 50.9276 17.0177C50.8112 16.8024 50.7937 16.5463 50.8868 16.3193C51.3524 15.2018 52.5743 14.2124 54.0756 13.7352C55.8795 13.1648 57.7649 13.4151 59.3942 14.4453C60.0168 14.8352 60.5405 15.3474 60.9653 15.9352C63.4849 15.8013 65.1491 15.4928 66.022 13.8167C64.2821 11.5643 62.1989 9.4575 59.7957 7.58927C58.3642 9.3411 56.0366 9.74267 53.9534 10.0977L53.8138 10.121C50.2817 10.7263 47.8959 11.8844 46.7379 13.5664C45.9349 14.7304 45.7022 16.1272 46.0339 17.8383C46.7612 21.6213 50.2468 23.3324 54.6517 25.4974C56.5312 26.417 58.4748 27.3715 60.4125 28.5937C63.1532 30.3164 70.712 35.0655 71.9049 44.5172C72.6032 41.8109 72.9581 38.9591 73.1793 35.9967L73.1909 35.9909ZM60.4649 18.787C60.3019 17.879 59.8422 16.6219 58.5388 15.8013C56.892 14.7595 55.3383 15.0214 54.5586 15.2659C53.5868 15.5743 52.8944 16.1214 52.5452 16.6161C53.9127 18.8277 56.1297 20.2245 60.1215 21.8134C60.4648 21.0859 60.6743 19.9801 60.4649 18.787Z" fill="white"/>
</svg>
