<svg width="76" height="82" viewBox="0 0 76 82" fill="none" xmlns="http://www.w3.org/2000/svg">
<path d="M13.232 28.8057C13.1738 28.8057 13.1098 28.8057 13.0516 28.7999C12.2893 28.7533 11.5911 28.41 11.0906 27.8396C10.5844 27.2692 10.3342 26.5301 10.3807 25.7735C10.4797 24.2137 11.8355 22.9974 13.4124 23.1021C14.1747 23.1487 14.873 23.4921 15.3734 24.0624C15.8796 24.6328 16.1299 25.3719 16.0833 26.1343C15.9902 27.6359 14.7391 28.8115 13.232 28.8115V28.8057ZM13.2262 24.6968C12.5687 24.6968 12.0159 25.2148 11.9751 25.8724C11.9577 26.2042 12.0624 26.5301 12.2893 26.7804C12.5105 27.0306 12.8189 27.1819 13.1505 27.1994H13.232C13.8896 27.1994 14.4424 26.6872 14.4831 26.0238C14.5064 25.692 14.3958 25.3661 14.1747 25.1158C13.9536 24.8656 13.6452 24.7143 13.3135 24.6968H13.232H13.2262ZM71.5147 26.4137C68.7623 24.1439 64.98 23.3058 61.7214 24.2021C60.6682 20.5471 58.2649 16.9155 54.7503 13.8658C53.924 13.1499 53.057 12.4981 52.1608 11.8811C53.0686 11.5087 54.0171 11.1827 54.663 11.0605C54.983 11.0023 55.2332 10.7579 55.3031 10.4436C55.3729 10.1293 55.2449 9.8034 54.983 9.61716C47.1391 4.10561 37.8637 0.875512 27.4128 0.00251104C27.2673 -0.00912897 27.1219 0.0199796 26.988 0.0839996C22.3503 2.3829 18.6844 6.3114 17.1191 10.6415C12.4814 13.1965 9.00746 16.735 7.19776 20.8847C4.99237 25.9423 5.37061 31.4946 8.28591 36.9421C8.42557 37.204 8.69905 37.367 8.99 37.367C9.03655 37.367 9.08892 37.3669 9.13547 37.3553C17.8174 35.7257 24.0495 31.3316 29.6938 26.9666C29.7229 26.9433 29.752 26.9259 29.7811 26.9026C31.4512 27.9327 33.3191 28.666 35.0415 28.8057C35.99 28.8814 36.8163 28.893 37.5494 28.9047C39.6326 28.9338 41.0059 28.9512 43.0542 30.348C43.188 30.4412 43.3451 30.4877 43.5022 30.4877C43.6128 30.4877 43.7234 30.4644 43.8281 30.4179C44.0783 30.3073 44.2587 30.0687 44.2936 29.7951C44.5089 28.2354 43.6361 26.082 41.902 23.882C41.5238 23.3989 41.0874 22.9101 40.616 22.427C46.6445 21.5191 52.4052 22.9508 56.9324 26.373C54.1917 28.0433 52.4867 30.6099 52.091 33.7236C51.643 37.2564 53.0221 41.1383 55.4369 43.1637C55.5824 43.2859 55.7628 43.3499 55.949 43.3499C56.0246 43.3499 56.1061 43.3383 56.1817 43.315C56.4378 43.2393 56.6414 43.0356 56.7171 42.7737C57.3514 40.6436 58.4686 39.1013 59.5451 37.6056C60.8195 35.8421 62.0298 34.1543 62.2858 31.7856C63.7173 32.8448 65.6317 33.3395 67.5171 33.8167C69.8854 34.4104 72.341 35.0331 73.7434 36.7442C73.9005 36.9305 74.1274 37.0352 74.3602 37.0352C74.43 37.0352 74.5056 37.0294 74.5755 37.0061C74.8839 36.9188 75.105 36.6569 75.1516 36.3426C75.6985 32.321 74.4067 28.7941 71.5205 26.4137H71.5147ZM52.6496 9.97801C51.8641 10.2574 51.096 10.5833 50.5373 10.8394C50.1067 10.5833 49.6645 10.3388 49.2223 10.1002C49.8973 9.76849 50.741 9.41929 51.4684 9.23305C51.8641 9.47749 52.2598 9.72193 52.6496 9.97801ZM49.6354 8.16798C48.8266 8.4939 48.0294 8.88966 47.4882 9.25632C46.9587 9.0177 46.4175 8.79071 45.8764 8.58119C46.6328 8.13305 47.5348 7.67327 48.233 7.41719C48.7044 7.66163 49.1757 7.9119 49.6354 8.16798ZM46.3477 6.49764C45.4574 6.93996 44.5613 7.4754 43.9619 7.9119C43.3509 7.71984 42.7283 7.54524 42.0999 7.3881C43.0193 6.75372 44.09 6.11933 44.9046 5.85161C45.3876 6.05531 45.8705 6.27065 46.3477 6.49181V6.49764ZM42.8563 5.031C41.7973 5.61301 40.7324 6.36377 40.0109 6.94577C39.138 6.78863 38.2594 6.6606 37.3691 6.5733C38.5794 5.72358 39.9352 4.90296 41.0408 4.38497C41.6518 4.58868 42.257 4.80984 42.8563 5.031ZM38.882 3.71568C37.5145 4.50138 36.0656 5.49078 34.9484 6.42198C33.8777 6.39288 32.7954 6.42198 31.713 6.49764C33.4645 5.0892 35.4837 3.73895 36.9384 3.19769C37.5902 3.36065 38.2419 3.53526 38.882 3.7215V3.71568ZM34.4421 2.62151C32.3182 3.84953 30.1303 5.65956 28.9316 6.77118C27.6805 6.9516 26.4236 7.20769 25.1667 7.52197C26.9822 5.63628 29.4844 3.75642 32.26 2.22576C32.9932 2.34798 33.7147 2.47601 34.4363 2.62151H34.4421ZM27.5001 1.62047C28.2507 1.68449 28.9898 1.77179 29.7288 1.85909C27.4885 3.26172 24.4335 5.51988 22.3969 8.33676C21.3378 8.6976 20.3195 9.09336 19.3419 9.53568C20.9945 6.3114 23.9156 3.44795 27.5001 1.62047ZM13.6452 34.5151C14.0932 33.8458 14.4598 33.0602 14.7508 32.129C14.8846 31.7099 14.646 31.256 14.2212 31.1279C13.8023 30.9999 13.3484 31.2327 13.2204 31.6575C12.4406 34.1718 11.1314 35.1321 9.40315 35.6326C7.51781 31.8612 6.98828 28.1015 7.72147 24.464C8.60013 20.1223 12.5861 18.8477 15.2454 19.6043C17.9046 20.3609 20.2148 22.881 19.4641 25.7793C19.3885 26.082 19.4874 26.4021 19.7318 26.5999C19.9762 26.7978 20.3137 26.8327 20.5872 26.6931C21.5531 26.2158 22.5016 26.2798 23.4036 26.8793C24.1775 27.3915 24.643 28.1248 24.8059 28.5962C21.4949 30.9242 17.8814 33.066 13.6393 34.5093L13.6452 34.5151ZM26.1385 27.6417C25.7602 26.8677 25.0911 26.082 24.2997 25.5523C23.3337 24.9063 22.2689 24.6677 21.2098 24.8365C21.3087 21.5831 18.6786 18.9175 15.6876 18.062C14.0583 17.5964 12.1322 17.6255 10.3807 18.5159C13.4415 14.2091 18.6669 10.8801 25.2133 9.15739C35.6292 6.41616 46.2779 8.63358 53.7029 15.0821C57.4503 18.3355 59.8477 22.264 60.5227 26.082C56.2632 19.1969 48.0527 14.9192 38.9925 15.1986C35.7165 15.2917 32.6906 15.9493 30.0023 17.1482C27.9482 18.0678 26.2083 19.2202 25.0969 20.39C24.9281 20.5704 24.8467 20.8148 24.8874 21.0593C25.1376 22.6889 26.5283 24.4873 28.3904 25.9481C27.6514 26.5185 26.9007 27.083 26.1385 27.6475V27.6417ZM40.6393 24.8714C41.5645 26.0412 42.2221 27.2169 42.5305 28.1946C40.7731 27.3449 39.3184 27.3274 37.5669 27.2983C36.8221 27.2925 36.054 27.2809 35.1637 27.2052C31.585 26.9142 27.3023 23.5619 26.5632 21.1873C27.5001 20.3085 28.885 19.418 30.4678 18.6964C34.7796 19.2027 38.5445 22.2 40.6509 24.8714H40.6393ZM39.1497 21.0593C37.4796 19.6508 35.4488 18.4054 33.2085 17.6837C35.024 17.1541 36.9734 16.8573 39.0391 16.7991C46.6736 16.5895 53.6505 19.7789 57.8576 25.0809C52.6904 21.1815 46.0509 19.6916 39.1555 21.0593H39.1497ZM58.2417 36.6627C57.3397 37.914 56.3389 39.2992 55.6115 41.0743C54.1218 39.2643 53.3421 36.4939 53.668 33.9215C53.924 31.9252 54.9365 29.2248 58.2417 27.4555C59.1087 28.2295 59.9233 29.0793 60.6682 30.0105C60.9707 32.8623 59.772 34.5501 58.2417 36.6627ZM67.8953 32.2628C65.5154 31.6633 63.275 31.0872 62.2625 29.4808C62.3731 28.2645 62.3149 27.0248 62.0938 25.7793C64.8404 25.0111 68.163 25.7269 70.4964 27.6534C72.5505 29.347 73.6444 31.739 73.6677 34.5035C72.0209 33.3046 69.9319 32.775 67.8953 32.2628ZM41.4423 13.2779C41.8497 13.1092 42.0533 12.6436 41.8846 12.2362C41.646 11.6425 41.3783 11.0431 41.099 10.4669C40.9012 10.0711 40.424 9.90234 40.0283 10.1002C39.6326 10.2981 39.4697 10.7753 39.6617 11.1711C39.9294 11.7124 40.1738 12.2769 40.4007 12.8298C40.5229 13.1441 40.8255 13.3361 41.1456 13.3361C41.2445 13.3361 41.3492 13.3187 41.4423 13.2779ZM45.3061 13.9123C45.7134 13.7435 45.9113 13.278 45.7425 12.8706C45.5912 12.4981 45.4283 12.1314 45.2596 11.7706C45.0734 11.369 44.5962 11.1944 44.1947 11.3864C43.7932 11.5727 43.6186 12.0499 43.8106 12.4515C43.9678 12.7949 44.119 13.1383 44.2645 13.4875C44.3925 13.7959 44.6893 13.9822 45.0035 13.9822C45.1083 13.9822 45.2072 13.9647 45.3061 13.924V13.9123ZM37.0316 13.2663C37.4389 13.0975 37.6367 12.6319 37.4738 12.2245C37.1538 11.4446 36.7872 10.6706 36.3798 9.93144C36.1704 9.5415 35.6816 9.40183 35.2917 9.61135C34.9076 9.82669 34.7622 10.3097 34.9775 10.6997C35.3557 11.3864 35.6932 12.1023 35.99 12.824C36.118 13.1324 36.4147 13.3245 36.7348 13.3245C36.8337 13.3245 36.9326 13.307 37.0316 13.2663ZM32.999 13.9181C33.4005 13.7319 33.5693 13.2547 33.3831 12.8531C32.9117 11.8462 32.3415 10.8801 31.6839 9.98382C31.4221 9.62298 30.9216 9.54732 30.5667 9.80923C30.2059 10.0711 30.1303 10.5716 30.3921 10.9267C30.9857 11.7415 31.5035 12.6203 31.9342 13.534C32.0738 13.825 32.3589 13.9938 32.6615 13.9938C32.7779 13.9938 32.8885 13.9705 32.999 13.9181ZM29.176 15.152C29.5658 14.9483 29.7229 14.4652 29.5193 14.0753C28.8792 12.8414 28.0529 11.7182 27.0695 10.7404C26.7553 10.4261 26.249 10.432 25.9348 10.7404C25.6206 11.0547 25.6264 11.561 25.9348 11.8753C26.8018 12.7367 27.5292 13.7261 28.0936 14.8144C28.2391 15.088 28.5126 15.2451 28.8035 15.2451C28.9257 15.2451 29.0538 15.216 29.1701 15.152H29.176ZM25.5973 16.9271C25.9872 16.7176 26.1326 16.2345 25.929 15.8446C25.1376 14.3605 23.9622 13.1092 22.5249 12.2303C22.1467 11.9975 21.6579 12.1139 21.4251 12.4922C21.1923 12.8705 21.3087 13.3594 21.687 13.5922C22.8799 14.3256 23.8574 15.3673 24.515 16.6012C24.6605 16.8689 24.9339 17.026 25.2249 17.026C25.3529 17.026 25.4809 16.9969 25.6031 16.9329L25.5973 16.9271ZM22.2049 19.3017C22.6122 19.1387 22.8158 18.6731 22.6471 18.2599C21.687 15.8678 19.3361 14.797 17.4391 14.797C16.9969 14.797 16.6361 15.152 16.6361 15.5943C16.6361 16.0366 16.9969 16.3917 17.4391 16.3917C18.8008 16.3917 20.4824 17.1541 21.1633 18.8535C21.2913 19.1678 21.588 19.3599 21.9081 19.3599C22.007 19.3599 22.1059 19.3424 22.2049 19.3017ZM62.1927 52.3244C62.2509 52.3244 62.3149 52.3244 62.3731 52.3302C63.1354 52.3768 63.8337 52.7201 64.3341 53.2905C64.8404 53.8608 65.0906 54.6 65.044 55.3624C64.9451 56.9222 63.5893 58.1385 62.0182 58.0338C61.2559 57.9872 60.5576 57.6439 60.0572 57.0735C59.5509 56.5031 59.3007 55.7698 59.3473 55.0074C59.4404 53.5058 60.6914 52.3302 62.1927 52.3302V52.3244ZM62.1927 56.4333C62.8503 56.4333 63.4031 55.9153 63.4438 55.2577C63.4671 54.9201 63.3565 54.6 63.1354 54.3439C62.9143 54.0936 62.6059 53.9423 62.2742 53.9249H62.1927C61.5352 53.9249 60.9824 54.437 60.9417 55.1005C60.9184 55.4323 61.0289 55.7582 61.2501 56.0084C61.4712 56.2587 61.7796 56.41 62.1113 56.4275H62.1927V56.4333ZM3.91005 54.7164C6.6566 56.9804 10.4447 57.8243 13.7034 56.928C14.7566 60.583 17.1656 64.2146 20.6745 67.2585C21.5008 67.9744 22.3678 68.6262 23.2581 69.2431C22.3503 69.6156 21.4018 69.9473 20.7559 70.0638C20.4417 70.1219 20.1857 70.3664 20.1158 70.6807C20.046 70.9949 20.174 71.3209 20.4359 71.5071C28.2798 77.0128 37.5553 80.2488 48.0061 81.1218C48.1458 81.1334 48.2971 81.1043 48.4251 81.0403C53.0628 78.7472 56.7287 74.8129 58.2998 70.4828C62.9376 67.9278 66.4115 64.3892 68.2212 60.2396C70.4266 55.182 70.0483 49.6297 67.133 44.1822C66.9876 43.9203 66.7199 43.7573 66.4289 43.7573C66.3824 43.7573 66.33 43.7573 66.2834 43.769C57.6016 45.3986 51.3695 49.7927 45.7251 54.1577C45.696 54.1809 45.6669 54.1984 45.6378 54.2217C43.9678 53.1916 42.0999 52.4582 40.3775 52.3186C39.429 52.2429 38.6027 52.2313 37.8695 52.2196C35.7863 52.1905 34.413 52.173 32.3647 50.7762C32.2309 50.6831 32.0738 50.6366 31.9167 50.6366C31.8061 50.6366 31.6956 50.6598 31.5908 50.7064C31.3348 50.817 31.1602 51.0556 31.1253 51.3291C30.91 52.8889 31.7829 55.0423 33.5169 57.2423C33.8951 57.7195 34.3316 58.2142 34.8029 58.6973C28.7745 59.6052 23.0137 58.1735 18.4865 54.7513C21.2273 53.0868 22.9322 50.5143 23.3337 47.4006C23.7818 43.8679 22.4027 39.986 19.982 37.9606C19.8365 37.8384 19.6561 37.7743 19.4699 37.7743C19.3943 37.7743 19.3128 37.786 19.2372 37.8093C18.9811 37.8849 18.7775 38.0886 18.7018 38.3505C18.0676 40.4807 16.9562 42.023 15.8738 43.5187C14.5995 45.2822 13.3891 46.97 13.1331 49.3387C11.7016 48.2853 9.7872 47.7848 7.90186 47.3075C5.53354 46.7139 3.07794 46.097 1.67558 44.3801C1.51846 44.1938 1.29152 44.0891 1.05876 44.0891C0.983112 44.0891 0.913287 44.1007 0.84346 44.1182C0.535055 44.2055 0.308112 44.4674 0.26738 44.7816C-0.279602 48.8033 1.01221 52.3302 3.89841 54.7106L3.91005 54.7164ZM22.7693 71.1463C23.5549 70.8669 24.323 70.541 24.8816 70.2849C25.3122 70.541 25.7544 70.7854 26.1967 71.024C25.5217 71.3558 24.6779 71.705 23.9505 71.8912C23.5549 71.6468 23.1592 71.4023 22.7693 71.1463ZM25.7893 72.9621C26.5982 72.6362 27.3954 72.2404 27.9423 71.8738C28.4719 72.1124 29.0072 72.3394 29.5542 72.5489C28.7977 72.997 27.8958 73.4568 27.1975 73.7129C26.7262 73.4684 26.2548 73.2182 25.7893 72.9621ZM29.077 74.6325C29.9673 74.1901 30.8635 73.6547 31.4628 73.2182C32.0738 73.4102 32.6964 73.5849 33.3249 73.742C32.4055 74.3764 31.329 75.0107 30.5201 75.2785C30.0372 75.0748 29.5542 74.8594 29.077 74.6383V74.6325ZM32.5684 76.0933C33.6275 75.5113 34.6923 74.7605 35.4139 74.1785C36.2867 74.3356 37.1654 74.4637 38.0557 74.551C36.8453 75.4007 35.4895 76.2213 34.3839 76.7451C33.7729 76.5414 33.1678 76.3203 32.5684 76.0933ZM36.5428 77.4144C37.9102 76.6287 39.365 75.6393 40.4822 74.7081C41.5529 74.7372 42.6352 74.7081 43.7175 74.6325C41.966 76.0409 39.9468 77.3911 38.4921 77.9324C37.8404 77.7694 37.1887 77.5948 36.5486 77.4086L36.5428 77.4144ZM40.9826 78.5086C43.1065 77.2806 45.2945 75.4705 46.4874 74.3589C47.7384 74.1785 48.9953 73.9224 50.2522 73.6081C48.4367 75.4938 45.9287 77.3737 43.1589 78.9043C42.4257 78.7821 41.7042 78.6541 40.9826 78.5086ZM47.9246 79.5096C47.174 79.4456 46.4292 79.3583 45.696 79.271C47.9305 77.8626 50.9912 75.6102 53.0279 72.7933C54.0869 72.4325 55.1052 72.0367 56.0828 71.5944C54.4302 74.8187 51.5033 77.6821 47.9246 79.5096ZM61.7796 46.6149C61.3315 47.2842 60.9649 48.0699 60.674 49.0011C60.5401 49.426 60.7787 49.8741 61.2035 50.0022C61.6225 50.1302 62.0764 49.8974 62.2044 49.4726C62.9841 46.9583 64.2992 45.998 66.0216 45.4975C67.9069 49.2689 68.4365 53.0286 67.7033 56.6661C66.8246 61.0078 62.8386 62.2824 60.1794 61.5258C57.5201 60.7692 55.21 58.2491 55.9606 55.3508C56.0421 55.0481 55.9373 54.728 55.6929 54.5302C55.4486 54.3323 55.1111 54.2973 54.8376 54.437C53.8716 54.9143 52.9289 54.8502 52.0212 54.2508C51.2473 53.7386 50.7818 52.9995 50.6188 52.5397C53.9298 50.2117 57.5492 48.0699 61.7854 46.6208L61.7796 46.6149ZM49.2863 53.4884C49.6645 54.2682 50.3337 55.0481 51.1309 55.5777C52.0968 56.2238 53.1617 56.4624 54.2208 56.2994C54.1218 59.5528 56.7462 62.2184 59.7488 63.0681C61.3781 63.5337 63.3041 63.5046 65.0557 62.6141C61.9949 66.9209 56.7695 70.25 50.2231 71.9727C39.8072 74.7139 29.1585 72.4965 21.7335 66.048C17.9861 62.7946 15.5887 58.866 14.9137 55.0481C19.1732 61.9332 27.3837 66.2109 36.4438 65.9315C39.7199 65.8384 42.7458 65.1808 45.4341 63.9818C47.4882 63.0623 49.2281 61.9099 50.3395 60.7401C50.5083 60.5597 50.5897 60.3152 50.549 60.0708C50.2988 58.4412 48.908 56.6428 47.046 55.182C47.785 54.6116 48.5356 54.0471 49.2979 53.4826L49.2863 53.4884ZM34.7854 56.2587C33.8602 55.0889 33.2027 53.9132 32.8943 52.9355C34.6516 53.7794 36.1063 53.8027 37.8578 53.8259C38.6027 53.8318 39.3708 53.8434 40.2611 53.9191C43.8397 54.2101 48.1283 57.5624 48.8673 59.9369C47.9305 60.8158 46.5456 61.7062 44.9628 62.4279C40.6568 61.9216 36.8919 58.9243 34.7796 56.2529L34.7854 56.2587ZM36.2751 60.0708C37.9451 61.4792 39.976 62.7247 42.2163 63.4464C40.4007 63.976 38.4514 64.2728 36.3857 64.3369C28.7512 64.5464 21.7801 61.3512 17.5671 56.055C22.7344 59.9544 29.3738 61.4443 36.2693 60.0708H36.2751ZM17.1831 44.4615C18.085 43.2102 19.0859 41.8251 19.8133 40.05C21.3029 41.86 22.0827 44.6303 21.7568 47.2028C21.5008 49.199 20.4883 51.8995 17.1831 53.6688C16.3161 52.8947 15.5072 52.045 14.7566 51.1138C14.454 48.262 15.6585 46.5742 17.1831 44.4615ZM7.52944 48.8673C9.9094 49.4667 12.1497 50.0429 13.1622 51.6492C13.0516 52.8598 13.104 54.1053 13.3309 55.3508C10.5844 56.119 7.26177 55.4032 4.92837 53.4767C2.87428 51.7831 1.78032 49.3911 1.75704 46.6208C3.40381 47.8197 5.49281 48.3493 7.52944 48.8615V48.8673ZM33.9824 67.8521C33.5751 68.0209 33.3714 68.4865 33.5402 68.8939C33.7788 69.4876 34.0406 70.087 34.3257 70.6632C34.5178 71.059 35.0007 71.2219 35.3964 71.0299C35.7921 70.8378 35.9609 70.3548 35.763 69.959C35.4953 69.4177 35.251 68.859 35.024 68.3003C34.896 67.986 34.5992 67.794 34.2792 67.794C34.1803 67.794 34.0813 67.8114 33.9824 67.8521ZM30.1186 67.2178C29.7113 67.3865 29.5193 67.8521 29.6822 68.2595C29.8335 68.632 29.9964 68.9987 30.1652 69.3595C30.3514 69.7611 30.8285 69.9357 31.2301 69.7436C31.6316 69.5574 31.8061 69.0802 31.6199 68.6786C31.457 68.3352 31.3115 67.9918 31.166 67.6426C31.038 67.3342 30.7413 67.1479 30.427 67.1479C30.3281 67.1479 30.2234 67.1654 30.1245 67.2061L30.1186 67.2178ZM38.3932 67.8638C37.9859 68.0326 37.788 68.4982 37.951 68.9056C38.271 69.6913 38.6376 70.4595 39.0449 71.1986C39.2544 71.5886 39.7432 71.7283 40.1331 71.5129C40.5171 71.3034 40.6626 70.8145 40.4473 70.4246C40.069 69.7378 39.7316 69.022 39.4348 68.3003C39.3068 67.9918 39.01 67.7998 38.69 67.7998C38.591 67.7998 38.4863 67.8172 38.3874 67.858L38.3932 67.8638ZM42.4257 67.212C42.0242 67.3982 41.8497 67.8754 42.0417 68.277C42.513 69.2839 43.0833 70.25 43.7408 71.1463C44.0027 71.5071 44.5031 71.5828 44.8581 71.3209C45.213 71.059 45.2945 70.5584 45.0326 70.2034C44.4391 69.3886 43.9212 68.5098 43.4906 67.5961C43.3509 67.3051 43.0658 67.1363 42.7632 67.1363C42.6469 67.1363 42.5363 67.1596 42.4257 67.212ZM46.243 65.9781C45.8531 66.1818 45.696 66.6649 45.8997 67.0548C46.5397 68.2886 47.366 69.4119 48.3494 70.3897C48.6637 70.7039 49.1699 70.6981 49.4783 70.3897C49.7925 70.0754 49.7867 69.569 49.4783 69.2548C48.6113 68.3934 47.8839 67.404 47.3195 66.3157C47.1798 66.0421 46.9005 65.885 46.6096 65.885C46.4874 65.885 46.3593 65.9141 46.243 65.9781ZM49.8274 64.203C49.4376 64.4125 49.2921 64.8956 49.4958 65.2855C50.2871 66.7696 51.4626 68.0209 52.8999 68.9056C53.2781 69.1384 53.7669 69.0161 53.9996 68.6437C54.2324 68.2712 54.116 67.7765 53.7378 67.5437C52.5449 66.8104 51.5673 65.7686 50.9098 64.5347C50.7643 64.267 50.4908 64.1099 50.1999 64.1099C50.0718 64.1099 49.9438 64.139 49.8216 64.203H49.8274ZM53.2199 61.8226C52.8067 61.9856 52.6089 62.4512 52.7718 62.8644C53.732 65.2564 56.0828 66.3273 57.9856 66.3273C58.4279 66.3273 58.7828 65.9723 58.7828 65.53C58.7828 65.0876 58.422 64.7326 57.9856 64.7326C56.624 64.7326 54.9423 63.9702 54.2615 62.2708C54.1335 61.9565 53.8367 61.7644 53.5167 61.7644C53.4177 61.7644 53.3188 61.7819 53.2199 61.8226Z" fill="white"/>
</svg>
