<svg width="75" height="74" viewBox="0 0 75 74" fill="none" xmlns="http://www.w3.org/2000/svg">
<path d="M22.8333 31.9809C21.8907 31.9809 21.1516 31.7481 20.6628 31.2942C20.3312 30.9857 19.9588 30.4212 20.0519 29.4958C20.11 28.972 20.1973 28.3784 20.3021 27.7265C20.5465 26.1609 20.8491 24.217 20.7443 22.2964C20.6861 21.2197 19.5922 20.76 19.1267 20.6145C17.9512 20.242 16.2812 20.3991 15.4782 21.406C15.2047 21.7552 14.7042 21.8134 14.3551 21.5398C14.006 21.2663 13.9478 20.7658 14.2212 20.4166C15.5363 18.7462 17.9337 18.56 19.6096 19.0896C21.2389 19.6076 22.2631 20.7716 22.3387 22.2091C22.4551 24.2927 22.135 26.3355 21.879 27.9709C21.7801 28.5937 21.6928 29.164 21.6404 29.6646C21.6055 29.9905 21.7102 30.0894 21.751 30.1244C21.9779 30.3397 22.6413 30.491 23.8167 30.2873C24.2532 30.2116 24.6663 30.5026 24.7419 30.9391C24.8176 31.3756 24.5266 31.7889 24.0902 31.8645C23.6363 31.946 23.2116 31.9809 22.8275 31.9809H22.8333ZM26.3247 35.3216C26.7088 35.1005 26.8426 34.6116 26.6215 34.2275C26.4004 33.8433 25.9116 33.7095 25.5275 33.9306C24.6838 34.4137 22.9497 34.5301 21.8208 33.919C21.431 33.7095 20.948 33.855 20.7385 34.2449C20.529 34.6348 20.6745 35.1179 21.0643 35.3274C21.8208 35.7348 22.7693 35.9385 23.712 35.9385C24.6547 35.9385 25.6032 35.7348 26.3247 35.3158V35.3216ZM19.5573 24.4208C19.9529 24.2171 20.1042 23.7398 19.9064 23.344C19.7027 22.9483 19.2256 22.797 18.8299 22.9948C18.1723 23.3324 17.4391 23.2742 16.6594 22.826C16.2753 22.6049 15.7866 22.7388 15.5655 23.1229C15.3443 23.507 15.4781 23.9959 15.8622 24.217C16.5605 24.6186 17.2646 24.8223 17.9512 24.8223C18.504 24.8223 19.0452 24.6884 19.5631 24.4265L19.5573 24.4208ZM30.8984 24.4964C31.2999 24.3101 31.4745 23.8329 31.2883 23.4313C31.1021 23.0298 30.6249 22.8551 30.2234 23.0414C29.4495 23.4022 28.5941 23.3382 27.6805 22.8668C27.2848 22.6631 26.8018 22.8144 26.604 23.2102C26.4003 23.6001 26.5517 24.0832 26.9473 24.2869C27.698 24.6768 28.4544 24.8747 29.1876 24.8747C29.7753 24.8747 30.3514 24.7466 30.8984 24.4964ZM74.2496 32.7666C74.0052 55.1038 55.4253 73.2738 32.8361 73.2738C20.273 73.2738 8.53034 67.6634 0.616561 57.8858C0.40126 57.6181 0.377963 57.2456 0.55835 56.9604C3.32817 52.5314 6.88939 51.7515 10.0258 51.0589C11.9228 50.6457 13.715 50.2499 15.1116 49.0685C18.5738 46.1352 18.6029 42.4744 18.6029 40.2511C17.381 39.2617 16.2346 37.9464 15.2221 36.3459C5.46374 33.465 2.46698 23.3557 3.51439 17.4134C4.0381 14.4394 6.37732 9.73103 11.6318 7.80461C14.9312 2.63063 19.9995 0 26.7146 0C38.4747 0 42.0533 9.01517 45.5214 17.7335C48.7626 25.8932 57.235 28.9895 62.2044 28.5995C64.7531 28.3958 68.4481 27.3889 71.5729 23.7747C71.7591 23.5535 72.05 23.4546 72.3352 23.5128C72.6203 23.571 72.8473 23.7747 72.9404 24.0483C73.7608 26.5334 74.2904 28.4831 74.2438 32.7608L74.2496 32.7666ZM70.735 44.2961C69.6526 44.5347 68.4772 44.6511 67.2611 44.6511C63.7639 44.6511 59.9466 43.7664 57.1244 42.6199C47.2962 38.6274 44.2878 30.654 40.8139 21.4234C40.0982 19.5261 39.365 17.5706 38.5445 15.5976C35.5943 8.49138 31.1195 3.93432 25.929 2.7645C23.3687 2.18832 20.82 2.49096 18.4924 3.60258C27.8202 4.16131 31.5501 7.73479 34.5702 13.5664C36.1238 16.5696 37.4447 20.2652 38.8471 24.1705C41.6169 31.9169 44.7591 40.6935 50.4443 45.4019C55.9548 49.9706 63.6009 52.671 66.8188 52.706C68.4423 50.0811 69.7632 47.2584 70.735 44.2844V44.2961ZM4.97495 21.0975C5.47538 18.2574 7.09888 15.7606 9.89198 13.4268C11.4747 12.1056 13.1797 11.4421 14.8264 10.8019C16.2986 10.2257 17.7126 9.67283 18.9695 8.67761C7.08141 7.25753 5.11459 17.588 5.09713 17.6928C4.91674 18.7171 4.87603 19.8753 4.97495 21.0975ZM9.1064 30.8402C7.95425 27.0456 9.17624 22.4594 10.5728 20.2187C12.4232 17.2505 15.3676 15.6674 17.9687 14.2765C20.4243 12.9611 22.5656 11.7971 23.3919 9.78343C22.6529 9.47497 21.8383 9.22471 20.9538 9.02683C19.2605 10.7845 17.3111 11.5585 15.4142 12.2977C13.814 12.9204 11.8006 13.9331 10.9277 14.6606C6.54024 18.2981 4.82364 23.1869 7.64583 28.6984C8.08808 29.5598 8.61762 30.3048 9.11805 30.846L9.1064 30.8402ZM14.0409 34.2216C12.5047 31.0672 11.4573 27.098 11.2245 22.4885C9.87451 25.8059 9.3508 31.7423 13.0749 33.756C13.3892 33.9248 13.7092 34.082 14.0467 34.2275L14.0409 34.2216ZM23.7818 40.8215C27.6747 41.0718 31.137 37.929 33.5344 31.9751C33.2609 28.4424 33.1911 25.1017 31.812 21.1557C30.5434 20.3293 28.6872 20.2594 26.412 20.9811C25.993 21.115 25.5391 20.8822 25.4053 20.4573C25.2715 20.0383 25.5042 19.5843 25.929 19.4504C28.146 18.752 29.8161 18.7695 31.0555 19.0954C29.5717 15.2601 27.8958 12.3151 24.8351 10.5109C23.776 12.9728 21.3146 14.2998 18.7252 15.6907C16.5838 16.8431 14.3842 18.0304 12.7723 19.9393C12.5978 32.0042 18.2945 40.4665 23.7876 40.8215H23.7818ZM18.1258 48.1431C19.8307 52.4033 23.0253 54.5684 27.6223 54.5684C30.8344 54.5684 34.6458 52.933 36.5893 50.7505C34.7389 45.495 34.1803 40.2395 33.7846 35.2343C31.2941 39.9136 27.9773 42.4336 24.2299 42.4336C24.0495 42.4336 23.8633 42.4278 23.6829 42.4162C22.5191 42.3405 21.3378 41.9681 20.1973 41.3337C20.1391 43.2019 19.8249 45.7394 18.1258 48.1431ZM16.5023 49.9706C17.1191 52.8224 20.7385 57.7752 27.2965 57.7752C31.4396 57.7752 35.9202 55.971 37.7299 53.6197C37.5495 53.2181 37.3749 52.8107 37.212 52.4091C34.8669 54.6266 31.0148 56.1747 27.6223 56.1747C22.5831 56.1747 19.0103 53.934 16.9736 49.5224C16.8223 49.6737 16.6652 49.8251 16.5023 49.9706ZM49.3329 68.0999C46.9122 66.1735 44.8872 64.2005 43.1822 62.2042C39.9294 64.928 34.1978 67.5121 28.7919 67.5121C28.3497 67.5121 27.9889 67.1512 27.9889 66.7089C27.9889 66.2666 28.3497 65.9116 28.7919 65.9116C33.7671 65.9116 39.2079 63.4439 42.1697 60.9646C41.6984 60.3593 41.2445 59.7482 40.8255 59.1371C39.4755 60.2254 36.7697 62.1576 32.196 62.7687C32.1611 62.7687 32.1262 62.7746 32.0913 62.7746C31.6956 62.7746 31.3523 62.4836 31.2999 62.0762C31.2417 61.6397 31.5501 61.2381 31.9865 61.1741C36.2693 60.6037 38.7598 58.7529 39.9469 57.781C39.4115 56.9196 38.9285 56.0525 38.4805 55.1795C36.1471 57.6181 31.6083 59.3641 27.2906 59.3641C20.6803 59.3641 16.2928 54.8419 15.1116 51.0065C14.6751 51.2684 14.2271 51.4837 13.7616 51.67C14.1456 54.3938 16.3685 60.6794 23.1825 63.1471C23.5956 63.2984 23.8109 63.7582 23.6654 64.1714C23.5491 64.4973 23.2406 64.701 22.9148 64.701C22.8217 64.701 22.7344 64.6835 22.6413 64.6544C15.2745 61.9889 12.7665 55.4646 12.2254 52.1763C11.8588 52.2753 11.4864 52.3684 11.1198 52.4499C10.8696 54.1028 10.7415 57.7926 12.3126 61.1624C12.4989 61.564 12.3243 62.0412 11.9286 62.2275C11.8181 62.2799 11.7017 62.3032 11.5911 62.3032C11.2885 62.3032 11.0034 62.1344 10.8637 61.8434C9.20533 58.2815 9.28097 54.644 9.473 52.8224C6.91847 53.4102 4.34067 54.2483 2.22839 57.3271C9.82795 66.4528 20.948 71.6676 32.8361 71.6676C38.7074 71.6676 44.2936 70.3813 49.3329 68.0941V68.0999ZM59.0156 61.8783C44.6718 57.4551 38.5329 43.6384 35.2161 32.9354C36.0307 43.8479 37.0665 56.6112 50.9389 67.3258C53.8541 65.8417 56.5658 64.0026 59.0156 61.8841V61.8783ZM65.818 54.2483C61.9076 53.7943 54.7794 51.0822 49.4201 46.6473C43.3917 41.6596 40.1738 32.6619 37.3342 24.7234C35.9551 20.8647 34.6516 17.2214 33.1445 14.3114C30.0837 8.39825 26.4352 5.1798 16.0426 5.12742C15.3269 5.73852 14.6519 6.40202 14.0409 7.17608C15.5538 6.91418 17.253 6.86178 19.1616 7.08876C28.245 8.1771 30.8228 13.5723 33.482 21.0743C33.9126 22.2848 34.3607 23.961 34.8785 25.8932C37.6949 36.3925 42.932 55.8604 60.4063 60.6153C62.4255 58.6889 64.241 56.553 65.818 54.2483ZM72.5854 34.5417C70.316 36.084 67.005 36.9512 63.6417 36.9512C61.9425 36.9512 60.2318 36.7301 58.6374 36.2645C50.1824 33.791 47.0635 25.9397 44.0551 18.3505C40.7441 10.0162 37.6135 2.12429 27.7271 1.62959C32.8128 3.36396 37.148 8.04325 40.0283 14.9923C40.8605 16.9886 41.5995 18.9616 42.321 20.8705C45.6669 29.746 48.5531 37.4168 57.7354 41.1474C61.5934 42.713 67.4065 43.7722 71.282 42.5035C71.9802 39.9427 72.4341 37.2829 72.5912 34.5417H72.5854ZM72.6494 32.4233C72.661 29.3678 72.3468 27.5984 71.8347 25.8466C68.5761 29.0476 64.9277 29.9905 62.3382 30.2C58.5617 30.5027 52.9639 28.9662 48.6928 25.0493C50.9913 29.5598 53.9589 33.2264 59.0854 34.728C63.9617 36.1539 69.9494 35.1121 72.6552 32.4233H72.6494Z" fill="white"/>
</svg>
