<svg width="73" height="77" viewBox="0 0 73 77" fill="none" xmlns="http://www.w3.org/2000/svg">
<path d="M36.3897 35.5578C35.994 35.5578 35.6565 35.2668 35.5983 34.871C35.3656 33.2589 34.5335 31.8155 33.2475 30.8087C33.0671 30.6632 32.9565 30.4536 32.9449 30.2208C32.9333 29.988 33.0205 29.7669 33.1893 29.6039C34.4986 28.341 35.354 26.5135 35.5925 24.4649C35.6391 24.0633 35.9824 23.7548 36.3897 23.7548C36.7971 23.7548 37.1404 24.0575 37.1869 24.4649C37.4255 26.5135 38.2809 28.341 39.596 29.6039C39.7647 29.7669 39.852 29.988 39.8404 30.2208C39.8287 30.4536 39.7182 30.669 39.5378 30.8087C38.2576 31.8155 37.4255 33.2589 37.1927 34.871C37.1346 35.2668 36.7971 35.5578 36.4014 35.5578H36.3897ZM34.8942 30.1219C35.5052 30.7156 36.0057 31.4023 36.3897 32.1531C36.7738 31.4023 37.28 30.7214 37.8852 30.1219C37.2742 29.4061 36.7738 28.5796 36.3897 27.6775C36.0057 28.5796 35.4994 29.4061 34.8942 30.1219ZM41.7839 65.8102C41.557 65.8102 41.33 65.7811 41.0973 65.7171C40.0906 65.4319 39.4389 64.6171 39.4389 63.6393C39.4389 62.3065 40.6143 61.806 41.4755 61.4394C42.5055 60.997 42.8255 60.7759 42.8255 60.2637C42.8255 59.187 41.8072 59.0299 41.202 59.0299C40.3001 59.0299 39.8462 59.1405 39.3225 59.2627C38.6708 59.4198 37.9376 59.5886 36.3897 59.5886C34.8419 59.5886 34.132 59.414 33.5093 59.2569C33.0147 59.1346 32.5841 59.024 31.688 59.024C31.0828 59.024 30.0645 59.187 30.0645 60.2579C30.0645 60.77 30.3846 60.9912 31.4145 61.4335C32.2757 61.8002 33.4512 62.3066 33.4512 63.6335C33.4512 64.6113 32.7994 65.4261 31.7928 65.7113C30.7919 65.9964 29.7852 65.6414 29.2848 64.8266C28.7611 63.9653 28.7669 63.0049 29.2848 62.0563C28.8134 61.6489 28.4585 61.0844 28.4585 60.2521C28.4585 58.5585 29.7561 57.4178 31.6822 57.4178C32.7762 57.4178 33.3406 57.5574 33.8876 57.6913C34.4462 57.831 35.0281 57.9765 36.3839 57.9765C37.7397 57.9765 38.3565 57.831 38.9501 57.6913C39.5203 57.5574 40.1139 57.4178 41.202 57.4178C43.1281 57.4178 44.4257 58.5585 44.4257 60.2521C44.4257 61.0844 44.0707 61.6489 43.5994 62.0563C44.1231 63.0049 44.1289 63.9653 43.5994 64.8266C43.2154 65.4552 42.5287 65.8044 41.7723 65.8044L41.7839 65.8102ZM42.2203 62.8594C42.1854 62.8769 42.1447 62.8886 42.1098 62.906C41.3591 63.2261 41.0449 63.4007 41.0449 63.6393C41.0449 64.0118 41.4231 64.1457 41.5395 64.1748C41.7257 64.2272 42.0923 64.2504 42.2494 63.9944C42.3367 63.8547 42.5578 63.4938 42.2203 62.8594ZM30.6755 62.8594C30.338 63.4938 30.5591 63.8605 30.6464 63.9944C30.8035 64.2504 31.1643 64.2272 31.3563 64.1748C31.4727 64.1399 31.8509 64.006 31.8509 63.6393C31.8509 63.4007 31.5367 63.2319 30.7861 62.906C30.7512 62.8886 30.7162 62.8769 30.6813 62.8594H30.6755ZM71.8214 27.3691C71.7515 27.1537 71.5944 26.9791 71.3907 26.886C71.1871 26.7929 70.9543 26.7929 70.7449 26.8802C68.9933 27.6309 66.5843 28.2129 64.0472 28.5389C66.8461 26.2865 68.4056 23.2659 68.4056 19.739C68.4056 16.2121 66.2584 13.3719 64.1869 10.5318C62.4237 8.11646 60.7595 5.83503 60.7595 3.64089C60.7595 2.35467 61.033 1.83085 61.5043 1.36525C61.7487 1.12081 61.8069 0.748349 61.6556 0.439889C61.4985 0.131429 61.161 -0.0431657 60.8235 0.00921438C57.7046 0.474815 55.8367 3.00069 55.8367 6.77206C55.8367 8.48314 56.5524 10.3805 57.2449 12.2196C57.9315 14.0471 58.6414 15.9328 58.6414 17.5798C58.6414 19.029 57.8733 19.9718 56.2149 20.548C54.702 21.0776 52.8108 21.1358 51.519 21.1358H50.7684C44.0824 18.7322 39.1886 18.7205 36.5934 18.7322H36.3024C33.6781 18.7205 28.8134 18.7322 22.1275 21.1358H21.3826C16.5238 21.1358 14.2602 20.0068 14.2602 17.5856C14.2602 15.9386 14.9701 14.0529 15.6568 12.2254C16.3492 10.3863 17.0592 8.48897 17.0592 6.77788C17.0592 3.01234 15.1971 0.480641 12.0781 0.0150401C11.7406 -0.03734 11.4031 0.137255 11.246 0.445715C11.0889 0.754175 11.1529 1.12664 11.3915 1.37108C11.8628 1.8425 12.1363 2.36632 12.1363 3.64672C12.1363 5.84086 10.4721 8.12228 8.70895 10.5376C6.6374 13.3836 4.4902 16.3227 4.4902 19.7448C4.4902 23.167 6.04969 26.2923 8.84861 28.5447C6.31154 28.2188 3.89668 27.6368 2.15099 26.886C1.94733 26.7987 1.70875 26.7987 1.50508 26.8918C1.30142 26.9849 1.14431 27.1595 1.07448 27.3749C0.283101 29.8018 0.934826 33.87 3.70465 36.6229C5.21176 38.1244 7.6499 39.5736 11.4555 39.5736C12.7589 39.5736 14.2253 39.399 15.8663 39.0033C12.7997 44.2238 10.088 53.4078 12.2702 61.3695C13.8238 67.0382 17.5014 71.1006 23.1982 73.4519C27.446 75.2037 32.0313 76.1291 36.4537 76.1291C40.8761 76.1291 45.4615 75.2037 49.7093 73.4519C55.4061 71.1006 59.0837 67.0382 60.6373 61.3695C62.8194 53.4078 60.1078 44.2238 57.0412 39.0033C58.6822 39.399 60.1485 39.5736 61.452 39.5736C65.2518 39.5736 67.6957 38.1244 69.2028 36.6229C71.9668 33.87 72.6244 29.8018 71.833 27.3749L71.8214 27.3691ZM67.4222 29.5865C65.6707 30.6923 63.8436 31.3965 62.0513 32.0833C59.5666 33.0377 57.21 33.9689 55.5108 35.8721C55.0744 34.5684 54.5507 33.4044 54.0852 32.5023C56.7503 32.0949 59.1186 31.3907 61.1145 30.4013C63.2849 30.314 65.4612 30.0288 67.4222 29.5865ZM47.4516 36.7276C46.0376 36.844 45.38 37.589 44.7457 38.3107C44.4839 38.6075 44.1638 38.9625 43.7682 39.1895C43.227 39.5038 42.5345 39.9635 42.0341 40.6212C42.2436 36.8091 43.9253 32.834 52.3686 32.6943C52.7468 33.3927 53.3578 34.4404 53.7535 35.7382C54.1026 36.9022 53.8873 37.7694 53.2938 38.2467C52.5315 38.8636 51.2455 38.7297 50.9429 38.5958C50.5589 38.4212 50.297 38.1651 50.0061 37.8567C49.4824 37.3096 48.8423 36.617 47.4516 36.7276ZM49.5406 39.6143C48.9878 40.5863 48.4699 41.3196 47.5039 41.3196C46.6951 41.3196 45.9503 40.8831 45.3276 40.045C45.5604 39.8064 45.7582 39.5794 45.9445 39.3699C46.5205 38.7181 46.8057 38.3863 47.5796 38.3223C48.1557 38.2757 48.3651 38.4562 48.8481 38.9567C49.0401 39.1604 49.2613 39.3932 49.5406 39.6085V39.6143ZM43.1688 41.7678C43.3841 41.3836 43.6634 41.0984 43.9951 40.9064C45.2345 42.6291 46.6951 42.9201 47.5098 42.9201C49.5347 42.9201 50.46 41.2614 51.0128 40.272C51.2339 40.3069 51.4725 40.336 51.7285 40.336C52.5781 40.336 53.5556 40.1032 54.3005 39.4979C54.4227 39.399 54.5449 39.2884 54.6612 39.1604C54.9056 40.7958 54.8591 42.5069 54.2248 44.0667C53.2647 46.4238 51.6529 47.7158 50.0934 48.9671C48.4291 50.2999 46.73 51.6676 46.055 54.1993C45.7408 53.4834 45.4091 52.7675 45.0716 52.04C44.3733 50.5443 43.6227 49.0369 43.1106 47.4306C42.3833 45.155 42.4705 43.0249 43.1746 41.7736L43.1688 41.7678ZM66.8054 19.7448C66.8054 20.7168 66.6541 21.6422 66.3806 22.521C63.733 22.5617 60.841 21.1126 59.6656 19.838C59.8867 19.4539 60.0321 19.0581 60.1194 18.674C61.4694 19.0523 63.3373 19.2268 64.9492 19.2268C65.6358 19.2268 66.2526 19.1919 66.7821 19.1279C66.7996 19.3316 66.8112 19.5353 66.8112 19.739L66.8054 19.7448ZM66.4505 17.5682C64.7688 17.7486 61.7313 17.5798 60.2067 17.0386C60.166 16.4391 60.0612 15.8338 59.9158 15.2285C60.3231 15.2692 60.7479 15.2867 61.1785 15.2867C62.6274 15.2867 64.1229 15.0772 65.1063 14.7163C65.6707 15.6534 66.1479 16.602 66.4505 17.5682ZM62.8951 11.4804C63.3373 12.0915 63.7854 12.7026 64.2102 13.3196C63.1046 13.6164 61.0446 13.8201 59.4212 13.5466C59.2059 12.9122 58.9731 12.2778 58.7345 11.6492C58.7229 11.6143 58.7054 11.5736 58.6938 11.5386C58.8625 11.5386 59.0196 11.5561 59.1884 11.5561C60.4453 11.5561 61.8069 11.4048 62.6798 11.1894C62.7496 11.2884 62.8194 11.3815 62.8893 11.4804H62.8951ZM59.2757 2.28482C59.1942 2.6864 59.1593 3.13456 59.1593 3.64672C59.1593 4.5139 59.3571 5.35196 59.6714 6.17841C59.0022 6.29481 58.1934 6.30646 57.4602 6.16096C57.5416 4.99114 57.9082 3.2684 59.2757 2.28482ZM58.1061 9.90905C57.8559 9.16991 57.6464 8.45986 57.5358 7.79638C57.8908 7.84294 58.2515 7.87205 58.6181 7.87205C59.2175 7.87205 59.811 7.80219 60.3522 7.67415C60.7304 8.37255 61.1843 9.07094 61.6731 9.76934C60.7013 9.92066 59.235 10.0313 58.1061 9.90905ZM58.6065 21.0543C60.0903 22.5617 62.9824 23.9294 65.7173 24.104C65.083 25.2913 64.1869 26.3622 63.0406 27.2876C61.4869 26.4902 58.7229 24.2553 57.4253 21.776C57.8908 21.5607 58.2806 21.3162 58.6065 21.0543ZM55.8949 22.2998C57.1576 24.8781 59.7121 27.1363 61.5916 28.3003C60.5617 28.9288 59.3979 29.4701 58.1061 29.9124C56.8666 28.4458 55.0453 25.6696 54.3819 22.5734C54.8882 22.5093 55.3944 22.422 55.8949 22.2998ZM51.2455 22.7305H51.519C51.8972 22.7305 52.3337 22.7305 52.7934 22.7072C53.3927 25.7104 54.9638 28.5098 56.4535 30.4129C55.4177 30.6806 54.3237 30.896 53.1658 31.0415C51.3444 28.8299 50.5938 25.5474 51.2513 22.7363L51.2455 22.7305ZM23.2272 22.4395C29.3604 20.3268 33.8468 20.321 36.3024 20.3268H36.5934C39.0432 20.3268 43.5354 20.3268 49.6686 22.4395C48.9994 25.367 49.6162 28.6203 51.2572 31.1288C43.9602 31.5478 40.4048 34.9816 40.4048 41.5873C40.4048 45.8301 42.0341 49.3279 43.6111 52.7035C44.9727 55.6252 46.2587 58.378 46.2587 61.2822C46.2587 64.361 44.6701 66.4504 43.1048 66.9218C42.1505 67.207 40.9634 66.8462 39.7124 66.462C38.6533 66.1361 37.5593 65.8044 36.4479 65.8044C35.3365 65.8044 34.2367 66.1419 33.1777 66.462C31.9208 66.8462 30.7395 67.207 29.7852 66.9218C28.2199 66.4504 26.6313 64.361 26.6313 61.2822C26.6313 58.3839 27.9173 55.6252 29.279 52.7035C30.8559 49.3221 32.4852 45.8301 32.4852 41.5873C32.4852 34.9758 28.9298 31.542 21.6329 31.1288C23.2738 28.6203 23.8906 25.367 23.2214 22.4395H23.2272ZM42.232 68.8075C42.232 69.0054 42.1039 69.308 41.7374 69.5117C40.7947 70.0413 38.6068 70.0821 36.4479 70.0821C34.2891 70.0821 32.1012 70.0355 31.1585 69.5117C30.7919 69.308 30.6639 69.0054 30.6639 68.8075C30.6639 68.7202 30.6871 68.6678 30.7162 68.6213C31.6938 68.5863 32.683 68.2953 33.649 67.9985C34.6382 67.6959 35.5693 67.4107 36.4479 67.4107C37.3266 67.4107 38.2576 67.6959 39.2468 67.9985C40.2128 68.2953 41.202 68.5922 42.1796 68.6213C42.2087 68.6678 42.232 68.726 42.232 68.8133V68.8075ZM25.4443 36.7276C24.0535 36.617 23.4076 37.3096 22.8897 37.8567C22.593 38.1651 22.3369 38.4212 21.9529 38.5958C21.6561 38.7297 20.3643 38.8636 19.602 38.2467C19.0085 37.7694 18.7932 36.9022 19.1423 35.7324C19.538 34.4345 20.1432 33.3869 20.5273 32.6885C28.9706 32.8282 30.6522 36.8033 30.8617 40.6154C30.3613 39.9577 29.6688 39.498 29.1277 39.1837C28.7378 38.9567 28.4119 38.6017 28.1501 38.3048C27.5158 37.5832 26.8583 36.8382 25.4443 36.7218V36.7276ZM27.5624 40.0392C26.9397 40.8773 26.1949 41.3138 25.3861 41.3138C24.4201 41.3138 23.9022 40.5863 23.3494 39.6085C23.6288 39.3932 23.8499 39.1604 24.0477 38.9567C24.5307 38.4503 24.7344 38.2757 25.3163 38.3223C26.0844 38.3863 26.3753 38.7123 26.9456 39.3699C27.1318 39.5794 27.3296 39.8064 27.5624 40.045V40.0392ZM21.1732 40.3302C21.4292 40.3302 21.6678 40.3069 21.8889 40.2662C22.4417 41.2614 23.3669 42.9143 25.3919 42.9143C26.2007 42.9143 27.6613 42.6233 28.9065 40.9006C29.2382 41.0926 29.5175 41.3778 29.7328 41.7619C30.4369 43.0132 30.5242 45.1375 29.7968 47.4132C29.2848 49.0195 28.5341 50.5269 27.8359 52.0284C27.4984 52.7559 27.1609 53.4718 26.8466 54.1876C26.1716 51.6559 24.4725 50.2882 22.8083 48.9554C21.2488 47.7041 19.6311 46.4121 18.6768 44.055C18.0426 42.4953 17.996 40.7842 18.2404 39.1488C18.3568 39.2768 18.479 39.3932 18.6012 39.4921C19.3518 40.0974 20.3294 40.3302 21.179 40.3302H21.1732ZM21.3768 22.7363H21.6503C22.3078 25.5474 21.5572 28.8299 19.7359 31.0415C18.5721 30.8902 17.4781 30.6806 16.4482 30.4129C17.9378 28.5098 19.5089 25.7045 20.1083 22.7014C20.5156 22.7247 20.9404 22.7363 21.3826 22.7363H21.3768ZM18.5197 22.5617C17.8563 25.658 16.035 28.4399 14.7898 29.9124C13.498 29.4701 12.3342 28.9288 11.3042 28.3003C13.1837 27.1304 15.7499 24.8665 17.0126 22.2766C17.4781 22.393 17.9785 22.4861 18.5197 22.5617ZM13.6201 2.28482C14.9876 3.2684 15.3542 4.99114 15.4357 6.16096C14.7083 6.30646 13.8995 6.29481 13.2303 6.17841C13.5445 5.34615 13.7423 4.50808 13.7423 3.64672C13.7423 3.14038 13.7074 2.69222 13.626 2.28482H13.6201ZM12.5436 7.66833C13.0848 7.79637 13.6783 7.86622 14.2777 7.86622C14.6443 7.86622 15.0051 7.83712 15.36 7.79056C15.2495 8.45986 15.04 9.1699 14.7898 9.90322C13.6609 10.0254 12.1945 9.91487 11.2286 9.76355C11.7115 9.06515 12.1654 8.36673 12.5495 7.66833H12.5436ZM10.0008 11.4804C10.0706 11.3873 10.1404 11.2884 10.2102 11.1894C11.0831 11.4106 12.4447 11.5561 13.7016 11.5561C13.8704 11.5561 14.0333 11.5561 14.1962 11.5503C14.1846 11.5852 14.1729 11.6201 14.1555 11.6551C13.9169 12.2836 13.6842 12.9121 13.4689 13.5523C11.8512 13.8317 9.79128 13.6222 8.67986 13.3254C9.10464 12.7085 9.5527 12.0915 9.99494 11.4862L10.0008 11.4804ZM7.78373 14.7106C8.76714 15.0714 10.2568 15.2809 11.7115 15.2809C12.1421 15.2809 12.5669 15.2635 12.9801 15.2227C12.8288 15.828 12.7299 16.4333 12.6891 17.0327C11.1646 17.574 8.12705 17.7428 6.44537 17.5623C6.74796 16.5962 7.22512 15.6418 7.78956 14.7106H7.78373ZM6.09042 19.7448C6.09042 19.5411 6.10206 19.3374 6.11951 19.1337C6.64322 19.1978 7.26585 19.2327 7.95249 19.2327C9.55852 19.2327 11.4264 19.0522 12.7764 18.6798C12.8695 19.1046 13.015 19.4946 13.2245 19.8554C12.0432 21.13 9.15701 22.5676 6.52102 22.5268C6.24753 21.648 6.09624 20.7226 6.09624 19.7507L6.09042 19.7448ZM7.17857 24.104C9.91348 23.9294 12.8055 22.5617 14.2893 21.0543C14.6327 21.3221 15.0283 21.5549 15.4764 21.7644C14.1846 24.2554 11.4148 26.4902 9.85528 27.2934C8.70895 26.368 7.81283 25.2971 7.17857 24.1098V24.104ZM11.7814 30.4013C13.7773 31.3907 16.1456 32.1007 18.8107 32.5023C18.3451 33.4044 17.8214 34.5684 17.385 35.8721C15.6859 33.9689 13.3234 33.0436 10.8445 32.0833C9.05227 31.3965 7.22511 30.6923 5.47361 29.5865C7.4346 30.0288 9.61671 30.3081 11.7814 30.4013ZM4.8277 35.4879C3.05292 33.7245 2.27319 31.2103 2.36047 29.2489C4.92663 31.5245 7.743 32.6071 10.2684 33.579C12.7706 34.5451 14.9818 35.3949 16.4307 37.1932C10.1171 39.0033 6.64322 37.298 4.8277 35.4822V35.4879ZM13.8064 60.9447C11.921 54.0596 13.9227 46.1968 16.5005 41.1392C16.5238 42.3265 16.7217 43.5196 17.1872 44.6603C18.0775 46.8544 19.4507 48.2454 20.8007 49.3861C17.6411 55.1305 16.7624 61.8351 18.5139 67.044C18.8456 68.0218 19.2704 68.9122 19.765 69.7271C16.8148 67.562 14.813 64.6229 13.8005 60.9447H13.8064ZM47.5388 72.5672C43.966 73.9407 40.1313 74.5286 36.4479 74.5286C32.7645 74.5286 28.9298 73.9407 25.357 72.5672C22.8374 71.5953 21.0219 69.4477 20.0385 66.5319C18.4732 61.8875 19.2762 55.6601 22.0693 50.4163C24.2863 52.1856 26.2473 53.757 25.4734 58.0347C25.2813 59.1114 25.0369 60.1706 25.0369 61.288C25.0369 64.652 26.707 67.5271 29.1277 68.3826C29.0986 68.5165 29.0695 68.6562 29.0695 68.8017C29.0695 69.6456 29.5699 70.4487 30.3787 70.9027C31.5425 71.5604 33.4104 71.6826 36.4537 71.6826C39.4971 71.6826 41.3649 71.5604 42.5287 70.9027C43.3376 70.4487 43.8438 69.6456 43.838 68.8017C43.838 68.6562 43.8147 68.5165 43.7798 68.3826C46.1947 67.5271 47.8705 64.652 47.8705 61.288C47.8705 60.1706 47.6261 59.1114 47.4341 58.0347C46.6602 53.757 48.6212 52.1914 50.8382 50.4163C53.6255 55.6601 54.4343 61.8875 52.869 66.5319C51.8856 69.4477 50.0701 71.5953 47.5505 72.5672H47.5388ZM59.0895 60.9447C58.077 64.6287 56.0753 67.5678 53.1192 69.7271C53.6197 68.9122 54.0444 68.0218 54.3761 67.0382C56.1334 61.8293 55.249 55.1246 52.0893 49.3803C53.4393 48.2396 54.8125 46.8486 55.7028 44.6545C56.1684 43.5137 56.3662 42.3206 56.3895 41.1334C58.9673 46.1909 60.969 54.0538 59.0837 60.9389L59.0895 60.9447ZM68.0681 35.4879C66.2468 37.298 62.7787 39.009 56.4593 37.199C57.9141 35.4006 60.1194 34.5509 62.6216 33.5848C65.147 32.6129 67.9692 31.5245 70.5295 29.2547C70.611 31.2161 69.8371 33.7245 68.0623 35.4938L68.0681 35.4879Z" fill="white"/>
</svg>
