<?xml version="1.0" ?><svg fill="#ffffff" enable-background="new 0 0 32 32" version="1.1" viewBox="0 0 32 32" xml:space="preserve" xmlns="http://www.w3.org/2000/svg" xmlns:xlink="http://www.w3.org/1999/xlink"><g id="Layer_1"/><g id="Capa_2"><g><path d="M15.908,3.63c-6.774,0-12.285,5.511-12.285,12.285c0,2.244,0.608,4.347,1.663,6.16c0,0.008,0,0.017,0.001,0.025    c0.004,0.053,0.018,0.104,0.04,0.149c0.037,0.075,0.097,0.135,0.17,0.175C7.671,25.89,11.524,28.2,15.908,28.2    c5.555,0,10.257-3.706,11.772-8.775c0.003-0.004,0.008-0.006,0.011-0.01c0.061-0.084,0.081-0.183,0.071-0.279    c0.279-1.027,0.431-2.106,0.431-3.221C28.193,9.141,22.682,3.63,15.908,3.63z M15.908,27.393c-4.157,0-7.806-2.222-9.82-5.541    c0.004-0.689,0.169-3.031,2.221-3.589c0.309-0.084,0.656-0.127,1.03-0.127c1.801,0,2.687,0.533,3.626,1.098    c1.029,0.619,2.195,1.321,4.589,1.321c2.459,0,2.934-0.758,3.266-1.674c0.19-0.523,0.315-0.868,1.576-0.868    c1.566,0,3.209,0.492,4.471,1.319C25.409,23.998,21.047,27.393,15.908,27.393z M27.386,15.915c0,0.893-0.106,1.762-0.3,2.597    c-1.357-0.824-3.066-1.306-4.691-1.306c-1.689,0-2.056,0.634-2.334,1.4c-0.213,0.587-0.414,1.142-2.507,1.142    c-2.171,0-3.143-0.586-4.173-1.205c-0.992-0.597-2.017-1.214-4.042-1.214c-0.446,0-0.864,0.052-1.242,0.155    c-1.658,0.451-2.403,1.831-2.681,3.077C4.784,19.14,4.43,17.569,4.43,15.915c0-1.53,0.303-2.99,0.849-4.327    c0.353,0.295,0.909,0.719,1.646,1.144c1.494,0.861,3.806,1.746,6.335,1.08c1.677-0.442,1.793-1.627,1.869-2.412    c0.044-0.451,0.083-0.734,0.253-0.855c0.171-0.121,0.611-0.208,1.745,0.066c1.475,0.357,2.943,1.141,4.363,1.898    c1.584,0.846,2.991,1.596,4.155,1.596c0.249,0,0.487-0.034,0.714-0.109c0.291-0.097,0.548-0.262,0.772-0.487    C27.297,14.286,27.386,15.09,27.386,15.915z M26.104,13.231c-0.954,0.318-2.548-0.533-4.235-1.433    c-1.396-0.745-2.978-1.589-4.553-1.97c-1.196-0.29-1.937-0.271-2.402,0.061c-0.482,0.343-0.539,0.923-0.589,1.434    c-0.074,0.757-0.138,1.411-1.272,1.71c-2.264,0.596-4.364-0.214-5.726-0.998c-0.831-0.479-1.429-0.969-1.703-1.209    c1.88-3.782,5.782-6.388,10.284-6.388c5.141,0,9.504,3.398,10.96,8.066C26.667,12.883,26.418,13.126,26.104,13.231z"/><path d="M6.223,2.972L7.03,3.061l0.09,0.807C7.137,4.022,7.266,4.137,7.42,4.137c0.154,0,0.284-0.116,0.301-0.269l0.089-0.807    l0.807-0.089c0.153-0.017,0.27-0.146,0.27-0.301c0-0.154-0.116-0.284-0.269-0.301l-0.807-0.09L7.721,1.474    C7.704,1.32,7.575,1.204,7.42,1.204c-0.154,0-0.284,0.116-0.301,0.269L7.03,2.281L6.223,2.37C6.069,2.387,5.954,2.517,5.954,2.671    C5.954,2.825,6.07,2.955,6.223,2.972z"/><path d="M25.098,3.51l0.976,0.108l0.108,0.976c0.017,0.153,0.147,0.269,0.301,0.269c0.154,0,0.284-0.116,0.301-0.27l0.108-0.976    l0.976-0.108c0.153-0.017,0.269-0.146,0.269-0.301c0-0.154-0.116-0.284-0.269-0.301l-0.976-0.108l-0.108-0.976    c-0.017-0.153-0.146-0.269-0.301-0.269c-0.154,0-0.284,0.116-0.301,0.269l-0.108,0.976l-0.976,0.108    c-0.153,0.017-0.269,0.147-0.269,0.301C24.829,3.364,24.945,3.493,25.098,3.51z"/><path d="M17.201,2.534c0.059,0.059,0.136,0.089,0.214,0.089c0.078,0,0.155-0.03,0.214-0.089l0.407-0.407    c0.057-0.057,0.089-0.134,0.089-0.214c0-0.08-0.032-0.157-0.089-0.214l-0.407-0.406c-0.118-0.118-0.31-0.118-0.428,0l-0.407,0.406    c-0.057,0.057-0.089,0.134-0.089,0.214c0,0.08,0.032,0.157,0.089,0.214L17.201,2.534z"/><path d="M4.24,8.501c0.057-0.057,0.089-0.134,0.089-0.214c0-0.08-0.032-0.157-0.089-0.214L3.834,7.667    c-0.118-0.118-0.31-0.118-0.428,0L3,8.073c-0.118,0.118-0.118,0.31,0,0.428l0.406,0.407C3.463,8.965,3.54,8.997,3.62,8.997    s0.157-0.032,0.214-0.089L4.24,8.501z"/><path d="M30.895,9.403c0.08,0,0.157-0.032,0.214-0.089l0.406-0.407c0.118-0.118,0.118-0.31,0-0.428l-0.406-0.407    c-0.057-0.057-0.134-0.089-0.214-0.089s-0.157,0.032-0.214,0.089L30.275,8.48c-0.118,0.118-0.118,0.31,0,0.428l0.407,0.407    C30.738,9.371,30.815,9.403,30.895,9.403z"/><path d="M0.698,12.144c0.08,0,0.157-0.032,0.214-0.089l0.407-0.407c0.118-0.118,0.118-0.31,0-0.428l-0.407-0.407    c-0.113-0.113-0.314-0.113-0.428,0l-0.406,0.407c-0.118,0.118-0.118,0.31,0,0.428l0.406,0.407    C0.541,12.112,0.618,12.144,0.698,12.144z"/><path d="M1.725,15.902c-0.113-0.113-0.314-0.113-0.428,0l-0.406,0.407c-0.118,0.118-0.118,0.31,0,0.428l0.406,0.406    c0.059,0.059,0.136,0.089,0.214,0.089c0.077,0,0.155-0.03,0.214-0.089l0.407-0.406c0.057-0.057,0.089-0.134,0.089-0.214    c0-0.08-0.032-0.157-0.089-0.214L1.725,15.902z"/><path d="M20.785,1.543c0.059,0.059,0.136,0.089,0.214,0.089c0.077,0,0.155-0.03,0.214-0.089l0.407-0.406    c0.057-0.057,0.089-0.134,0.089-0.214c0-0.08-0.032-0.157-0.089-0.214l-0.407-0.407c-0.113-0.113-0.314-0.113-0.428,0    l-0.406,0.407c-0.118,0.118-0.118,0.31,0,0.428L20.785,1.543z"/><path d="M26.392,29.025l-1.524-0.169l-0.169-1.524c-0.017-0.153-0.146-0.269-0.301-0.269c-0.154,0-0.284,0.116-0.301,0.269    l-0.169,1.524l-1.524,0.169c-0.153,0.017-0.269,0.146-0.269,0.301c0,0.154,0.116,0.284,0.269,0.301l1.524,0.169l0.169,1.524    c0.017,0.154,0.147,0.269,0.301,0.269c0.154,0,0.284-0.116,0.301-0.269l0.169-1.524l1.524-0.169    c0.153-0.017,0.269-0.146,0.269-0.301C26.662,29.171,26.546,29.042,26.392,29.025z"/><path d="M7.62,27.345l-0.569-0.063l-0.063-0.569c-0.017-0.153-0.146-0.269-0.301-0.269c-0.154,0-0.284,0.116-0.301,0.269    l-0.063,0.569l-0.569,0.063c-0.153,0.017-0.269,0.147-0.269,0.301c0,0.154,0.116,0.284,0.269,0.301l0.569,0.063l0.063,0.569    c0.017,0.153,0.147,0.269,0.301,0.269c0.154,0,0.284-0.116,0.301-0.27l0.063-0.569l0.569-0.063c0.153-0.017,0.27-0.146,0.27-0.301    C7.889,27.492,7.773,27.362,7.62,27.345z"/><path d="M16.738,29.463c-0.119-0.119-0.31-0.118-0.428,0l-0.406,0.406c-0.118,0.118-0.118,0.31,0,0.428l0.406,0.407    c0.057,0.057,0.134,0.089,0.214,0.089s0.157-0.032,0.214-0.089l0.407-0.407c0.057-0.057,0.089-0.134,0.089-0.214    c0-0.08-0.032-0.157-0.089-0.214L16.738,29.463z"/><path d="M27.103,23.088c-0.119-0.119-0.31-0.118-0.428,0l-0.406,0.406c-0.118,0.118-0.118,0.31,0,0.428l0.406,0.407    c0.057,0.057,0.134,0.089,0.214,0.089s0.157-0.032,0.214-0.089l0.407-0.407c0.057-0.057,0.089-0.134,0.089-0.214    s-0.032-0.157-0.089-0.214L27.103,23.088z"/><path d="M1.319,21.771c-0.057-0.057-0.134-0.089-0.214-0.089s-0.157,0.032-0.214,0.089l-0.407,0.407    c-0.057,0.057-0.089,0.134-0.089,0.214s0.032,0.157,0.089,0.214l0.407,0.406C0.95,23.07,1.027,23.1,1.105,23.1    c0.078,0,0.155-0.03,0.214-0.089l0.406-0.406c0.118-0.118,0.118-0.31,0-0.428L1.319,21.771z"/><path d="M31.922,22.177l-0.407-0.407c-0.113-0.113-0.314-0.113-0.428,0l-0.406,0.407c-0.118,0.118-0.118,0.31,0,0.428l0.406,0.406    c0.059,0.059,0.136,0.089,0.214,0.089c0.077,0,0.155-0.03,0.214-0.089l0.407-0.406c0.057-0.057,0.089-0.134,0.089-0.214    S31.979,22.234,31.922,22.177z"/><path d="M11.034,30.453c-0.113-0.113-0.314-0.113-0.428,0L10.2,30.86c-0.118,0.118-0.118,0.31,0,0.428l0.406,0.407    c0.057,0.057,0.134,0.089,0.214,0.089s0.157-0.032,0.214-0.089l0.407-0.407c0.118-0.118,0.118-0.31,0-0.428L11.034,30.453z"/><path d="M21.461,6.977c-0.624-0.161-1.166-0.051-1.524,0.307c-0.691,0.691-0.404,2.061,0.653,3.118    c0.669,0.669,1.462,1.029,2.13,1.029c0.388,0,0.734-0.122,0.988-0.376c0.691-0.691,0.404-2.061-0.653-3.118    C22.577,7.458,22.011,7.118,21.461,6.977z M23.138,10.484c-0.314,0.312-1.202,0.121-1.977-0.653    c-0.753-0.753-0.965-1.665-0.653-1.977c0.093-0.093,0.239-0.141,0.42-0.141c0.101,0,0.214,0.015,0.333,0.046    c0.406,0.104,0.852,0.377,1.224,0.749C23.237,9.26,23.45,10.172,23.138,10.484z"/></g></g></svg>