<svg width="66" height="73" viewBox="0 0 66 73" fill="none" xmlns="http://www.w3.org/2000/svg">
<path d="M64.428 42.94C62.2052 41.1242 61.4545 38.156 61.6232 32.3127C61.8967 22.797 61.7047 9.39355 50.1192 3.35238C46.139 1.28046 41.9086 0.430726 38.266 0.430726C35.7056 0.430726 33.2733 0.727541 31.0214 1.2979C29.7412 0.873041 24.091 -0.779823 17.0617 0.442378C12.0923 1.30374 7.73972 3.80634 5.42378 7.12956C3.91667 9.28296 3.34641 11.6575 3.77119 13.9913C4.00395 15.2659 4.52765 16.4415 5.21428 17.332C4.83605 18.5193 4.96407 19.4971 5.06881 20.2828C5.1561 20.9288 5.22011 21.3944 5.02227 21.8367C4.41128 23.2044 2.10696 26.5276 1.50761 27.0922C0.355459 28.1863 -0.243897 29.944 0.850067 31.1778C1.36214 31.754 2.0255 32.0275 2.56084 32.2429C2.7005 32.3011 2.89835 32.3826 3.02054 32.4466C2.95654 32.6677 2.81106 32.9471 2.67723 33.1973C2.363 33.7968 2.00223 34.4836 2.22335 35.182C2.37464 35.6476 2.65395 35.9502 2.9449 36.1597C2.79942 36.3984 2.69469 36.6545 2.64232 36.928C2.56085 37.3761 2.65395 37.7952 2.91581 38.1444C3.11365 38.4063 3.35804 38.5983 3.60244 38.7846C4.09123 39.1629 4.21343 39.3025 4.18434 39.5935C4.16688 39.7681 3.99813 40.0242 3.82356 40.2978C3.42206 40.9263 2.86926 41.7819 3.13693 43.0332C3.49771 44.7268 4.94079 45.7395 6.99488 45.7395C7.28001 45.7395 7.66989 45.7278 8.10631 45.7162C9.17118 45.6871 11.9934 45.6056 12.488 45.9141C13.1106 46.5077 14.9436 49.8368 14.769 51.9145C14.6876 52.9039 10.8761 54.2716 9.24683 54.8594C8.88024 54.9874 8.53692 55.1155 8.22269 55.2319L8.00157 55.3075C6.82032 55.7149 3.68391 56.7916 0.751155 61.4011C0.541672 61.7328 0.599862 62.1693 0.896629 62.4312C8.22851 68.8682 17.6319 72.4126 27.3729 72.4126C45.5629 72.4126 60.9715 60.2488 65.8944 43.6268C65.2601 43.4464 64.7364 43.1961 64.4222 42.94H64.428ZM22.677 1.61799C24.7718 1.65291 26.663 1.89153 28.1701 2.2C25.8716 3.09628 23.8466 4.31848 22.1649 5.8375C21.5888 5.30788 21.2863 4.59202 21.3328 3.80632C21.3852 2.88094 21.9089 2.04868 22.677 1.61799ZM38.8071 58.2059C37.2476 59.3001 34.4022 60.6387 31.2425 60.3593C28.0421 60.0742 25.5806 57.9207 25.2664 56.0467C29.5666 54.1552 30.2882 52.9272 30.3638 52.0367C30.5908 49.2547 28.3679 45.4892 27.5882 44.7443C26.8957 44.0866 25.2548 44.0167 22.0602 44.1099C21.6412 44.1215 21.2688 44.1332 20.9953 44.1332C20.0875 44.1332 18.9587 43.8829 18.7026 42.6898C18.5804 42.1136 18.8016 41.7295 19.1681 41.1591C19.4242 40.7634 19.7093 40.3152 19.7733 39.774C19.913 38.5459 19.0809 37.8999 18.5804 37.5158C18.4233 37.3936 18.2662 37.2714 18.2138 37.2306C18.2138 37.1375 18.336 36.9163 18.5106 36.7417C18.9063 36.7883 19.3078 36.8174 19.6919 36.8174C20.46 36.8174 21.1582 36.7417 21.5772 36.701C22.0194 36.6544 22.3337 36.2587 22.2929 35.8222C22.2464 35.3799 21.8507 35.0656 21.4143 35.1122C20.7974 35.1762 19.5289 35.31 18.4815 35.1296C18.4175 35.1005 18.3593 35.0772 18.2895 35.0481C17.9287 34.9142 17.7949 34.8386 17.76 34.7338C17.7541 34.5942 17.9694 34.1868 18.0975 33.9423C18.3244 33.5116 18.5804 33.0227 18.6444 32.5048C18.7783 31.4281 17.7716 31.0149 17.1723 30.7646C16.7533 30.59 16.3169 30.4154 16.055 30.1186C15.572 29.5773 16.2237 28.6345 16.6136 28.262C17.405 27.5112 19.8141 23.9959 20.4832 22.4944C20.8673 21.6388 20.7567 20.8415 20.6578 20.0732C20.5589 19.3225 20.46 18.6182 20.7625 17.7394C21.1059 16.7326 22.0951 14.2881 24.2306 11.8379C25.0744 13.1474 26.4244 14.0553 27.8442 15.004C29.299 15.9759 30.9515 17.0818 32.2899 18.7987C35.1877 22.5118 35.6183 27.1271 34.0589 37.801C33.8319 39.3608 32.5867 49.9473 38.813 58.2175L38.8071 58.2059ZM23.5265 10.2316C22.2406 11.5993 21.2804 12.9961 20.6054 14.2125C19.8548 10.8253 21.7634 8.38087 23.1134 7.13538C23.2356 7.0248 23.3636 6.92584 23.4916 6.82108C23.2007 7.86286 23.1774 9.01522 23.5324 10.2374L23.5265 10.2316ZM18.0102 1.92065C18.819 1.80425 19.622 1.71112 20.3959 1.66456C20.0119 2.27567 19.7733 2.9799 19.7326 3.71904C19.6628 4.96452 20.1457 6.12852 21.0477 6.98406C20.2796 7.90362 19.4649 9.18983 19.075 10.7903C17.2653 9.88241 16.2645 8.62529 16.0957 7.04224C15.8455 4.7317 17.3468 2.52593 18.0102 1.92647V1.92065ZM12.069 5.04016C12.7731 3.9169 13.7158 3.03226 14.7923 2.64232C15.0774 2.53756 15.3684 2.45607 15.6709 2.38041C14.9145 3.6841 14.3151 5.44177 14.5072 7.21105C14.6817 8.82319 15.5895 10.9999 18.8539 12.4491C18.8132 13.6072 19.0169 14.8876 19.6046 16.2786C19.4475 16.6569 19.3311 16.9712 19.2496 17.2156C19.2321 17.268 19.2205 17.3204 19.2031 17.3728C17.7891 15.7082 16.1772 14.6199 14.7457 13.6654C13.0582 12.5363 11.6733 11.6634 11.2136 10.1967C10.7016 8.57293 11.0856 6.63485 12.0807 5.04599L12.069 5.04016ZM6.73304 8.0433C7.65244 6.72216 8.94424 5.54651 10.4921 4.58039C9.50286 6.34385 9.17118 8.34013 9.56687 10.1909C7.76881 12.094 6.6283 14.0554 5.94748 15.5046C5.67399 14.9575 5.46451 14.3464 5.34813 13.7003C5.00481 11.7972 5.48195 9.84169 6.73885 8.0433H6.73304ZM16.3751 52.0367C16.602 49.2547 14.3791 45.4892 13.5994 44.7443C12.9069 44.0866 11.266 44.0109 8.07139 44.1099C7.65243 44.1215 7.28002 44.1332 7.00653 44.1332C6.09878 44.1332 4.9699 43.8829 4.71386 42.6898C4.59166 42.1136 4.81278 41.7295 5.17937 41.1591C5.43541 40.7634 5.72054 40.3152 5.78455 39.774C5.9242 38.5459 5.0921 37.8999 4.59167 37.5158C4.43456 37.3936 4.27744 37.2714 4.22507 37.2306C4.22507 37.1375 4.34726 36.9163 4.52183 36.7417C4.91752 36.7883 5.31902 36.8174 5.70307 36.8174C6.47118 36.8174 7.16945 36.7417 7.59424 36.701C8.03648 36.6544 8.35071 36.2587 8.30997 35.8222C8.26342 35.3799 7.86773 35.0656 7.43131 35.1122C6.8145 35.1762 5.54598 35.31 4.49856 35.1296C4.43456 35.1005 4.37637 35.0772 4.30072 35.0481C3.93995 34.9142 3.8061 34.8386 3.76537 34.7338C3.76537 34.5942 3.97484 34.1868 4.10286 33.9423C4.3298 33.5116 4.58584 33.0227 4.64985 32.5048C4.78368 31.4281 3.77701 31.0149 3.17184 30.7646C2.75288 30.59 2.31645 30.4154 2.0546 30.1186C1.57162 29.5773 2.22334 28.6345 2.61321 28.262C3.40459 27.5112 5.81364 23.9959 6.48864 22.4944C6.86687 21.6388 6.76213 20.8415 6.65739 20.0732C6.55847 19.3225 6.45954 18.6182 6.76213 17.7336C7.10545 16.7267 8.09466 14.2824 10.2302 11.8321C11.074 13.1416 12.424 14.0496 13.8438 14.9982C15.2985 15.9702 16.9511 17.0759 18.2895 18.7928C18.5455 19.1246 18.7841 19.468 18.9994 19.8113C19.0169 19.9743 19.0343 20.1373 19.0576 20.2828C19.1449 20.9288 19.2089 21.4002 19.011 21.8367C18.4001 23.2044 16.1016 26.5276 15.4964 27.0922C14.3442 28.1863 13.7449 29.944 14.8447 31.1778C15.3567 31.754 16.0201 32.0275 16.5554 32.2429C16.6951 32.3011 16.8929 32.3826 17.0151 32.4466C16.9511 32.6677 16.8056 32.9471 16.6718 33.1973C16.3576 33.7968 16.0026 34.4836 16.2238 35.182C16.3692 35.6476 16.6544 35.956 16.9453 36.1597C16.7998 36.3984 16.6893 36.6544 16.6427 36.9222C16.5613 37.3703 16.6544 37.7893 16.9162 38.1385C17.1141 38.4004 17.3584 38.5925 17.597 38.7788C18.0858 39.1571 18.208 39.2967 18.1789 39.5877C18.1556 39.7623 17.9927 40.0184 17.8181 40.2919C17.4166 40.9205 16.8638 41.7761 17.1315 43.0274C17.4981 44.721 18.9412 45.7337 20.9895 45.7337C21.2804 45.7337 21.6645 45.722 22.1009 45.7104C23.1658 45.6813 25.988 45.5998 26.4768 45.9083C27.0994 46.5019 28.9324 49.8309 28.7578 51.9087C28.7578 51.9611 28.5658 53.2648 21.2164 55.9303C20.2854 56.2679 19.2787 56.6986 18.2487 57.2457C16.119 57.3039 14.3035 56.2795 13.7216 54.7663C15.2694 53.9923 16.2761 53.1425 16.3634 52.0425L16.3751 52.0367ZM2.49102 61.6747C4.99899 58.0255 7.54187 57.1467 8.52527 56.8092L8.78713 56.716C9.09554 56.5996 9.43884 56.4774 9.7938 56.3493C10.6725 56.0351 11.5046 55.7266 12.261 55.4182C12.8779 56.9139 14.286 58.0604 16.0608 58.5609C13.5587 60.2778 11.0973 62.7513 9.33412 66.3015C6.90761 65.0153 4.61494 63.4672 2.49102 61.6688V61.6747ZM27.3845 70.8062C21.5888 70.8062 15.9153 69.4909 10.7656 67.029C13.5529 61.4127 18.2488 58.7064 21.775 57.4319C22.5082 57.1641 23.16 56.9138 23.7709 56.6694C24.411 59.1022 27.2041 61.6106 31.1028 61.9598C31.4229 61.9889 31.7371 62.0006 32.0513 62.0006C35.019 62.0006 37.9052 60.8249 39.8138 59.4514C41.7282 61.6397 44.2246 63.6069 47.4948 65.1317C41.6351 68.7285 34.7455 70.8062 27.3787 70.8062H27.3845ZM49.1067 64.0842C33.3082 57.4494 35.3507 40.001 35.6416 38.0163C37.2535 26.9641 36.7239 21.8658 33.5468 17.7976C32.0455 15.877 30.2824 14.6956 28.7287 13.6538C27.0354 12.5189 25.7087 11.6226 25.1849 10.1618C24.1608 7.28089 25.7668 4.99361 27.9839 4.06823C26.6862 7.89779 29.2757 10.0046 31.9989 12.2162C34.9724 14.6315 38.3416 17.3611 39.2435 23.088C39.9884 27.8197 39.5985 31.8588 39.2203 35.764C38.586 42.3231 37.9866 48.5156 43.3634 56.0002C45.144 58.4795 47.9662 60.6212 51.5506 62.2392C50.7593 62.8794 49.9446 63.5022 49.1009 64.0783L49.1067 64.0842ZM52.9239 61.0985C49.2522 59.5562 46.395 57.4842 44.661 55.0747C39.6334 48.0791 40.1804 42.4512 40.8088 35.9269C41.1987 31.9228 41.6002 27.7789 40.8205 22.8436C39.8254 16.5114 36.0431 13.4443 32.9998 10.9766C29.9216 8.47979 28.0421 6.93749 30.1078 3.22432C31.0097 2.93914 31.964 2.71798 32.9416 2.53174C32.4354 3.59098 32.4528 4.73173 32.9882 5.97721C33.5526 7.28089 34.8793 8.46234 36.4155 9.82422C39.4938 12.5596 43.3285 15.9701 44.2595 22.5002C45.045 28.0001 44.6144 32.7725 44.2362 36.9804C43.5612 44.4649 44.2246 53.6547 55.1002 58.9858C54.3961 59.7133 53.6746 60.4234 52.9181 61.0927L52.9239 61.0985ZM56.2465 57.7578C45.8946 52.9098 45.1614 44.6278 45.8364 37.1317C46.203 33.046 46.6627 27.9652 45.8481 22.279C44.8298 15.167 40.5819 11.3898 37.4804 8.63113C36.0897 7.39147 34.8852 6.32057 34.4604 5.34281C33.9308 4.12061 34.1403 3.19522 35.1528 2.20582C36.0897 2.10688 37.044 2.04287 38.0274 2.03123C37.9343 2.32223 37.8703 2.61904 37.8703 2.9275C37.8703 4.0624 38.522 5.24968 39.8487 6.565L40.5703 7.28088C41.3675 8.0724 42.3858 9.08507 43.3168 9.99299C48.6586 15.1844 49.4442 21.9706 49.5024 28.5355C49.514 30.2582 49.4209 32.0683 49.3278 33.8143C49.0601 38.8951 48.7808 44.1506 51.1375 48.2828C52.6272 50.9018 55.2282 53.2415 58.5043 54.9584C57.7944 55.9245 57.0437 56.8615 56.2524 57.7578H56.2465ZM59.4295 53.6372C56.3396 52.0542 53.8957 49.8949 52.5282 47.4913C50.4101 43.7665 50.6603 38.9708 50.928 33.8958C51.0211 32.1265 51.1142 30.2932 51.1026 28.5181C51.0444 21.6097 50.1948 14.4453 44.434 8.84064C43.5088 7.93854 42.4905 6.93167 41.6992 6.14015L40.9776 5.4243C39.9942 4.45236 39.4763 3.58518 39.4705 2.91588C39.4705 2.6307 39.5636 2.36879 39.7556 2.10107C43.922 2.64233 51.5914 10.3131 53.8724 20.1722C54.7452 23.9435 54.6696 28.2038 54.594 32.3243C54.5125 36.829 54.4368 41.0893 55.7345 43.9178C57.131 46.9792 58.9873 48.9696 61.5127 50.1394C60.8784 51.3441 60.1801 52.5081 59.4237 53.6314L59.4295 53.6372ZM62.2343 48.7135C60.0289 47.7066 58.4519 46.0014 57.195 43.2543C56.0545 40.7576 56.1243 36.6777 56.2058 32.3593C56.2815 28.1456 56.3571 23.7864 55.4377 19.8172C53.692 12.2861 49.2929 6.33802 45.1789 3.11374C46.4067 3.48622 47.6869 3.87619 48.8797 4.52221C56.9623 8.90467 60.4536 17.3844 60.023 32.2545C59.8543 38.1618 60.4536 42.1194 63.9159 44.5464C63.4329 45.9723 62.8743 47.3633 62.2343 48.7077V48.7135ZM7.86773 19.078C7.60587 18.723 7.6757 18.2225 8.03066 17.9548C9.6716 16.7267 13.3434 16.5696 15.7001 19.4912C15.9794 19.8346 15.9212 20.341 15.5778 20.6145C15.4324 20.7309 15.252 20.7891 15.0774 20.7891C14.8447 20.7891 14.6119 20.6844 14.4548 20.4923C12.5462 18.1119 9.81126 18.6182 8.99661 19.2293C8.64165 19.4971 8.14122 19.4214 7.87355 19.0664L7.86773 19.078ZM13.8845 23.4139C11.5802 21.7319 10.1139 20.6902 9.15373 20.5156C8.71731 20.4341 8.30416 20.7251 8.22269 21.1616C8.14705 21.5981 8.43217 22.0113 8.86859 22.0928C8.88605 22.0928 8.9035 22.1044 8.92096 22.1102C8.67074 22.6049 8.53109 23.1986 8.58347 23.8097C8.1936 23.7689 7.82118 24.0134 7.72808 24.4033C7.62334 24.834 7.89101 25.2647 8.3158 25.3694C8.51946 25.4218 8.88605 25.4451 9.34575 25.4451C10.6143 25.4451 12.5811 25.2472 13.6983 24.8166C13.9718 24.7118 14.1638 24.4615 14.1988 24.1763C14.2337 23.8853 14.1115 23.6002 13.8787 23.4256L13.8845 23.4139ZM10.2011 23.8039C10.1313 23.4605 10.207 23.1171 10.3292 22.8552C10.6957 23.0938 11.1031 23.379 11.522 23.6758C11.0798 23.7398 10.6201 23.7806 10.2011 23.8039ZM29.683 19.4971C29.9623 19.8405 29.9041 20.3468 29.5608 20.6203C29.4153 20.7367 29.2349 20.7949 29.0604 20.7949C28.8276 20.7949 28.5949 20.6902 28.4377 20.4981C26.5291 18.1177 23.7942 18.6241 22.9796 19.2352C22.6246 19.5029 22.1242 19.4272 21.8565 19.0722C21.5947 18.7172 21.6645 18.2166 22.0194 17.9489C23.6604 16.7209 27.3321 16.5638 29.683 19.4854V19.4971ZM27.8733 23.4139C25.569 21.7319 24.1084 20.6902 23.1425 20.5156C22.7061 20.4341 22.2929 20.7251 22.2115 21.1616C22.13 21.5981 22.4209 22.0113 22.8574 22.0928C22.8748 22.0928 22.8923 22.1044 22.9097 22.1102C22.6595 22.6049 22.5199 23.1986 22.5722 23.8097C22.1824 23.7689 21.81 24.0134 21.7169 24.4033C21.6121 24.834 21.8798 25.2647 22.3046 25.3694C22.5082 25.4218 22.8748 25.4451 23.3345 25.4451C24.6031 25.4451 26.5699 25.2472 27.6871 24.8166C27.9606 24.7118 28.1526 24.4615 28.1875 24.1763C28.2224 23.8853 28.1003 23.6002 27.8675 23.4256L27.8733 23.4139ZM24.1899 23.8039C24.1201 23.4605 24.1957 23.1171 24.3179 22.8552C24.6845 23.0938 25.0918 23.379 25.5108 23.6758C25.0686 23.7398 24.6089 23.7806 24.1899 23.8039Z" fill="white"/>
</svg>
