<svg width="67" height="73" viewBox="0 0 67 73" fill="none" xmlns="http://www.w3.org/2000/svg">
<path d="M57.1072 29.3725C56.7581 29.3725 56.4381 29.128 56.3624 28.773C56.0366 27.2831 56.5835 25.7873 57.759 24.9609C58.8471 24.1927 60.2204 24.1868 61.4191 24.9493C61.774 25.1762 61.8846 25.6477 61.6577 26.0027C61.4307 26.3635 60.9594 26.4683 60.6044 26.2413C59.9294 25.8165 59.2137 25.8048 58.6376 26.2122C57.9684 26.6836 57.66 27.5566 57.8579 28.4471C57.951 28.8603 57.6891 29.2677 57.276 29.3608C57.2178 29.3725 57.1654 29.3783 57.1131 29.3783L57.1072 29.3725ZM50.8868 23.698C50.7704 24.0006 50.4795 24.1868 50.171 24.1868C50.0779 24.1868 49.9848 24.1694 49.8976 24.1345C48.8734 23.7387 47.826 23.4593 46.7728 23.2789C46.0687 24.5186 45.2424 25.4149 43.3279 25.4149C41.7801 25.4149 40.337 24.2858 39.8948 23.1975C39.4118 23.3662 38.8474 23.4535 38.12 23.4535C37.6952 23.4535 37.3519 23.1101 37.3519 22.6911C37.3519 22.2721 37.6952 21.9287 38.12 21.9287C39.5456 21.9287 39.9413 21.5911 41.1109 20.4271C41.9547 19.5832 43.101 19.2573 44.2473 19.525C45.4053 19.7985 46.3887 20.6366 46.9124 21.7599C48.1053 21.952 49.2982 22.2663 50.4504 22.7144C50.846 22.8657 51.0381 23.308 50.8868 23.7038V23.698ZM45.5159 22.3885C45.19 21.7017 44.579 21.1721 43.8924 21.0091C43.2639 20.8578 42.6588 21.0382 42.1933 21.5038C41.8383 21.8588 41.5299 22.1615 41.2157 22.4234C41.2506 22.4758 41.2797 22.534 41.303 22.598C41.4833 23.116 42.4144 23.89 43.3279 23.89C44.4568 23.89 44.8816 23.5467 45.5217 22.3943L45.5159 22.3885ZM61.8206 30.3328C62.2454 30.3211 62.5771 29.9719 62.5654 29.5471C62.5538 29.1222 62.2337 28.7672 61.7799 28.8021C61.2503 28.8137 60.6684 28.6915 60.4299 27.6439C60.3368 27.2307 59.9236 26.9746 59.5105 27.0677C59.0973 27.1609 58.8413 27.5741 58.9344 27.9873C59.2777 29.4831 60.2902 30.3328 61.7217 30.3328C61.7508 30.3328 61.7857 30.3328 61.8148 30.3328H61.8206ZM25.714 50.4176C26.1155 50.2896 26.3424 49.8647 26.2144 49.4573C26.0864 49.0558 25.6616 48.8346 25.2543 48.9568C22.531 49.8123 19.8426 48.7356 18.8592 46.4018C18.4752 45.4881 18.4694 44.4812 18.8418 43.5617C19.2142 42.6421 19.9241 41.9262 20.8377 41.5421C21.5301 41.2511 22.2982 41.2453 22.9907 41.5305C23.689 41.8157 24.2301 42.3511 24.5211 43.0437C24.7364 43.5617 24.7422 44.132 24.5327 44.65C24.3232 45.168 23.9217 45.5754 23.4038 45.7907C22.8976 46.006 22.3099 45.9304 21.8735 45.587C21.5418 45.3251 21.0588 45.3891 20.7969 45.7209C20.5409 46.0526 20.5991 46.5357 20.9308 46.7918C21.8036 47.4669 22.9732 47.624 23.9916 47.1933C24.8819 46.815 25.5801 46.1166 25.9467 45.2203C26.3133 44.3241 26.3075 43.3347 25.9293 42.4442C25.4812 41.3733 24.6375 40.5411 23.5668 40.1046C22.4903 39.6681 21.309 39.6739 20.2383 40.122C18.9465 40.6633 17.9457 41.676 17.4161 42.9738C16.8866 44.2717 16.8983 45.6976 17.4394 46.9838C18.4403 49.37 20.7562 50.7668 23.3689 50.7668C24.1254 50.7668 24.9109 50.6504 25.6965 50.406L25.714 50.4176ZM38.7601 68.1221C40.4243 67.5342 41.7568 66.3411 42.5133 64.7523C43.1417 63.4428 43.2174 61.9703 42.7344 60.6026C42.2514 59.2349 41.268 58.1408 39.9588 57.5122C37.7243 56.4413 35.0359 57.39 33.9653 59.6249C33.5463 60.4979 33.4881 61.5047 33.8023 62.4592C34.1049 63.3846 34.8672 64.1819 35.7866 64.5428C36.6885 64.892 37.6894 64.8047 38.603 64.2925C38.9696 64.083 39.1034 63.6174 38.8939 63.2507C38.6844 62.8841 38.2189 62.7502 37.8523 62.9597C37.3344 63.2507 36.8224 63.3031 36.3394 63.1169C35.8448 62.9248 35.42 62.4825 35.2571 61.9878C35.065 61.4116 35.0999 60.8122 35.3502 60.2942C36.0543 58.8217 37.829 58.1931 39.3012 58.9032C40.2381 59.3513 40.948 60.1428 41.2913 61.1206C41.6405 62.1042 41.5823 63.1576 41.1284 64.1004C40.5465 65.3227 39.5224 66.2422 38.248 66.6904C36.9737 67.1385 35.6004 67.0687 34.3784 66.4809C31.2187 64.9676 29.9036 61.2137 31.3293 57.745C31.5446 57.2212 31.8006 56.7498 32.109 56.3075C32.3476 55.9583 32.2661 55.4869 31.917 55.2424C31.5678 54.998 31.0907 55.0853 30.8521 55.4345C30.4797 55.9699 30.1771 56.5345 29.9153 57.163C28.1754 61.3883 29.8105 65.992 33.715 67.8602C34.617 68.2909 35.5829 68.512 36.5547 68.512C37.2937 68.512 38.0327 68.384 38.7484 68.1337L38.7601 68.1221ZM54.7215 58.5424C54.7971 56.9069 54.2269 55.3413 53.1271 54.1366C52.0273 52.9319 50.5144 52.2218 48.8851 52.152C47.5351 52.088 46.2491 52.5594 45.2482 53.4673C44.2532 54.3752 43.6713 55.6207 43.6131 56.9709C43.5083 59.2815 45.3006 61.2428 47.6165 61.3476C49.5601 61.4233 51.1894 59.9333 51.2766 58.0011C51.2941 57.5762 50.9682 57.2212 50.5493 57.2038C50.1419 57.1921 49.7695 57.5122 49.7521 57.9313C49.6997 59.0196 48.7745 59.881 47.6864 59.8228C46.22 59.7529 45.0795 58.5074 45.1435 57.0408C45.1842 56.1038 45.5915 55.2308 46.284 54.5964C46.9764 53.962 47.8784 53.6361 48.8152 53.6768C50.043 53.735 51.1719 54.2588 51.9982 55.1668C52.8245 56.0747 53.2493 57.2445 53.1969 58.4725C53.0514 61.7375 50.2641 64.2809 47.0055 64.1295C46.5807 64.1295 46.2258 64.438 46.2083 64.857C46.1909 65.2819 46.5167 65.6369 46.9357 65.6544C47.0463 65.6544 47.1626 65.6602 47.2732 65.6602C51.2359 65.6602 54.5469 62.529 54.7215 58.5307V58.5424ZM65.3062 47.7812C66.8947 50.115 67.0402 53.1414 65.4167 55.7778C58.8122 66.5099 46.767 72.5453 34.1864 72.5453C29.9094 72.5453 25.7896 71.7479 21.7454 70.4966C15.5483 68.576 12.47 64.31 11.7659 60.5619C11.0793 56.9186 12.0511 53.2985 14.3612 50.7494C12.5748 48.0256 12.0743 45.069 12.953 42.3627C13.3487 41.1405 14.012 40.0522 14.8791 39.1443C14.559 39.1617 14.239 39.185 13.9015 39.185C6.20301 39.185 0 30.9963 0 24.216C0 17.9071 3.42737 10.2654 13.0519 7.74532C14.3146 7.41358 15.525 7.20406 16.6771 7.08766C19.4179 2.69355 24.0963 0.185147 29.9036 0.0105467C35.7459 -0.175694 39.342 2.14066 41.3262 4.10782C43.776 6.52894 44.9631 9.58444 45.1376 11.6738C48.5243 12.6108 52.3124 14.4267 56.8221 17.4298C68.0178 24.8969 67.5348 30.0825 65.8589 33.7666C65.4225 34.7327 64.6253 35.0353 63.7001 35.0353C63.6478 35.0353 63.5896 35.0295 63.5372 35.0237C63.735 35.6872 63.7583 36.4147 63.4092 37.0723C63.0775 37.6951 62.3152 38.4109 60.5404 38.4109C60.4299 38.4109 60.3193 38.4109 60.2029 38.4051C59.2835 38.3585 58.3176 38.1491 57.2993 37.9221C56.5195 37.7475 55.7049 37.567 54.8378 37.439C57.5262 38.8591 59.2137 41.4024 59.7316 44.8304C61.9137 44.7839 64.0027 45.8606 65.312 47.7812H65.3062ZM32.4872 13.6585C32.8131 14.1066 33.0924 14.5431 33.3252 14.9563C34.5355 17.1388 34.1922 19.3912 32.3709 21.2943C31.37 22.3361 28.542 24.0821 24.9691 23.116C25.6267 24.3149 26.0282 25.7233 26.0747 27.3122C27.9019 26.7651 29.828 26.8815 31.5329 27.609C31.6668 26.6138 31.9519 25.6593 32.3883 24.8096C32.5803 24.4313 33.0459 24.2858 33.4183 24.4778C33.7965 24.6699 33.942 25.1355 33.75 25.508C33.3077 26.3694 33.0575 27.3704 32.9935 28.418C33.6045 28.8429 34.1689 29.355 34.6577 29.9603C35.9379 31.5375 36.3685 33.5279 36.0135 35.3845C36.9213 36.1411 37.9803 36.7231 39.1965 37.1073C41.0178 37.6834 44.3986 37.7184 47.3489 36.6708C51.7538 35.1285 55.0066 35.8443 57.6251 36.4263C58.6202 36.6475 59.4814 36.8396 60.2728 36.8745C61.2212 36.9152 61.8555 36.7348 62.0534 36.3565C62.2512 35.984 62.0999 35.3089 61.7159 34.7385C61.5006 34.6861 61.2853 34.628 61.07 34.5756C59.6618 34.2089 58.0616 33.7957 56.8628 34.2263C56.4672 34.3718 56.0249 34.1623 55.8853 33.7666C55.7456 33.3708 55.9493 32.9285 56.345 32.7888C57.9859 32.201 59.8247 32.6782 61.4482 33.0973C63.287 33.5745 64.1773 33.7317 64.4449 33.1438C65.3585 31.1301 67.5057 26.4159 55.9551 18.7102C45.3529 11.6447 39.1616 11.3828 32.4756 13.6585H32.4872ZM21.3439 7.15171C25.9525 7.78609 29.3275 10.0675 31.4515 12.3955C35.3211 11.0103 39.0976 10.3876 43.5374 11.2955C43.2698 9.67759 42.3154 7.25062 40.2439 5.20198C40.0286 4.98664 39.7958 4.80042 39.5689 4.60254C37.7243 4.86444 35.3211 6.52314 35.1872 9.25854C35.1698 9.66595 34.8265 9.98605 34.3842 9.98605C33.9653 9.96277 33.6394 9.60774 33.6568 9.18288C33.8023 6.15648 35.9321 4.2475 37.9803 3.45598C36.8107 2.75176 35.5073 2.24542 34.0933 1.92532C31.789 2.49568 30.084 5.25436 30.1422 7.34374C30.1538 7.7686 29.8222 8.11782 29.3799 8.12946C28.9668 8.12946 28.6293 7.80352 28.6176 7.38448C28.5594 5.3824 29.665 2.99037 31.4864 1.55865C30.9859 1.52955 30.4681 1.52375 29.9502 1.54121C28.8737 1.57031 27.8437 1.69835 26.8603 1.90205C25.7896 2.94965 25.1437 4.6549 25.2485 6.22048C25.2776 6.63952 24.9575 7.0062 24.5327 7.0353C24.5153 7.0353 24.4978 7.0353 24.4804 7.0353C24.0788 7.0353 23.7413 6.72685 23.7181 6.31945C23.6366 5.04487 23.9276 3.72952 24.5036 2.58298C23.5493 2.94382 22.659 3.39779 21.8327 3.93905C21.0763 5.06231 21.0414 6.30781 21.3498 7.15171H21.3439ZM18.6032 6.9829C18.9873 6.9829 19.3597 6.98292 19.7321 7.00038C19.6564 6.61044 19.6215 6.19139 19.6448 5.75489C19.2724 6.13901 18.9291 6.55222 18.6032 6.9829ZM24.5618 27.6207C24.5618 25.0075 23.3689 22.953 21.7978 21.5911C21.5127 21.3409 21.2392 21.1372 20.9541 20.9393C19.6215 20.0197 18.1202 19.5367 16.8168 19.4843C13.1683 19.3446 10.608 20.6367 8.99029 23.4477C8.74008 23.8842 8.79826 24.2567 8.86227 24.3207C8.94374 24.3789 9.21723 24.5652 9.90387 23.8435C10.9105 22.7901 13.8491 21.888 16.1185 22.3186C17.7245 22.6213 18.8767 23.5117 19.4411 24.8911C20.0812 26.4508 19.9474 27.9757 19.0571 29.1979C18.1784 30.4026 16.6655 31.1068 15.2049 30.9963C12.7144 30.8042 11.4168 28.9069 11.2306 27.1143C11.1375 26.2239 11.3121 25.2519 11.8067 24.3964C11.4401 24.5652 11.1549 24.7456 11.0095 24.9027C9.61874 26.3635 8.51314 25.9503 7.97779 25.572C7.17478 25.0075 7.03512 23.7678 7.65775 22.6853C9.55473 19.3795 12.6446 17.779 16.8692 17.9536C18.4286 18.0177 20.2442 18.5997 21.8269 19.7055C22.0189 19.8393 22.3855 20.1128 22.5717 20.2642C26.7497 23.2673 30.2237 21.3059 31.2478 20.2351C32.6094 18.815 32.8538 17.2902 31.9694 15.6955C31.3176 14.514 30.2237 13.1405 28.7049 11.9183C26.5985 12.9601 25.423 15.3579 25.9991 17.5753C26.1038 17.9827 25.8594 18.4017 25.4521 18.5065C25.3881 18.524 25.3241 18.5298 25.2601 18.5298C24.9168 18.5298 24.6084 18.3028 24.5211 17.9536C23.8286 15.2939 25.0506 12.4421 27.3549 10.9347C26.0515 10.1024 24.5094 9.40984 22.7347 8.97916C21.0006 10.1432 20.1918 13.8913 21.0181 15.6198C21.1985 15.9981 21.0355 16.4579 20.6573 16.6383C20.5526 16.6907 20.442 16.714 20.3314 16.714C20.0463 16.714 19.7728 16.551 19.639 16.2775C18.6847 14.2812 19.2549 10.6903 20.8901 8.64745C20.2092 8.56015 19.4993 8.50774 18.7603 8.50774C18.0213 8.50774 17.1717 8.56013 16.328 8.66489C15.8683 9.00827 15.3213 9.82891 15.0536 11.0104C14.7103 12.5061 14.9431 14.0135 15.6937 15.1542C15.9265 15.5092 15.8276 15.9807 15.4784 16.2135C15.3504 16.3008 15.2049 16.3415 15.0595 16.3415C14.8092 16.3415 14.5649 16.2192 14.4194 15.9981C13.4418 14.514 13.1334 12.5701 13.564 10.6728C13.6978 10.0966 13.8898 9.54954 14.1342 9.06647C13.9015 9.11886 13.6687 9.16543 13.4302 9.22945C12.3769 9.50299 11.4168 9.84637 10.5207 10.248C8.88555 12.3432 9.70602 15.5965 10.6371 16.5976C10.9222 16.906 10.9105 17.3891 10.6021 17.6801C10.4567 17.8198 10.2646 17.8838 10.0784 17.8838C9.87477 17.8838 9.67111 17.8023 9.51981 17.6393C8.50731 16.551 7.55301 13.9553 8.20473 11.5167C7.00603 12.3024 5.99353 13.2045 5.14396 14.1939C4.35258 16.5917 5.8946 18.7219 6.83727 19.5308C7.15732 19.8044 7.19805 20.2875 6.92456 20.6076C6.77327 20.788 6.55796 20.8753 6.34266 20.8753C6.16809 20.8753 5.99353 20.8171 5.84805 20.6948C4.74245 19.7578 3.77651 18.2504 3.48556 16.5452C2.56616 18.1864 2.00754 19.9324 1.72823 21.6493C2.21702 23.5234 4.62025 24.7456 5.57456 24.862C5.99353 24.9144 6.29611 25.2926 6.24374 25.7117C6.19719 26.1016 5.86551 26.3868 5.48728 26.3868C5.45818 26.3868 5.42327 26.3868 5.39418 26.3868C4.37004 26.2646 2.70582 25.4963 1.51875 24.2334C1.51875 25.9678 1.98427 27.8011 2.78146 29.5413C3.77651 30.164 6.23792 30.6703 7.3377 30.1233C7.71594 29.937 8.17564 30.0883 8.36184 30.4666C8.54805 30.8449 8.39676 31.3047 8.01853 31.491C7.47154 31.7645 6.77327 31.8809 6.03426 31.8809C5.33598 31.8809 4.60861 31.7761 3.9278 31.6015C4.84137 32.9925 5.98189 34.2496 7.29697 35.2565C8.77499 35.3263 10.2646 34.6337 10.6021 33.9295C10.7825 33.5454 11.2422 33.3883 11.6205 33.5687C12.0045 33.7491 12.1616 34.2089 11.9812 34.5872C11.5623 35.4602 10.5323 36.1586 9.31615 36.5253C10.7302 37.2295 12.2664 37.6485 13.884 37.6485C21.2508 37.6485 24.5502 32.6084 24.5502 27.609L24.5618 27.6207ZM12.7668 26.9572C12.8774 28.0339 13.6222 29.3376 15.3388 29.4714C16.2698 29.5413 17.2707 29.0756 17.8351 28.3016C18.2308 27.7545 18.5916 26.8233 18.0388 25.4789C17.6722 24.5884 16.9332 24.0297 15.845 23.826C15.5773 23.7736 15.1642 23.7736 14.8092 23.8784C13.1101 24.3673 12.6446 25.8281 12.7668 26.963V26.9572ZM63.834 55.4228C65.3294 53.2287 65.2945 50.4758 64.0434 48.6425C62.9262 47.0013 61.07 46.0759 59.2253 46.396C57.1189 46.7627 55.9493 48.497 55.7456 49.8647C55.4488 51.7969 56.473 53.4906 58.2303 53.9853C58.8762 54.1657 59.557 54.0842 60.1447 53.7583C60.7325 53.4265 61.1572 52.8911 61.3376 52.2451C61.4889 51.7038 61.4016 51.1044 61.1107 50.6388C60.9419 50.3769 60.6393 50.0451 60.1331 49.9637C59.7141 49.8938 59.4348 49.4981 59.5047 49.0848C59.5745 48.6658 59.9643 48.3864 60.3833 48.4563C61.2096 48.596 61.9253 49.079 62.3967 49.824C62.9204 50.6504 63.0775 51.7096 62.804 52.6641C62.5131 53.7059 61.8322 54.5673 60.8896 55.0969C60.2786 55.4403 59.5978 55.6149 58.9169 55.6149C58.5503 55.6149 58.1779 55.5625 57.8113 55.4635C55.3266 54.7651 53.8195 52.315 54.2269 49.6377C54.5004 47.8685 55.8387 45.8838 58.2303 45.1039C57.5204 40.2675 54.4072 38.5506 51.8527 37.9744C49.8859 37.5263 47.7271 37.9512 46.7786 38.6205C44.1892 40.4363 43.4094 43.7013 44.9631 46.2156C45.5624 47.1817 46.4993 47.851 47.5991 48.1129C48.7047 48.369 49.8394 48.1886 50.8053 47.5891C51.5443 47.1351 52.0564 46.4193 52.2542 45.5754C52.4521 44.7315 52.3124 43.8643 51.8527 43.1252C51.5094 42.5723 50.9682 42.1823 50.334 42.0368C49.6997 41.8855 49.048 41.9961 48.4894 42.3394C47.8726 42.7236 47.5467 43.4336 47.6573 44.1495C47.7213 44.5685 47.4361 44.9585 47.0172 45.0225C46.604 45.0865 46.2083 44.8013 46.1443 44.3823C45.9407 43.0553 46.54 41.7458 47.6805 41.0358C48.5825 40.477 49.6473 40.3025 50.6773 40.5469C51.7072 40.7913 52.5859 41.4199 53.1445 42.322C53.8137 43.4045 54.0232 44.6849 53.7322 45.9304C53.4413 47.1701 52.6848 48.2235 51.5967 48.8986C50.6715 49.469 49.6299 49.7658 48.565 49.7658C48.1228 49.7658 47.6747 49.7134 47.2325 49.6086C45.7312 49.2536 44.4568 48.3399 43.6422 47.0304C42.042 44.4521 42.3504 41.2686 44.2241 38.9289C43.5607 39.0046 42.9032 39.057 42.2573 39.057C40.9538 39.057 39.726 38.8998 38.7135 38.5797C37.5148 38.2014 36.4325 37.6543 35.484 36.9559C35.0767 37.8348 34.4715 38.6437 33.6685 39.2956C32.6618 40.1162 31.4456 40.512 30.2353 40.512C28.6467 40.512 27.0698 39.8252 25.9933 38.4982C25.231 37.5612 24.8819 36.3856 25.0041 35.1867C25.1263 33.9877 25.714 32.9052 26.6508 32.1486C27.4306 31.5142 28.414 31.2174 29.4148 31.328C30.4157 31.4328 31.3176 31.9216 31.9519 32.7015C32.2196 33.0274 32.1672 33.5105 31.8413 33.7782C31.5097 34.046 31.0325 33.9936 30.7648 33.6677C30.3866 33.202 29.8571 32.9169 29.2635 32.8528C28.67 32.7946 28.0881 32.9634 27.6226 33.3417C27.0058 33.8423 26.6159 34.5581 26.5344 35.3496C26.453 36.1411 26.6857 36.921 27.1862 37.5379C28.5478 39.2199 31.0267 39.476 32.7084 38.1141C34.8846 36.3448 35.2221 33.1264 33.4474 30.9439C31.6377 28.7148 28.6234 27.9349 25.9816 28.9651C25.5627 32.8005 23.3515 36.6707 19.0454 38.2945C16.811 39.1384 15.0769 40.6982 14.3786 42.8574C13.5989 45.2611 14.1517 47.9383 15.9381 50.4002C16.1592 50.7086 16.1243 51.1335 15.8508 51.3954C13.5814 53.6012 12.6097 56.9244 13.2381 60.2942C13.8549 63.5883 17.4278 67.6041 22.2168 69.0649C26.1038 70.2522 30.0549 71.0263 34.1573 71.0263C46.22 71.0263 57.0374 65.3692 63.8049 55.4345L63.834 55.4228ZM39.6562 50.4002C41.4426 47.4611 41.0527 43.7072 38.7135 41.2744C38.4226 40.9718 37.9338 40.9601 37.6312 41.2569C37.3286 41.5479 37.317 42.0368 37.6137 42.3394C39.4758 44.2717 39.7842 47.2632 38.3527 49.6086C37.0144 51.8086 34.1631 52.5361 32.0043 51.2324C31.2187 50.7552 30.6601 49.9928 30.439 49.0907C30.212 48.1595 30.3633 47.1875 30.8696 46.3611C31.6493 45.0807 33.3019 44.6558 34.553 45.4124C34.9952 45.6801 35.3094 46.105 35.4316 46.6172C35.5596 47.141 35.4724 47.688 35.1872 48.1536C34.9661 48.5145 35.0825 48.9859 35.4433 49.207C35.804 49.4282 36.2754 49.3118 36.4965 48.951C36.9969 48.1362 37.1424 47.1759 36.9213 46.2563C36.7002 45.3484 36.1415 44.586 35.3502 44.1087C33.3775 42.9156 30.7823 43.5733 29.5661 45.5695C28.8504 46.751 28.6293 48.1304 28.9551 49.4573C29.2752 50.761 30.0782 51.8552 31.2129 52.5478C32.1847 53.1356 33.267 53.4208 34.3318 53.4208C36.4209 53.4208 38.4808 52.3499 39.6562 50.4176V50.4002ZM26.7032 65.1306C27.1047 65.0026 27.3258 64.566 27.192 64.1645C27.0581 63.7629 26.6275 63.5417 26.226 63.6756C23.7472 64.4788 20.2034 64.1703 18.2715 61.5746C17.4452 60.4688 17.1019 59.1127 17.2998 57.7508C17.4976 56.389 18.2133 55.1842 19.3189 54.3578C21.0763 53.0483 23.5668 53.4091 24.876 55.1668C25.8711 56.5054 25.5976 58.4027 24.2592 59.3979C23.7763 59.7587 23.1769 59.9101 22.5776 59.8228C21.9782 59.7355 21.4487 59.4212 21.0879 58.9381C20.8377 58.6005 20.3547 58.5307 20.0172 58.781C19.6797 59.0312 19.6099 59.5143 19.8601 59.8519C20.4653 60.6667 21.3498 61.1963 22.3564 61.3418C23.3573 61.4873 24.3582 61.237 25.1728 60.6259C27.1862 59.1244 27.5993 56.2609 26.098 54.2472C24.2825 51.8144 20.8319 51.3139 18.3995 53.1298C16.9681 54.2006 16.037 55.7604 15.781 57.5297C15.525 59.299 15.973 61.0566 17.0379 62.4941C18.6963 64.7174 21.2799 65.5962 23.7006 65.5962C24.7597 65.5962 25.7838 65.4274 26.6916 65.1364L26.7032 65.1306ZM36.7467 19.8975C38.5389 19.7636 39.4525 19.0012 40.2555 18.3203C40.9131 17.7674 41.4775 17.296 42.5366 17.0865C43.52 16.8944 44.5383 17.2086 45.1318 17.8896C45.4111 18.2097 45.8941 18.2446 46.2142 17.9653C46.5342 17.6859 46.5691 17.2028 46.2898 16.8886C45.3297 15.7828 43.7818 15.2822 42.2456 15.5849C40.8025 15.8701 39.9937 16.551 39.278 17.1505C38.5273 17.779 37.9396 18.2795 36.642 18.3727C36.223 18.4018 35.903 18.7684 35.9379 19.1933C35.967 19.5949 36.3045 19.9033 36.7002 19.9033C36.7176 19.9033 36.7409 19.9033 36.7584 19.9033L36.7467 19.8975ZM47.5758 33.3068C48.8909 31.0079 48.3032 28.4762 46.1443 27.1609C45.7836 26.9397 45.3122 27.0561 45.0911 27.417C44.87 27.7778 44.9864 28.2492 45.3471 28.4704C47.0055 29.4831 46.9939 31.2465 46.2491 32.5502C46.0396 32.9168 46.1676 33.3825 46.5342 33.5978C46.6564 33.6677 46.7844 33.6967 46.9124 33.6967C47.1801 33.6967 47.4361 33.557 47.5758 33.3126V33.3068Z" fill="white"/>
</svg>
