<svg width="76" height="76" viewBox="0 0 76 76" fill="none" xmlns="http://www.w3.org/2000/svg">
<path d="M48.8777 13.6305C48.5634 13.6305 48.2725 13.45 48.1386 13.1416C47.6033 11.8903 46.4628 10.2374 45.107 9.35275C44.7346 9.11413 44.6298 8.61361 44.8742 8.24695C45.1186 7.87447 45.6132 7.76971 45.9856 8.01415C47.4229 8.95117 48.8486 10.7146 49.6167 12.513C49.7912 12.9204 49.5992 13.3918 49.1919 13.5606C49.0871 13.6072 48.9824 13.6246 48.8777 13.6246V13.6305ZM18.5609 28.5529C18.526 20.7716 22.093 14.4802 28.3426 11.3025C28.7382 11.1046 28.8954 10.6215 28.6917 10.2258C28.4939 9.83581 28.0109 9.67285 27.6152 9.87655C20.807 13.3395 16.9199 20.1547 16.9549 28.5646C16.9549 29.0069 17.3156 29.3619 17.752 29.3619C18.1943 29.3619 18.5551 29.0011 18.5493 28.5588L18.5609 28.5529ZM17.56 12.9612C20.2775 9.62629 27.6676 5.3253 34.4815 5.91895C34.9238 5.95969 35.3079 5.63376 35.3486 5.19144C35.3893 4.74912 35.0635 4.36501 34.6212 4.32427C27.6501 3.70735 19.6956 7.80463 16.3206 11.9485C16.0413 12.2919 16.0937 12.7982 16.437 13.0776C16.5883 13.1998 16.7628 13.258 16.9432 13.258C17.176 13.258 17.4087 13.159 17.5659 12.9612H17.56ZM46.4919 65.0153C46.9341 64.9746 47.2542 64.5846 47.2134 64.1423C47.1727 63.7058 46.7828 63.3799 46.3406 63.4206C42.8027 63.764 39.6604 63.5079 36.4367 62.6233C36.0119 62.5069 35.5697 62.7571 35.4533 63.182C35.3369 63.6069 35.5872 64.0492 36.0119 64.1656C38.4559 64.8349 40.8533 65.1666 43.3904 65.1666C44.397 65.1666 45.427 65.1142 46.4861 65.0095L46.4919 65.0153ZM10.0361 45.9955C10.4435 45.8267 10.6413 45.3611 10.4725 44.9537C7.40596 37.5099 8.73268 28.4715 11.4036 22.8202C11.5898 22.4187 11.421 21.9414 11.0195 21.7552C10.6238 21.5689 10.1409 21.7377 9.95465 22.1393C7.13246 28.1106 5.74173 37.6671 8.99453 45.5706C9.12254 45.8791 9.4193 46.0654 9.73353 46.0654C9.83245 46.0654 9.9372 46.0479 10.0361 46.0071V45.9955ZM28.1098 52.9271C28.3775 52.5779 28.3135 52.0774 27.9643 51.8039C24.0191 48.7658 21.1445 43.7432 20.068 38.0221C19.9865 37.5856 19.5676 37.3004 19.1312 37.3819C18.6947 37.4634 18.4096 37.8824 18.4911 38.3189C19.6374 44.4241 22.7331 49.8018 26.9867 53.0726C27.1322 53.1832 27.301 53.2414 27.4755 53.2414C27.7141 53.2414 27.9527 53.1308 28.1098 52.9271ZM39.5499 69.1533C39.579 68.711 39.2473 68.3327 38.805 68.2978C33.0326 67.902 22.349 65.737 15.5932 55.7207C15.3488 55.3541 14.8484 55.2551 14.4818 55.5054C14.1152 55.7557 14.0163 56.2504 14.2665 56.617C21.3947 67.1978 32.6311 69.4792 38.6945 69.8983C38.7119 69.8983 38.7294 69.8983 38.7527 69.8983C39.1716 69.8983 39.5208 69.5782 39.5499 69.1533ZM30.2686 61.0519C30.4025 60.6328 30.1697 60.1789 29.7449 60.0508C28.3135 59.5969 24.4846 57.5424 21.8021 54.0562C21.5344 53.7012 21.0281 53.6372 20.679 53.9107C20.3298 54.1784 20.2658 54.6848 20.5335 55.034C23.6816 59.1196 27.9992 61.1799 29.2619 61.5757C29.3434 61.5989 29.4249 61.6106 29.5005 61.6106C29.838 61.6106 30.1581 61.3894 30.2628 61.0519H30.2686ZM43.1984 59.5212C43.2449 59.0847 42.9307 58.6889 42.4884 58.6366C39.1949 58.2757 35.6919 57.071 34.6328 56.3668C34.2604 56.1223 33.7658 56.2213 33.5214 56.5879C33.277 56.9546 33.376 57.4551 33.7425 57.6995C35.1275 58.6191 38.8982 59.8588 42.3139 60.2312C42.343 60.2312 42.3721 60.2312 42.4012 60.2312C42.8027 60.2312 43.1518 59.9286 43.1984 59.5154V59.5212ZM18.171 50.2616C18.5492 50.0346 18.6773 49.5457 18.4503 49.1674C16.5475 45.9664 14.0279 40.8157 14.0628 33.1333C14.0628 32.691 13.7079 32.3301 13.2598 32.3301C12.8176 32.3301 12.4626 32.6852 12.4568 33.1275C12.4277 39.2792 13.8941 44.6394 17.0712 49.988C17.2225 50.2383 17.4844 50.378 17.7579 50.378C17.8975 50.378 18.0372 50.3431 18.1652 50.2674L18.171 50.2616ZM56.3317 12.3268C57.932 9.45169 57.9261 3.30577 54.2718 0.605286C53.7365 0.209525 53.1313 0 52.5378 0C51.4729 0 50.5244 0.686767 50.2276 1.67035C49.896 2.78779 50.4313 3.92851 51.6591 4.73167C53.1604 5.70943 54.7955 8.38663 54.8363 11.9485C54.8363 12.3093 55.0865 12.6236 55.4414 12.7167C55.5055 12.7342 55.5753 12.74 55.6393 12.74C55.9244 12.74 56.1979 12.5887 56.3375 12.3268H56.3317ZM53.3175 1.89733C55.0574 3.18355 55.7615 5.65122 55.744 7.90939C54.9992 5.77344 53.7598 4.19623 52.532 3.39306C51.9326 3.00312 51.6417 2.5317 51.7639 2.13012C51.857 1.82166 52.1712 1.6005 52.5378 1.6005C52.788 1.6005 53.0615 1.69944 53.3233 1.8915L53.3175 1.89733ZM59.9919 11.6167C60.7192 10.9358 61.4641 10.6099 62.2729 10.6099C62.7733 10.6099 63.2563 10.7321 63.6636 10.8543C64.0186 10.9591 64.3619 11.0115 64.6878 11.0115C66.1774 11.0115 67.0503 9.92893 67.1317 8.86387C67.2248 7.68823 66.4044 6.38454 64.647 6.16338C62.2845 5.86656 59.5089 8.05489 58.6768 10.8078C58.572 11.157 58.7117 11.5294 59.0201 11.7215C59.1481 11.803 59.2994 11.8437 59.4391 11.8437C59.6369 11.8437 59.8348 11.7681 59.986 11.6284L59.9919 11.6167ZM61.5455 9.06757C62.4067 8.18875 63.5007 7.63003 64.4434 7.74643C65.2406 7.84537 65.5664 8.32843 65.5373 8.73001C65.5141 9.04429 65.2755 9.40513 64.6878 9.40513C64.5132 9.40513 64.3212 9.37603 64.1175 9.31201C63.5996 9.16069 62.977 9.00355 62.2729 9.00355C62.0285 9.00355 61.7841 9.02101 61.5455 9.06175V9.06757ZM74.9931 50.378C69.3022 65.4343 55.2436 75.1596 39.1716 75.1596C18.0663 75.1596 0.894531 57.9847 0.894531 36.8756C0.894531 17.5066 13.6788 2.06028 31.2869 0.157143C37.874 -0.558718 43.9664 1.25712 48.4296 5.26711C51.5602 8.07235 53.6608 11.7913 53.9751 14.9632H57.9145C58.1705 14.9632 58.4149 15.0913 58.5662 15.3008C58.7175 15.5103 58.7524 15.7839 58.6651 16.0283L58.0658 17.7277C57.7225 18.6939 56.7158 19.497 55.5578 19.8113C55.5753 20.4049 55.6102 20.9462 55.6626 21.47C56.6576 19.9801 58.2694 18.723 60.4108 18.723C63.6462 18.723 65.9097 21.2023 65.9097 24.7583C65.9097 26.7604 65.4035 28.0583 64.9147 29.3096C64.327 30.8111 63.7742 32.237 64.0419 35.0306C64.5132 36.0317 64.8158 37.2364 64.8856 38.703C65.2464 38.4644 65.6362 38.2549 66.0494 38.0919C67.6263 37.4634 69.3546 37.4867 70.9199 38.1618C74.6324 39.7623 77.2218 44.4707 74.9931 50.378ZM56.1746 24.2985C56.2735 24.6652 56.3841 25.0144 56.5063 25.3403C56.7914 24.1065 57.3093 23.0472 58.0425 22.2732C58.7466 21.534 59.5904 21.1266 60.4166 21.1266C62.3311 21.1266 63.5123 22.5176 63.5123 24.7641C63.5123 26.3181 63.1283 27.2958 62.6802 28.4366C62.3078 29.391 61.9005 30.4736 61.6968 31.9111C61.9412 32.1497 62.1798 32.4 62.4125 32.6561C62.5522 30.9741 63.0003 29.7984 63.4192 28.7276C63.8731 27.5635 64.3037 26.4636 64.3037 24.7641C64.3037 22.7213 63.2854 20.3293 60.405 20.3293C57.897 20.3293 56.4481 22.8202 56.1572 24.2985H56.1746ZM57.8272 48.3526C58.9503 47.078 60.5039 46.3156 62.1972 46.2109C62.4242 46.1992 62.6511 46.1992 62.8722 46.2109C62.7384 45.9839 62.6046 45.7511 62.5056 45.5066C62.3369 45.0876 62.2322 44.6511 62.1798 44.2088C62.0169 44.3834 61.8539 44.5696 61.6852 44.7733C60.9985 45.6172 60.1373 46.6706 58.4498 46.6706C56.7623 46.6706 55.9011 45.6172 55.2145 44.7733C54.5337 43.9411 54.1031 43.4638 53.2186 43.4638C52.3341 43.4638 51.9035 43.9352 51.2227 44.7733C50.5361 45.6172 49.6749 46.6706 47.9874 46.6706C46.2999 46.6706 45.4445 45.6172 44.752 44.7733C44.0712 43.9411 43.6406 43.4696 42.7619 43.4696C41.8833 43.4696 41.4468 43.9411 40.766 44.7733C40.0736 45.6172 39.2182 46.6706 37.5307 46.6706C35.8432 46.6706 34.9878 45.6172 34.2954 44.7733C33.8648 44.2437 33.5272 43.8829 33.1199 43.6733C33.5214 45.7976 34.1848 48.0849 35.1275 50.5235C38.805 53.3287 43.6464 54.9583 51.7231 54.9583C53.1604 54.9583 55.0632 54.6731 57.0591 54.1668C56.7507 53.5499 56.5645 52.8689 56.5238 52.1531C56.4365 50.7563 56.8962 49.406 57.8272 48.3526ZM63.2912 40.2337C63.3087 39.9136 63.3203 39.5935 63.3203 39.2792C63.3203 39.1861 63.3203 39.1046 63.3145 39.0173C62.6744 39.1395 62.2671 39.5644 61.691 40.2686C61.0044 41.1125 60.1432 42.1659 58.4557 42.1659C56.7682 42.1659 55.907 41.1183 55.2203 40.2686C54.5395 39.4364 54.1089 38.9591 53.2244 38.9591C52.3399 38.9591 51.9093 39.4305 51.2285 40.2686C50.5419 41.1125 49.6807 42.1659 47.9932 42.1659C46.3057 42.1659 45.4503 41.1125 44.7578 40.2686C44.077 39.4364 43.6464 38.9649 42.7678 38.9649C41.8891 38.9649 41.4527 39.4364 40.7718 40.2686C40.0794 41.1125 39.224 42.1659 37.5365 42.1659C35.849 42.1659 34.9936 41.1125 34.3012 40.2686C33.7309 39.5644 33.3178 39.1395 32.6835 39.0173C32.6835 39.1046 32.6777 39.1919 32.6777 39.2792C32.6777 40.1173 32.7359 40.9961 32.8464 41.904C34.1848 42.1019 34.9354 43.0098 35.5464 43.7548C36.2272 44.5929 36.6578 45.0643 37.5423 45.0643C38.4268 45.0643 38.8574 44.5929 39.5382 43.7548C40.2249 42.9109 41.0861 41.8575 42.7736 41.8575C44.4611 41.8575 45.3164 42.9109 46.0089 43.7548C46.6897 44.5929 47.1203 45.0643 47.999 45.0643C48.8777 45.0643 49.3141 44.5929 49.9949 43.7548C50.6873 42.9109 51.5427 41.8575 53.2302 41.8575C54.9177 41.8575 55.7789 42.9109 56.4656 43.7548C57.1464 44.5929 57.577 45.0643 58.4615 45.0643C59.346 45.0643 59.7766 44.5929 60.4574 43.7548C60.9462 43.1553 61.499 42.486 62.3485 42.1252C62.4125 41.9099 62.4824 41.6887 62.5697 41.4792C62.7675 41.031 63.0119 40.612 63.2912 40.2279V40.2337ZM37.4201 15.3008C37.5714 15.0913 37.8158 14.9632 38.0719 14.9632H40.8068C40.4169 14.6082 39.8757 14.2474 39.2007 13.9506C38.0311 13.4384 34.9238 12.4839 31.2869 14.6431C27.9992 16.5928 25.6367 20.4457 24.8104 25.2064C23.5768 32.3185 25.8986 40.2744 31.0309 46.4844C31.5604 47.1246 32.1016 47.7357 32.6602 48.3177C31.6128 45.0119 31.0775 41.9855 31.0775 39.285C31.0775 37.5332 31.415 36.1655 31.9503 35.0306C32.218 32.237 31.6652 30.8111 31.0716 29.3096C30.5829 28.0583 30.0766 26.7662 30.0766 24.7583C30.0766 21.2081 32.3402 18.723 35.5755 18.723C37.7169 18.723 39.3287 19.9801 40.3238 21.47C40.3762 20.9462 40.4169 20.3991 40.4285 19.8113C39.2705 19.497 38.2639 18.6939 37.9206 17.7277L37.3212 16.0283C37.2339 15.7839 37.2747 15.5103 37.4201 15.3008ZM33.5738 32.6561C33.8066 32.4 34.0451 32.1497 34.2895 31.9111C34.0917 30.4794 33.6844 29.391 33.312 28.4424C32.8639 27.2958 32.4798 26.3123 32.4798 24.7641C32.4798 22.5234 33.6669 21.1266 35.5755 21.1266C36.4018 21.1266 37.2456 21.534 37.9497 22.2732C38.6828 23.0472 39.2007 24.1065 39.4917 25.3403C39.6139 25.0144 39.7244 24.6652 39.8234 24.2985C39.5324 22.8202 38.0835 20.3293 35.5755 20.3293C32.701 20.3293 31.6826 22.7155 31.6826 24.7641C31.6826 26.4636 32.1132 27.5635 32.5671 28.7276C32.9861 29.7984 33.4341 30.9741 33.5738 32.6561ZM37.1175 31.4571C36.8848 31.6783 36.6462 31.8995 36.4134 32.1148C34.7201 33.6687 33.3119 34.9608 32.8464 37.4052C34.1906 37.5972 34.9413 38.511 35.5523 39.2618C36.2331 40.094 36.6637 40.5713 37.5481 40.5713C38.4326 40.5713 38.8632 40.0998 39.544 39.2618C40.2307 38.4179 41.0919 37.3644 42.7794 37.3644C44.4669 37.3644 45.3223 38.412 46.0147 39.2618C46.6955 40.094 47.1262 40.5713 48.0048 40.5713C48.8835 40.5713 49.3199 40.0998 50.0007 39.2618C50.6932 38.4179 51.5486 37.3644 53.2361 37.3644C54.9235 37.3644 55.7848 38.412 56.4714 39.2618C57.1522 40.094 57.5828 40.5713 58.4673 40.5713C59.3518 40.5713 59.7824 40.0998 60.4632 39.2618C61.0742 38.511 61.8248 37.6031 63.169 37.4052C62.7035 34.9608 61.2953 33.6687 59.602 32.1148C59.3692 31.8995 59.1307 31.6841 58.8979 31.4571H37.1292H37.1175ZM60.3119 30.6016C60.5621 29.4958 60.9054 28.6053 61.2022 27.8487C61.6212 26.7837 61.9237 26.0096 61.9237 24.7583C61.9237 23.4081 61.4175 22.7213 60.4283 22.7213C60.0501 22.7213 59.6078 22.9599 59.2121 23.3731C58.3044 24.3334 57.8098 26.0212 57.8621 27.9186C58.6011 28.9662 59.4507 29.8043 60.3119 30.5958V30.6016ZM38.1359 27.9244C38.1882 26.0271 37.6936 24.3334 36.7859 23.379C36.396 22.9657 35.9538 22.7271 35.5697 22.7271C34.5747 22.7271 34.0742 23.4139 34.0742 24.7641C34.0742 26.0096 34.3768 26.7837 34.7958 27.8487C35.0925 28.6112 35.4359 29.5016 35.6861 30.6016C36.5415 29.8101 37.3968 28.972 38.1359 27.9244ZM39.3462 28.9953C39.1251 29.2979 38.8981 29.5831 38.6654 29.8566H57.3326C57.0998 29.5831 56.8729 29.2979 56.6518 28.9953H39.3462ZM53.9751 19.9626H42.0229C41.9298 23.2626 41.2664 25.5964 40.3354 27.3948H55.6626C54.7315 25.5964 54.0682 23.2626 53.9751 19.9626ZM39.2066 16.5637L39.4277 17.1981C39.6255 17.751 40.5042 18.3621 41.4643 18.3621H54.5395C55.4996 18.3621 56.3783 17.751 56.5761 17.1981L56.7972 16.5637H39.2066ZM39.1775 73.5591C46.2533 73.5591 52.916 71.5977 58.5837 68.0592C59.5729 67.4422 60.3177 66.6682 60.6378 66.2608C62.8257 63.4846 62.6046 59.7365 60.1257 57.5482C59.1714 56.7043 57.9494 56.2853 56.6809 56.3668C55.4123 56.4482 54.2485 57.0128 53.4106 57.9673C52.7647 58.6948 52.4447 59.6376 52.5029 60.6095C52.561 61.5815 52.9975 62.4719 53.7307 63.118C54.8712 64.1248 56.6169 64.0143 57.6236 62.8735C57.9727 62.4778 58.1531 61.9481 58.1298 61.3952C58.1123 60.918 57.8447 60.4233 57.4548 60.1265C57.0766 59.8413 56.6169 59.7598 56.0873 59.8937C55.6626 59.9926 55.2261 59.7307 55.1214 59.3C55.0166 58.8694 55.2843 58.4387 55.7149 58.3339C56.7042 58.0953 57.6701 58.2815 58.4207 58.8519C59.1888 59.4339 59.6835 60.3826 59.7242 61.3312C60.0035 67.1105 50.1811 69.1766 47.6208 69.4036C47.5975 69.4036 47.5742 69.4036 47.5509 69.4036C47.1436 69.4036 46.7887 69.0893 46.7537 68.6761C46.713 68.2338 47.0389 67.8496 47.4811 67.8089C49.2035 67.6576 52.7531 66.8777 55.2785 65.382C54.3417 65.3238 53.4223 64.9862 52.6658 64.3227C51.6126 63.3973 50.9841 62.1111 50.8968 60.7143C50.8096 59.3175 51.2751 57.9614 52.2003 56.9138C52.3167 56.78 52.4389 56.6578 52.5669 56.5355C52.2759 56.553 51.985 56.5646 51.7231 56.5646C39.6895 56.5646 34.4059 53.1017 29.7915 47.5087C24.3682 40.9379 21.9126 32.4989 23.2277 24.9387C24.1354 19.7182 26.7714 15.4638 30.4607 13.2754C34.7318 10.7379 38.4384 11.8845 39.835 12.4956C41.249 13.1125 42.3197 14.0262 42.7968 14.9749H44.8568C43.6115 12.222 41.5167 10.604 38.3337 9.94639C37.9031 9.85909 37.6238 9.43423 37.7111 8.99773C37.7984 8.56705 38.2232 8.28769 38.6596 8.37499C42.5874 9.18979 45.171 11.3665 46.5792 14.9749H52.3574C52.0606 12.6061 50.4895 9.2771 47.3647 6.47185C44.4494 3.85285 39.3229 0.91374 31.4615 1.76346C14.6796 3.5793 2.49474 18.3563 2.49474 36.893C2.49474 57.1175 18.9449 73.5765 39.1716 73.5765L39.1775 73.5591ZM70.2914 39.6284C69.1218 39.1279 67.83 39.1104 66.6487 39.576C65.4675 40.0475 64.5423 40.9496 64.036 42.1194C63.652 43.0157 63.6345 44.0051 63.9953 44.913C64.3561 45.8209 65.0485 46.5309 65.9388 46.9151C67.3354 47.5145 68.9647 46.8685 69.564 45.4717C69.7735 44.9887 69.7794 44.4299 69.5873 43.9061C69.4186 43.458 69.0112 43.068 68.5516 42.9109C68.1093 42.7596 67.6438 42.8236 67.1783 43.1146C66.8 43.3416 66.3054 43.231 66.0785 42.8527C65.8457 42.4744 65.9621 41.9855 66.3403 41.7527C67.2074 41.2173 68.185 41.0892 69.0752 41.3977C69.6222 41.5839 70.1052 41.9448 70.4893 42.3813C72.5143 44.7035 72.2815 48.0965 71.1177 50.4478C70.9781 50.7272 70.6929 50.8901 70.3961 50.8901C70.2798 50.8901 70.1576 50.8669 70.0412 50.8087C69.6455 50.6108 69.4826 50.1335 69.6804 49.7378C69.9888 49.1092 70.2972 48.178 70.3845 47.1537C69.6862 47.9918 68.7028 48.5214 67.6438 48.6727C68.569 49.8134 69.0985 51.1753 69.1509 52.6187C69.2265 54.6382 68.4003 56.6345 66.8291 58.2292C66.672 58.3863 66.4684 58.4678 66.2589 58.4678C66.0494 58.4678 65.8516 58.3921 65.7003 58.2408C65.386 57.9323 65.3802 57.426 65.6886 57.1117C66.9455 55.8313 67.6031 54.2541 67.5507 52.6827C67.4983 51.2684 66.8757 49.9939 65.741 48.9986C64.7867 48.1547 63.5647 47.7357 62.2962 47.8172C61.0276 47.8987 59.8638 48.4632 59.0259 49.4177C58.38 50.151 58.06 51.088 58.1182 52.06C58.1764 53.0319 58.6128 53.9224 59.346 54.5684C60.4865 55.5752 62.2322 55.4647 63.2388 54.3239C63.588 53.9282 63.7684 53.3986 63.7451 52.8457C63.7276 52.3684 63.46 51.8737 63.0701 51.5769C62.6919 51.2917 62.2322 51.2161 61.7026 51.3441C61.2778 51.4489 60.8414 51.1811 60.7367 50.7505C60.632 50.3198 60.8996 49.8891 61.3302 49.7843C62.3194 49.5515 63.2854 49.732 64.0419 50.3023C64.81 50.8843 65.3104 51.833 65.3453 52.7816C65.386 53.7536 65.066 54.679 64.4375 55.389C63.6927 56.2329 62.6919 56.7043 61.6503 56.8207C63.6287 58.8926 64.2164 61.8259 63.3494 64.538C67.7718 60.6503 71.2865 55.6567 73.4918 49.8251C75.4586 44.6278 73.2067 40.903 70.2856 39.6459L70.2914 39.6284Z" fill="white"/>
</svg>
