<svg width="76" height="70" viewBox="0 0 76 70" fill="none" xmlns="http://www.w3.org/2000/svg">
<path d="M38.2144 29.4143C37.8303 29.4143 37.4986 29.1408 37.4288 28.7566C36.876 25.7826 34.8452 23.7398 33.1868 23.0996C32.7853 22.9425 32.5758 22.5001 32.7155 22.0927C32.8551 21.6853 33.2916 21.4642 33.7047 21.5864C34.9674 21.9647 36.4222 22.0462 38.2202 22.0462C40.0183 22.0462 41.473 21.9647 42.7357 21.5864C43.143 21.4642 43.5853 21.6853 43.7249 22.0927C43.8646 22.5001 43.6551 22.9425 43.2594 23.0996C41.601 23.7398 39.5644 25.7826 39.0174 28.7566C38.9476 29.1349 38.6159 29.4143 38.2318 29.4143H38.2144ZM36.5734 23.6118C37.1961 24.2927 37.7663 25.1075 38.2144 26.0387C38.6625 25.1017 39.2327 24.2869 39.8553 23.6118C38.8138 23.6583 37.6092 23.6583 36.5734 23.6118ZM70.9576 7.32739C67.3266 2.60154 62.1303 0 56.3346 0C45.7499 0 42.2527 10.0395 41.0948 16.5812C40.443 16.4299 39.6109 16.3368 38.2144 16.3368C36.8178 16.3368 35.9857 16.4357 35.334 16.5812C34.176 10.0337 30.6788 0 20.0942 0C14.2985 0 9.10215 2.60154 5.47112 7.32739C1.11854 12.9903 -0.510774 21.1208 1.3222 28.0291C1.4153 28.3842 1.73535 28.6228 2.09613 28.6228C2.11359 28.6228 2.13685 28.6228 2.1543 28.6228C2.53836 28.5937 2.84677 28.2969 2.89332 27.9128C4.39461 14.8992 9.73641 7.73479 17.947 7.73479C24.0045 7.73479 25.6571 14.6548 25.6978 18.4494C24.7261 18.8568 23.9929 19.5552 23.6554 20.4457C23.4866 20.8822 23.3819 21.47 23.4924 22.18C22.4566 21.8367 21.3045 21.6679 19.9254 21.47C17.2836 21.0975 13.67 20.5912 8.12456 18.4669C7.9209 18.3854 7.69394 18.397 7.49028 18.4902C7.29243 18.5833 7.14116 18.7579 7.07716 18.9674C6.33233 21.2547 7.03058 25.1657 9.78295 27.9011C11.0631 29.1757 13.5304 30.8635 17.5745 30.8635C18.8954 30.8635 20.4025 30.6598 22.0784 30.2233C15.4273 49.1034 16.9868 61.3661 26.722 66.6798C31.1502 69.0951 37.0739 69.2173 38.2202 69.2173C39.3666 69.2173 45.2902 69.0951 49.7185 66.6798C59.4536 61.3661 61.0073 49.1034 54.362 30.2233C56.0379 30.6598 57.545 30.8635 58.8659 30.8635C62.9159 30.8635 65.3773 29.1699 66.6575 27.9011C69.4098 25.1657 70.1081 21.2547 69.3633 18.9674C69.2934 18.7579 69.1422 18.5833 68.9443 18.4902C68.7465 18.397 68.5195 18.3854 68.31 18.4669C62.7587 20.5912 59.1452 21.1033 56.5092 21.47C55.1301 21.6621 53.978 21.8308 52.9422 22.18C53.0469 21.47 52.9422 20.888 52.7792 20.4457C52.4417 19.5552 51.7144 18.8568 50.7368 18.4494C50.7775 14.6548 52.4301 7.73479 58.4876 7.73479C66.6924 7.73479 72.04 14.8992 73.5413 27.9128C73.5878 28.2969 73.8962 28.5937 74.2803 28.6228C74.2977 28.6228 74.321 28.6228 74.3385 28.6228C74.6992 28.6228 75.0193 28.3783 75.1124 28.0291C76.9454 21.115 75.3219 12.9903 70.9635 7.32739H70.9576ZM2.18339 22.5234C2.14266 19.9975 2.53838 17.4367 3.30648 15.0214C3.76618 14.0495 5.01725 13.2056 6.3207 12.5363C4.50518 15.132 3.10279 18.4843 2.18339 22.5234ZM8.79954 9.67867L8.24095 9.91147C7.22845 10.3305 5.91336 10.8834 4.70884 11.5993C5.20345 10.6215 5.76207 9.68449 6.39052 8.80567C8.21768 7.69987 10.295 7.42633 12.0291 7.47289C10.8711 8.03743 9.79459 8.77075 8.79954 9.67867ZM17.947 6.14011C17.1439 6.14011 16.37 6.21577 15.6077 6.34381C14.2286 6.00043 11.4704 5.52901 8.61916 6.20413C8.84028 5.99461 9.06725 5.78509 9.30583 5.58139C11.3948 3.81211 13.6235 3.21265 15.8696 3.75391C17.5396 4.15549 19.0991 5.17399 20.4549 6.49513C19.6985 6.26815 18.8664 6.14011 17.9528 6.14011H17.947ZM16.242 2.19996C16.1082 2.16504 15.9743 2.15922 15.8405 2.13012C17.1323 1.79838 18.5463 1.6005 20.1 1.6005C22.6021 1.6005 24.6621 2.25234 26.3612 3.32322C25.6745 3.31158 24.9588 3.35232 24.115 3.492C23.6786 3.56184 23.3819 3.97506 23.4575 4.41157C23.5273 4.84807 23.9347 5.13906 24.3769 5.06922C26.0062 4.8015 27.0885 4.92373 28.6073 5.16817C29.4452 6.04699 30.1609 7.04221 30.7719 8.09563C29.6198 8.01997 28.5898 8.06071 27.9439 8.13637C27.5017 8.18875 27.1933 8.59033 27.2456 9.02683C27.298 9.46333 27.7054 9.77761 28.136 9.72523C28.747 9.64957 30.1202 9.58555 31.6448 9.78343C32.1976 10.9882 32.634 12.2278 32.9773 13.4384C31.6855 13.4035 30.0853 13.4733 29.2415 13.6246C28.8051 13.7061 28.52 14.1193 28.5956 14.5558C28.6655 14.94 29.003 15.2135 29.3812 15.2135C29.4278 15.2135 29.4743 15.2135 29.5267 15.2019C30.3646 15.0447 32.1801 14.9923 33.3963 15.0564C33.5592 15.7606 33.6872 16.4241 33.792 17.0701C33.1577 17.2912 32.3663 17.5357 30.8883 17.7685C30.3588 17.8558 29.6547 17.8907 28.9739 17.9314C28.3978 17.9664 27.8217 18.0013 27.2922 18.0653C27.2282 16.1971 26.7801 13.7876 25.82 11.5993C24.2256 7.97341 20.8274 3.29995 16.242 2.19414V2.19996ZM23.8416 31.2302C23.8707 31.2593 23.8997 31.2884 23.9347 31.3116C24.5631 31.8238 25.3429 32.01 26.0237 32.01C26.175 32.01 26.3204 31.9984 26.4601 31.9809C26.8965 32.7783 27.6937 34.1343 29.3521 34.1343C30.0155 34.1343 31.1967 33.9074 32.2151 32.5455C33.792 33.5931 33.3381 37.1898 32.89 39.4189C32.2849 42.3987 31.0396 44.3193 30.1784 45.786C30.1202 45.8849 30.0678 45.978 30.0096 46.077C29.2415 43.1612 27.8508 41.357 26.5939 39.7332C25.5465 38.3829 24.6446 37.2131 24.1733 35.5661C23.7834 34.21 23.7136 32.7201 23.8474 31.236L23.8416 31.2302ZM27.9207 31.3291C28.1069 31.1719 28.264 31.0032 28.3978 30.8577C28.7702 30.4561 28.8983 30.3571 29.2707 30.3921C29.7886 30.4386 29.9806 30.6307 30.4635 31.1894C30.5916 31.3349 30.7254 31.4921 30.8767 31.655C30.4286 32.2312 29.9049 32.5338 29.3463 32.5338C28.6946 32.5338 28.328 32.045 27.9207 31.3291ZM32.3489 30.846C32.087 30.6074 31.8775 30.3746 31.6797 30.1418C31.1502 29.5307 30.609 28.8963 29.4103 28.7974C28.2174 28.6984 27.653 29.3212 27.234 29.7693C27.0129 30.0079 26.8209 30.2175 26.5416 30.3339C26.3088 30.4328 25.4767 30.5026 24.953 30.072C24.3187 29.554 24.342 28.4715 24.5457 27.6276C24.8017 26.5858 25.209 25.6138 25.6047 24.7408C31.6564 24.9154 33.1926 28.1688 33.5068 31.5153C33.1926 31.236 32.8144 31.0032 32.3547 30.846H32.3489ZM10.906 26.7662C9.17781 25.0493 8.36896 22.698 8.38642 20.8589C10.8187 22.989 13.5595 24.0774 16.0209 25.0493C18.4939 26.0271 20.6702 26.8942 22.0726 28.5879C16.0965 30.2757 12.7157 28.5646 10.906 26.7662ZM16.6144 23.5652C15.0782 22.9541 13.5129 22.3372 12.0116 21.4758C15.3284 22.4419 17.7666 22.7853 19.7043 23.0589C21.6827 23.3382 22.9804 23.5186 24.0918 24.1996C23.7717 24.9213 23.3528 25.9747 22.9862 27.2318C21.3394 25.4567 19.0351 24.5255 16.6144 23.5652ZM27.4842 65.2772C19.1922 60.755 17.464 50.442 22.317 34.5941C22.3868 35.0655 22.4915 35.537 22.6196 36.0026C23.1724 37.9406 24.214 39.285 25.3137 40.7051C25.3661 40.775 25.4243 40.8448 25.4767 40.9146C22.7185 53.5673 25.5349 62.4137 33.856 67.2676C31.8426 66.9592 29.486 66.3713 27.4784 65.2772H27.4842ZM26.7569 42.6781C27.7694 44.232 28.6189 46.1235 28.8982 49.0219C28.9157 52.1531 30.2424 54.8419 32.1627 55.7033C32.1394 55.8371 32.1161 55.9652 32.1161 56.1107C32.1161 56.9022 32.5293 57.6646 33.1926 58.1128C34.2051 58.7879 36.7771 58.8926 38.2202 58.8926C39.6633 58.8926 42.2353 58.7937 43.2478 58.1128C43.9111 57.6646 44.3243 56.9022 44.3243 56.1107C44.3243 55.971 44.3068 55.8371 44.2777 55.7033C46.198 54.8419 47.5189 52.1531 47.5363 49.0219C47.8157 46.1235 48.6652 44.2379 49.6777 42.6781C52.1042 55.5461 48.351 63.7 38.2202 67.5528C28.0894 63.7 24.3362 55.5461 26.7627 42.6781H26.7569ZM38.2144 54.8186C38.8661 54.8186 39.5993 55.0805 40.379 55.3657C41.1413 55.6393 41.9152 55.907 42.695 55.9652C42.7124 56.0117 42.7183 56.0641 42.7183 56.1165C42.7183 56.3144 42.6252 56.6054 42.3517 56.7858C41.9211 57.0768 40.1405 57.2921 38.2202 57.2921C36.3 57.2921 34.5193 57.071 34.0887 56.7858C33.8211 56.6054 33.7221 56.3144 33.7221 56.1165C33.7221 56.0699 33.728 56.0176 33.7454 55.9652C34.5252 55.9128 35.2991 55.6393 36.0614 55.3657C36.8353 55.0864 37.5685 54.8186 38.226 54.8186H38.2144ZM36.4512 49.8716C36.1312 49.8716 35.7995 49.9415 35.4562 50.087C34.7696 50.3721 34.1527 50.023 34.1527 49.3478C34.1527 49.2896 34.1528 49.2489 34.1586 49.214C34.3739 49.2023 34.8452 49.278 35.3457 49.3653C36.1196 49.505 37.0797 49.6796 38.2144 49.6796C39.3491 49.6796 40.3092 49.505 41.0831 49.3653C41.5836 49.2722 42.0549 49.1965 42.2702 49.214C42.2702 49.2489 42.276 49.2896 42.276 49.3478C42.276 50.023 41.6592 50.3663 40.9726 50.087C39.8379 49.6155 38.837 49.9415 38.2086 50.9018C37.7722 50.2325 37.1728 49.8716 36.4454 49.8716H36.4512ZM51.4874 30.072C50.9637 30.5026 50.1258 30.4328 49.8988 30.3339C49.6195 30.2116 49.4275 30.0079 49.2064 29.7693C48.7932 29.3212 48.223 28.6984 47.0301 28.7974C45.8314 28.9021 45.2844 29.5307 44.7607 30.1418C44.5629 30.3746 44.3534 30.6132 44.0915 30.846C43.626 31.0032 43.2536 31.236 42.9394 31.5153C43.2536 28.1746 44.7898 24.9154 50.8415 24.7408C51.2372 25.6138 51.6445 26.5858 51.9006 27.6276C52.1042 28.4715 52.1275 29.554 51.4933 30.072H51.4874ZM48.5081 31.3291C48.1066 32.045 47.7342 32.5338 47.0825 32.5338C46.5239 32.5338 46.0002 32.2312 45.5521 31.655C45.7092 31.4921 45.8431 31.3349 45.9653 31.1894C46.4424 30.6307 46.6344 30.4386 47.1581 30.3921C47.5305 30.3571 47.6586 30.4619 48.031 30.8577C48.1648 31.0032 48.3219 31.1719 48.5081 31.3291ZM43.5504 39.4189C43.0965 37.1957 42.6426 33.5931 44.2196 32.5455C45.2321 33.9074 46.4191 34.1343 47.0825 34.1343C48.7409 34.1343 49.5381 32.7783 49.9745 31.9809C50.1141 31.9984 50.2538 32.01 50.4109 32.01C51.0917 32.01 51.8715 31.8238 52.4999 31.3116C52.529 31.2884 52.5581 31.2593 52.593 31.2302C52.7269 32.7201 52.657 34.2042 52.2672 35.5602C51.7958 37.2073 50.8939 38.3713 49.8465 39.7274C48.5838 41.357 47.1989 43.1612 46.4308 46.0712C46.3726 45.9722 46.3202 45.8791 46.262 45.7802C45.4066 44.3135 44.1555 42.3987 43.5504 39.4131V39.4189ZM48.9446 65.2772C46.9428 66.3713 44.5803 66.9533 42.567 67.2676C50.8881 62.4137 53.7045 53.5673 50.9463 40.9146C50.9986 40.8448 51.051 40.775 51.1092 40.7051C52.209 39.285 53.2448 37.9406 53.8034 36.0026C53.9372 35.537 54.0361 35.0655 54.106 34.5941C58.959 50.442 57.2308 60.755 48.9446 65.2772ZM65.5228 26.7662C63.7131 28.5646 60.3322 30.2757 54.3562 28.5879C55.7585 26.8942 57.9348 26.0329 60.4079 25.0493C62.8693 24.0774 65.6101 22.989 68.0424 20.8589C68.0598 22.6922 67.251 25.0435 65.5228 26.7662ZM56.7303 23.0589C58.6622 22.7853 61.1062 22.4419 64.423 21.4758C62.9217 22.3372 61.3564 22.9541 59.8202 23.5652C57.3937 24.5255 55.0952 25.4567 53.4484 27.2318C53.0818 25.9747 52.6628 24.9271 52.3428 24.1996C53.4542 23.5186 54.7519 23.3382 56.7303 23.0589ZM51.2779 21.016C51.5049 21.6097 51.3536 22.343 50.8765 23.1345C41.2635 23.3615 41.2577 30.7122 41.2577 33.1508C41.2577 40.4083 43.4398 44.1273 44.8771 46.595C45.4648 47.6018 45.9303 48.3933 45.9303 48.9637C45.9303 51.8563 44.6734 53.8758 43.4864 54.3007C42.8114 54.5451 41.892 54.2134 40.9202 53.8583C40.3208 53.643 39.7099 53.4335 39.0872 53.3113C39.2385 52.2171 39.5818 51.4721 39.9833 51.4721C40.0881 51.4721 40.2219 51.5012 40.3674 51.5653C40.7282 51.7166 41.0948 51.7864 41.4672 51.7864C42.8463 51.7864 43.8879 50.7388 43.8879 49.342C43.8879 48.242 43.2827 47.6076 42.2236 47.6076C41.8163 47.6076 41.3508 47.6891 40.8096 47.7881C40.0997 47.9161 39.2152 48.0732 38.226 48.0732C37.2368 48.0732 36.3523 47.9103 35.6424 47.7881C35.1012 47.6891 34.6357 47.6076 34.2284 47.6076C33.1693 47.6076 32.5642 48.2362 32.5642 49.342C32.5642 50.733 33.6058 51.7864 34.9849 51.7864C35.3514 51.7864 35.7239 51.7108 36.0846 51.5653C36.2301 51.5012 36.364 51.4721 36.4687 51.4721C36.8644 51.4721 37.2077 52.2171 37.359 53.3113C36.7364 53.4277 36.1196 53.643 35.526 53.8583C34.5543 54.2134 33.6349 54.5393 32.954 54.3007C31.7728 53.8758 30.5101 51.8621 30.5101 48.9637C30.5101 48.3933 30.9756 47.6018 31.5633 46.595C33.0064 44.1331 35.1885 40.4083 35.1885 33.1508C35.1885 30.7122 35.1827 23.3673 25.5698 23.1345C25.0926 22.343 24.9413 21.6097 25.1683 21.016C25.3952 20.4166 25.9946 19.9626 26.815 19.7647C27.3737 19.6309 28.2407 19.5843 29.0845 19.5378C29.8002 19.497 30.545 19.4563 31.156 19.3573C33.0413 19.0547 33.9433 18.7288 34.6706 18.4669C35.5551 18.1468 36.137 17.9373 38.2318 17.9373C40.3267 17.9373 40.9086 18.1468 41.793 18.4669C42.5204 18.7288 43.4224 19.0547 45.3077 19.3573C45.9187 19.4563 46.6635 19.497 47.3793 19.5378C48.2172 19.5843 49.0842 19.6367 49.6428 19.7647C50.4633 19.9568 51.0626 20.4166 51.2896 21.016H51.2779ZM50.5971 11.6051C49.6428 13.7818 49.2064 16.1971 49.1366 18.0653C48.607 18.0013 48.0252 17.9664 47.4491 17.9314C46.7683 17.8907 46.07 17.85 45.5346 17.7685C44.0566 17.5357 43.2652 17.2912 42.631 17.0701C42.7415 16.4299 42.8637 15.7606 43.0266 15.0564C44.2428 14.9865 46.0583 15.0447 46.8963 15.2019C46.9428 15.2077 46.9952 15.2135 47.0417 15.2135C47.42 15.2135 47.7575 14.9458 47.8273 14.5558C47.9088 14.1193 47.6178 13.7061 47.1814 13.6246C46.3318 13.4675 44.7374 13.3977 43.4456 13.4384C43.789 12.2278 44.2312 10.9882 44.7782 9.78343C46.3027 9.59137 47.676 9.64957 48.287 9.72523C48.7234 9.77761 49.1249 9.46915 49.1773 9.02683C49.2297 8.59033 48.9213 8.18875 48.479 8.13637C47.8331 8.05489 46.8032 8.01997 45.6452 8.09563C46.2562 7.04221 46.9719 6.04699 47.8099 5.16817C49.3286 4.92373 50.4109 4.8015 52.0402 5.06922C52.4767 5.13906 52.8898 4.84807 52.9596 4.41157C53.0294 3.97506 52.7385 3.56184 52.3021 3.492C51.4583 3.35232 50.7484 3.31158 50.0618 3.32322C51.7609 2.25234 53.8208 1.6005 56.323 1.6005C57.8708 1.6005 59.2732 1.79838 60.565 2.1243C60.437 2.14758 60.309 2.16504 60.181 2.19996C55.6014 3.30576 52.1857 7.97341 50.5913 11.6109L50.5971 11.6051ZM58.4876 6.14011C57.5682 6.14011 56.7361 6.26815 55.9797 6.49513C57.3355 5.17399 58.9008 4.15549 60.5708 3.75391C62.8111 3.21265 65.0398 3.8121 67.1346 5.59303C67.3673 5.79091 67.5943 5.99461 67.8096 6.19831C64.9583 5.52901 62.206 6.00043 60.8269 6.33799C60.0704 6.21577 59.2965 6.13429 58.4876 6.13429V6.14011ZM67.6409 9.67867C66.6458 8.77075 65.5635 8.03743 64.4055 7.47289C66.1338 7.43215 68.2169 7.69987 70.0441 8.80567C70.6842 9.69031 71.2602 10.6273 71.7607 11.6167C70.5503 10.8892 69.2178 10.3363 68.1936 9.91147L67.6409 9.67867ZM70.1255 12.5421C71.4872 13.2463 72.7848 14.131 73.1805 15.1611C73.9195 17.5415 74.2861 20.0499 74.2454 22.5234C73.326 18.4902 71.9294 15.1437 70.1197 12.5421H70.1255Z" fill="white"/>
</svg>
