<svg width="78" height="68" viewBox="0 0 78 68" fill="none" xmlns="http://www.w3.org/2000/svg">
<path d="M77.354 47.5567L65.5182 20.971C66.7868 20.5112 67.7003 19.3064 67.6945 17.8864C67.6945 16.0763 66.2165 14.6097 64.4068 14.6097C62.5971 14.6097 61.1307 16.088 61.1307 17.898C61.1307 18.026 61.154 18.1482 61.1715 18.2705C60.1241 17.5139 59.0301 16.4954 57.8954 15.4478C53.9094 11.7521 48.9749 7.18335 42.2307 9.83146C41.9107 9.51717 41.5499 9.24363 41.1543 9.02247L42.7253 6.85744C42.9115 6.60136 42.929 6.25216 42.7661 5.97862L39.4144 0.362295C39.1234 -0.120765 38.3263 -0.120765 38.0411 0.362295L34.7185 5.99027C34.5556 6.26381 34.573 6.61301 34.7592 6.86909L36.3361 9.02247C35.9404 9.24363 35.5855 9.51718 35.2655 9.83728C28.5097 7.21828 23.5985 11.8103 19.6299 15.5234C18.5069 16.5769 17.4129 17.6012 16.3655 18.3636C16.3771 18.2414 16.4004 18.1192 16.4004 17.9911C16.4004 16.1811 14.9224 14.7144 13.1127 14.7144C11.303 14.7144 9.83662 16.1927 9.83662 18.0027C9.83662 19.4228 10.756 20.6276 12.0304 21.0757L0.316814 47.7139C0.200435 47.9874 0.23535 48.3075 0.427375 48.5403C3.56379 52.4164 8.21897 54.6339 13.2 54.6222C18.1868 54.6106 22.8304 52.3757 25.9493 48.4821C26.1355 48.2493 26.1763 47.9292 26.0541 47.6615L14.3929 21.163C18.0123 20.8837 21.009 19.19 23.6741 17.6652C27.5844 15.4245 30.6802 13.661 34.7185 16.1985C34.9804 16.571 35.2888 16.9086 35.6437 17.1938L34.8814 52.1138C34.0842 52.5736 33.5431 53.4233 33.5431 54.4127C33.5431 55.3322 34.0202 56.1412 34.7359 56.6185C34.0726 60.5994 30.0168 61.8157 26.0948 62.4618C25.8038 62.5083 25.5653 62.712 25.4722 62.9856C25.0707 64.1321 23.8952 65.6802 22.9118 66.367C22.6267 66.5649 22.4987 66.9315 22.6034 67.2633C22.7082 67.595 23.0224 67.822 23.3716 67.822L54.3866 67.7522C54.7357 67.7522 55.0441 67.5252 55.1489 67.1876C55.2536 66.85 55.1256 66.4892 54.8405 66.2913C53.8512 65.6104 52.6699 64.0681 52.2626 62.9216C52.1637 62.648 51.9251 62.4443 51.6342 62.3977C47.7122 61.7692 43.6506 60.5761 42.9698 56.5952C43.6855 56.1179 44.151 55.3032 44.151 54.3836C44.151 53.4 43.5982 52.5503 42.801 52.0963L41.8816 17.1821C42.2366 16.8969 42.5391 16.5594 42.801 16.1869C46.8335 13.6319 49.9351 15.3837 53.8513 17.607C56.5222 19.1202 59.5305 20.8022 63.1499 21.0641L51.6051 47.6149C51.4887 47.8885 51.5236 48.2028 51.7157 48.4356C54.8521 52.3117 59.5072 54.5291 64.4941 54.5175C69.4751 54.5058 74.1245 52.2709 77.2376 48.3773C77.4238 48.1445 77.4645 47.8244 77.3481 47.5509L77.354 47.5567ZM12.3446 24.3756L12.397 47.225L2.28945 47.2483L12.3504 24.3756H12.3446ZM13.2116 53.0333C9.30709 53.0392 5.62371 51.5318 2.87134 48.8488L23.5403 48.8022C20.7995 51.5027 17.122 53.0275 13.2174 53.0333H13.2116ZM24.1105 47.2017L13.9972 47.225L13.9448 24.1137L24.1105 47.2017ZM13.9332 19.4752V19.0969C13.9332 18.6546 13.5724 18.2996 13.1302 18.2996C12.6879 18.2996 12.333 18.6604 12.333 19.1027V19.481C11.8093 19.1959 11.4543 18.6488 11.4485 18.0144C11.4485 17.089 12.1991 16.3324 13.1243 16.3324C14.0496 16.3324 14.806 17.0832 14.806 18.0086C14.806 18.6429 14.4511 19.1959 13.9274 19.481L13.9332 19.4752ZM38.7394 2.34694L41.131 6.3511L39.589 8.47538C39.3155 8.42882 39.042 8.39972 38.7568 8.39972C38.4717 8.39972 38.1982 8.42882 37.9247 8.47538L36.3711 6.35693L38.7452 2.34111L38.7394 2.34694ZM38.7568 10.0002C40.6073 10.0002 42.1144 11.496 42.1202 13.3467C42.126 15.1975 40.6247 16.7049 38.7743 16.7107C36.9239 16.7165 35.4168 15.215 35.4109 13.3642C35.4051 11.5134 36.9064 10.006 38.7568 10.0002ZM41.2008 51.753H39.653L39.5773 18.2355C39.8276 18.1948 40.0778 18.1366 40.3164 18.061L41.2008 51.7588V51.753ZM37.9771 18.2414L38.0528 51.7646H36.5049L37.2381 18.0668C37.4767 18.1424 37.7211 18.2006 37.9771 18.2414ZM22.8944 16.2916C21.6084 17.025 20.2991 17.7641 18.92 18.3694C19.5078 17.8514 20.1129 17.2869 20.7355 16.7049C24.4713 13.2129 28.6842 9.28437 34.317 11.2108C34.0028 11.8626 33.8166 12.5901 33.8166 13.3642C33.8166 13.5679 33.834 13.7716 33.8573 13.9695C29.7665 12.3573 26.281 14.3536 22.8944 16.2916ZM52.3907 66.1633L25.3732 66.2215C25.9377 65.5464 26.4381 64.7781 26.7698 64.0564L50.9825 64.0041C51.32 64.7258 51.8204 65.4882 52.3907 66.1633ZM45.7978 62.4152L31.9545 62.4443C33.9679 61.4433 35.7717 59.8137 36.2896 57.0666L41.4394 57.055C41.9689 59.802 43.7844 61.42 45.7978 62.4094V62.4152ZM42.5566 54.4069C42.5566 54.9831 42.0853 55.4603 41.5092 55.4603L36.2081 55.4719C35.6262 55.4719 35.1549 55.0005 35.1549 54.4243C35.1549 53.8482 35.6262 53.3709 36.2023 53.3709L41.5034 53.3593C42.0795 53.3593 42.5566 53.8249 42.5566 54.4069ZM54.6542 16.2218C51.2618 14.2954 47.7646 12.3224 43.6855 13.952C43.7088 13.7541 43.7204 13.5504 43.7204 13.3467C43.7204 12.5727 43.5284 11.8452 43.2142 11.1991C48.8353 9.24944 53.0657 13.1547 56.8189 16.6292C57.4474 17.2112 58.0467 17.77 58.6402 18.2879C57.2553 17.6943 55.946 16.961 54.6542 16.2276V16.2218ZM62.7367 17.898C62.7367 16.9726 63.4874 16.216 64.4126 16.216C65.3378 16.216 66.0943 16.9668 66.0943 17.8921C66.0943 18.5265 65.7393 19.0794 65.2156 19.3646V18.9863C65.2156 18.544 64.8548 18.189 64.4126 18.189C63.9704 18.189 63.6154 18.5498 63.6154 18.9921V19.3705C63.0917 19.0853 62.7367 18.5382 62.7309 17.9038L62.7367 17.898ZM63.6329 23.9974L63.6852 47.1086L53.5719 47.1319L63.6329 23.9974ZM64.4999 52.9228C60.5954 52.9286 56.912 51.4212 54.1538 48.7382L74.8227 48.6916C72.082 51.3921 68.4044 52.9169 64.4999 52.9228ZM65.2854 47.1086L65.2331 24.2592L75.393 47.0853L65.2854 47.1086Z" fill="white"/>
</svg>
