<svg width="78" height="84" viewBox="0 0 78 84" fill="none" xmlns="http://www.w3.org/2000/svg">
<path d="M46.2912 33.5989C45.2496 36.9047 42.119 39.1337 38.4938 39.1395L24.3828 39.1686C23.9406 39.1686 23.5798 38.8136 23.5798 38.3713C23.5798 37.929 23.9348 37.5681 24.377 37.5681L28.9682 37.5565C30.0738 37.5565 31.0281 36.8872 31.3365 35.8978C31.6216 34.9841 31.1328 34.0121 30.2483 33.7327C29.9516 33.6396 29.6373 33.6687 29.3522 33.8084C29.0613 33.9597 28.846 34.2216 28.747 34.5417C28.6772 34.7629 28.7005 35.0073 28.8169 35.211C29.038 35.5952 28.9042 36.084 28.5201 36.3052C28.136 36.5264 27.6473 36.3925 27.4261 36.0084C27.0886 35.4206 27.013 34.7105 27.2167 34.0645C27.4436 33.337 27.944 32.7433 28.6132 32.3941C29.2766 32.0508 30.0272 31.9868 30.7313 32.2079C32.4595 32.755 33.4139 34.629 32.8611 36.3809C32.7272 36.8115 32.5177 37.2015 32.2559 37.5507L38.4821 37.539C41.4033 37.5332 43.9229 35.7523 44.755 33.1158C45.5638 30.5434 44.1789 27.8022 41.6593 26.999C40.7399 26.708 39.7565 26.7953 38.8895 27.2434C37.9992 27.7032 37.3416 28.4947 37.0332 29.4609C36.5619 30.9566 37.3707 32.5513 38.8255 33.0169C39.3434 33.1799 39.8903 33.1275 40.3733 32.8772C40.8737 32.6153 41.2462 32.173 41.4149 31.6259C41.5488 31.201 41.9968 30.9683 42.4158 31.1021C42.8405 31.236 43.0733 31.6841 42.9395 32.1031C42.6369 33.0576 41.991 33.8375 41.1065 34.2915C40.2453 34.7396 39.2561 34.8269 38.3308 34.5359C36.0324 33.8026 34.758 31.3116 35.4912 28.9778C35.9277 27.5985 36.8645 26.4752 38.133 25.8175C39.3783 25.1715 40.7923 25.0493 42.1248 25.4683C45.4765 26.5334 47.3328 30.1767 46.2621 33.5872L46.2912 33.5989ZM46.3319 50.3722C45.2729 47.0722 42.1307 44.8606 38.5113 44.8664L24.4003 44.8955C23.9581 44.8955 23.6031 45.2564 23.6031 45.6987C23.6031 46.141 23.9639 46.5019 24.4061 46.496L28.9973 46.4844C30.1029 46.4844 31.0572 47.142 31.3772 48.1315C31.6682 49.0394 31.1852 50.0171 30.2949 50.3023C29.9981 50.4012 29.6839 50.3722 29.3988 50.2267C29.1078 50.0753 28.8925 49.8193 28.7878 49.4992C28.718 49.2722 28.7412 49.0277 28.8576 48.8298C29.0729 48.4457 28.9391 47.9568 28.555 47.7357C28.171 47.5203 27.6822 47.6542 27.461 48.0383C27.1294 48.6261 27.0537 49.3362 27.2632 49.9822C27.496 50.7097 27.9964 51.2975 28.6656 51.6467C29.3289 51.9901 30.0796 52.0483 30.7837 51.8213C32.5061 51.2626 33.4546 49.3886 32.896 47.6367C32.7563 47.2061 32.5468 46.8161 32.285 46.4669L38.5113 46.4553C41.4324 46.4495 43.9578 48.2129 44.8016 50.8494C45.622 53.416 44.2487 56.1689 41.735 56.9779C40.8156 57.2747 39.8322 57.1932 38.9651 56.7451C38.0748 56.2853 37.4115 55.4996 37.1031 54.5335C36.6259 53.0377 37.4231 51.443 38.8837 50.9716C39.3957 50.8087 39.9486 50.8494 40.4373 51.0997C40.9378 51.3557 41.3102 51.7981 41.4847 52.3451C41.6186 52.7642 42.0725 53.0028 42.4914 52.8631C42.9104 52.7293 43.1431 52.2753 43.0093 51.8563C42.7067 50.9018 42.0492 50.1277 41.1705 49.6737C40.3035 49.2256 39.3201 49.1441 38.3949 49.4409C36.1022 50.1859 34.8395 52.6827 35.5843 55.0165C36.0266 56.39 36.9692 57.5075 38.2436 58.1651C39.4888 58.8053 40.9087 58.9217 42.2354 58.4969C45.5871 57.4144 47.4259 53.7652 46.3377 50.3605L46.3319 50.3722ZM63.1894 33.8783C63.6142 33.756 63.8586 33.3079 63.7364 32.883C62.916 30.0662 61.7173 27.4471 60.0647 24.8805C59.8261 24.508 59.3315 24.3975 58.9591 24.6419C58.5866 24.8805 58.4819 25.3752 58.7205 25.7477C60.2858 28.1805 61.4263 30.6656 62.2002 33.3312C62.2991 33.6804 62.625 33.9074 62.9683 33.9074C63.044 33.9074 63.1138 33.8957 63.1894 33.8783ZM60.1403 59.0265C61.7813 56.4541 62.9683 53.8292 63.7772 51.0065C63.8994 50.5817 63.655 50.1394 63.2302 50.0171C62.8054 49.8949 62.3632 50.1393 62.241 50.5642C61.4787 53.2356 60.3498 55.7207 58.7961 58.1651C58.5576 58.5376 58.6681 59.0323 59.0405 59.2709C59.1744 59.3582 59.3257 59.399 59.4711 59.399C59.733 59.399 59.9949 59.2651 60.1461 59.0265H60.1403ZM9.32919 31.8703L13.1988 27.9069C13.5072 27.5868 13.5014 27.0805 13.1872 26.772C12.8729 26.4636 12.3667 26.4694 12.0525 26.7837L8.18284 30.7471C7.87443 31.0672 7.88026 31.5677 8.19449 31.882C8.3516 32.0333 8.55527 32.109 8.75312 32.109C8.95096 32.109 9.16625 32.0275 9.32337 31.8645L9.32919 31.8703ZM13.2512 57.3445C13.5654 57.0361 13.5712 56.5297 13.257 56.2096L9.36993 52.2637C9.06152 51.9494 8.55527 51.9436 8.24105 52.2578C7.92682 52.5663 7.921 53.0726 8.23522 53.3927L12.1223 57.3387C12.2794 57.4958 12.4889 57.5773 12.6925 57.5773C12.8962 57.5773 13.0999 57.5017 13.2512 57.3503V57.3445ZM77.4633 41.9157C77.4633 42.2649 77.2364 42.5733 76.9047 42.6839L68.4323 45.3495C68.3567 45.3728 68.2752 45.3844 68.1937 45.3844C67.9493 45.3844 67.7166 45.2738 67.5653 45.0759C66.5645 43.8072 65.1388 42.9807 63.5386 42.7479H60.955C60.6756 54.6208 53.7744 61.2323 48.194 66.5576C44.7084 69.8808 41.6069 72.8374 40.5653 76.4341C41.1298 76.4109 41.7117 76.5331 42.2354 76.8183C43.3526 77.4294 44.0276 78.6166 44.0276 79.9844C44.0276 82.2251 42.2063 83.9827 39.8729 83.9885C38.2436 83.9885 35.1537 82.7954 35.1421 78.25C35.1421 77.5749 35.2061 76.923 35.3225 76.2828L9.1488 48.1838L1.70055 48.2013C1.36887 48.2013 1.07208 47.9976 0.955704 47.695C0.833506 47.3865 0.914987 47.0373 1.15356 46.8161L4.74967 43.4638L3.96409 42.6199C3.67897 42.3114 3.67897 41.84 3.96409 41.5316L4.74385 40.6877L1.13027 37.347C0.885869 37.1258 0.810237 36.7766 0.926616 36.4682C1.04881 36.1597 1.33974 35.9618 1.67142 35.956L9.11972 35.9385L35.1654 7.72314C35.049 7.08294 34.9792 6.4311 34.9792 5.7618C34.9675 1.21056 38.0515 0 39.6809 0C42.0143 0 43.8531 1.746 43.8531 3.9867C43.8531 5.36022 43.1897 6.54751 42.0725 7.16443C41.5488 7.45543 40.9727 7.58346 40.4082 7.56018C41.4673 11.1453 44.5804 14.0902 48.0776 17.4018C53.6871 22.7038 60.6175 29.2863 60.9492 41.1533H63.5386C65.133 40.903 66.5586 40.0707 67.5478 38.7962C67.7515 38.5343 68.1006 38.4237 68.4149 38.5284L76.8989 41.1533C77.2306 41.258 77.4633 41.5665 77.4633 41.9157ZM56.9399 30.7936L53.8616 32.0508C54.0246 32.4698 54.1759 32.8947 54.3214 33.3312L57.58 32.2777C57.3763 31.7714 57.1668 31.2767 56.9341 30.7936H56.9399ZM38.5753 6.6348C38.5636 6.59988 38.552 6.46021 38.5462 6.43111L36.9111 8.2062C37.8654 11.7331 40.7574 14.8003 44.016 18.2457C47.3386 21.7668 50.9289 25.5789 53.239 30.5783L56.2067 29.3677C53.7569 24.9736 50.2481 21.6562 46.9837 18.5716C43.0501 14.8526 39.3201 11.3199 38.5753 6.64062V6.6348ZM36.5794 5.76762C36.5794 5.9073 36.591 6.04116 36.5968 6.18084C36.5968 6.18084 38.3076 4.34172 38.872 3.71898C39.2095 3.3465 39.6809 3.13698 40.1464 3.13698C40.6119 3.13698 40.9494 3.492 40.9494 3.93432C40.9494 4.37664 40.5944 4.73748 40.1522 4.73748C40.1173 4.73748 40.03 4.73748 40.03 4.94701C40.03 5.26711 40.0474 5.58138 40.0824 5.89566C40.4722 6.0237 40.9087 5.98878 41.3044 5.76762C41.9095 5.43006 42.2586 4.78404 42.2586 3.99834C42.2586 2.4444 40.9319 1.60632 39.6867 1.61214C39.3666 1.61214 36.5736 1.73436 36.5794 5.77345V5.76762ZM11.3018 35.9444L16.341 35.9327C16.5447 35.9327 16.7367 36.0084 16.888 36.1422L22.4044 41.2347L54.077 41.1649C53.7628 30.9159 47.9845 24.7699 42.8522 19.3399C39.8321 16.1447 36.9401 13.0834 35.6658 9.55062L11.3018 35.9385V35.9444ZM20.0477 41.2464L16.0326 37.539H13.4955L17.5106 41.2522H20.0477V41.2464ZM17.5165 42.8527L13.5188 46.5775H16.0559L20.0535 42.8469H17.5165V42.8527ZM8.60182 37.5507L12.6169 41.258H15.154L11.1389 37.5449H8.60182V37.5507ZM7.72898 41.2697H10.266L6.25098 37.5565H3.71388L7.72898 41.2697ZM7.01326 45.8966L5.83782 44.6336L3.73136 46.595H6.26841L7.01326 45.8966ZM10.2719 42.8643H7.7348L7.01326 43.5395L8.18866 44.8024L10.2719 42.8643ZM11.1564 46.5833L15.154 42.8585H12.6169L9.27102 45.9839L9.83544 46.5891H11.1564V46.5833ZM42.9511 64.6428C48.0543 59.1895 53.8093 53.0203 54.077 42.7712L22.4044 42.8411L16.9113 47.9568C16.7658 48.0965 16.568 48.1722 16.3701 48.1722L11.3309 48.1838L35.8113 74.4612C37.074 70.9226 39.9485 67.8438 42.9569 64.637L42.9511 64.6428ZM40.2395 78.1045C40.2104 78.4188 40.1871 78.733 40.1929 79.0531C40.1929 79.2627 40.2802 79.2627 40.3151 79.2627C40.7574 79.2627 41.1182 79.6177 41.1182 80.06C41.1182 80.5023 40.7632 80.8632 40.321 80.8632C39.8554 80.8632 39.3841 80.6595 39.0408 80.287C38.4763 79.6701 36.7539 77.8368 36.7539 77.8368C36.7481 77.9764 36.7365 78.1103 36.7365 78.25C36.7481 82.2832 39.5412 82.3938 39.8612 82.3938C41.1065 82.3938 42.4274 81.5499 42.4216 79.996C42.4216 79.2045 42.0666 78.5643 41.4614 78.2325C41.0658 78.0172 40.6294 77.9823 40.2395 78.1103V78.1045ZM56.2591 54.5626L53.2856 53.3636C50.9929 58.3747 47.4259 62.1984 44.1149 65.737C40.8737 69.1999 37.9934 72.2786 37.0565 75.8056L38.6974 77.569C38.6974 77.569 38.7149 77.4003 38.7207 77.3653C39.4481 72.6802 43.1606 69.13 47.0768 65.3936C50.3296 62.2973 53.8209 58.9625 56.2474 54.5567L56.2591 54.5626ZM57.6265 51.6467L54.3621 50.6049C54.2166 51.0415 54.0711 51.4721 53.9082 51.8912L56.9922 53.1308C57.2192 52.6478 57.4287 52.1531 57.6324 51.6467H57.6265ZM59.3547 42.7538H55.683C55.6248 45.0468 55.3222 47.1362 54.8218 49.0627L58.1677 50.1277C58.866 47.9336 59.2907 45.4892 59.3606 42.7479L59.3547 42.7538ZM59.349 41.1591C59.2675 38.4179 58.8369 35.9735 58.1211 33.7851L54.781 34.8676C55.2931 36.7941 55.6074 38.8835 55.6714 41.1707H59.3431L59.349 41.1591ZM73.9778 41.9215L68.4498 40.2104C68.1414 40.548 67.8097 40.8564 67.4548 41.1358H69.3517C69.794 41.1358 70.1547 41.485 70.1547 41.9273C70.1547 42.3696 69.7998 42.7305 69.3575 42.7305H67.4606C67.8155 43.0098 68.153 43.3183 68.4556 43.6559L73.972 41.9215H73.9778Z" fill="white"/>
</svg>
