<svg width="72" height="77" viewBox="0 0 72 77" fill="none" xmlns="http://www.w3.org/2000/svg">
<path d="M64.9903 10.7773C60.6552 4.7012 54.8363 0.877454 48.5984 0.0102735C48.4703 -0.00718656 48.3423 0.0102422 48.2085 0.0509822C43.5184 1.69222 38.5839 8.50165 36.8208 12.3312C36.6695 12.1392 36.4426 12.0227 36.1982 12.0227C35.9538 12.0227 35.721 12.1392 35.5755 12.3312C33.8124 8.50747 28.8779 1.69222 24.1878 0.0509822C24.054 0.00442219 23.926 -0.0130066 23.798 0.0102735C17.56 0.877454 11.7411 4.7012 7.40598 10.7773C1.66849 18.8205 -0.455448 29.3722 1.56955 39.7202C1.64519 40.1043 1.97686 40.3662 2.35509 40.3662C2.40746 40.3662 2.45985 40.3662 2.51222 40.3487C2.94864 40.2614 3.22796 39.8424 3.14067 39.4117C1.19714 29.4886 3.22796 19.3909 8.70942 11.7026C12.7187 6.08052 18.0488 2.51286 23.7398 1.63404C27.3126 3.9213 31.8165 11.8831 32.8232 15.0724C32.7533 15.1015 32.6951 15.1306 32.6195 15.1597C31.7117 15.3169 31.0426 16.3354 30.996 17.6915L30.8156 18.3898C30.1115 21.1543 29.5355 23.3659 28.0924 25.7172C25.6368 25.7929 23.3092 26.5029 21.3133 27.7251C21.4355 26.4622 21.1038 25.1353 20.2949 23.8141C21.9184 23.43 23.4314 22.621 24.6417 21.4279C26.5038 19.6004 27.3533 17.22 26.9809 14.9095C26.9285 14.601 26.7074 14.3508 26.4048 14.2635C26.1023 14.182 25.7822 14.2751 25.5786 14.5137C24.6184 15.637 23.6816 15.8989 22.7796 16.1433C22.6865 16.1666 22.5992 16.1957 22.5061 16.219C23.1346 13.891 23.7689 11.6852 26.4281 9.68312C26.6725 9.5027 26.7889 9.19422 26.7365 8.8974C26.6842 8.60058 26.4631 8.35613 26.1721 8.27465C20.6557 6.69161 15.5758 8.94979 13.5217 13.891C11.6887 18.3025 13.3704 21.8004 15.4361 23.3427C14.6622 24.4834 14.2956 25.9616 14.4353 27.5505C14.6215 29.733 15.698 31.543 17.3389 32.7827C18.6773 33.7896 20.3997 34.3832 22.2327 34.3832C23.3615 34.3832 24.5079 34.1621 25.5844 33.7488C25.4797 34.5345 25.4156 35.3086 25.404 36.0652C22.5993 35.2155 17.1876 34.9128 14.2956 37.6075C14.2549 37.6075 14.2142 37.59 14.1676 37.59C10.9555 37.59 6.91135 44.318 6.15489 50.9179C6.10834 51.302 6.35272 51.6686 6.72513 51.7792C6.80078 51.8025 6.87644 51.8142 6.95208 51.8142C7.24885 51.8142 7.53397 51.6454 7.6678 51.366C9.58806 47.4782 12.0844 44.8708 13.9057 42.9677C15.0986 41.7164 15.9424 40.8376 16.2217 40.017C18.5318 39.2895 23.1579 39.3011 25.7066 39.6852C25.7648 39.982 25.8113 40.2789 25.887 40.5699C23.1695 40.1334 18.2467 40.3953 16.0296 43.4159C13.0852 44.7603 10.6413 52.2273 10.6297 58.2336C10.6297 58.6293 10.9148 58.9669 11.3047 59.0252C11.3454 59.031 11.3861 59.0367 11.4269 59.0367C11.7702 59.0367 12.0844 58.8156 12.1891 58.478C13.5624 54.1189 15.5932 51.0459 17.0771 48.7994C18.0547 47.3211 18.7413 46.2793 18.8926 45.3947C20.9001 44.3703 24.9908 44.027 27.4523 44.1783C27.5628 44.3413 27.6617 44.5159 27.7781 44.673C24.6533 44.8767 21.1969 46.4365 19.3174 49.7772C19.1079 49.9227 18.8984 50.1089 18.6831 50.365C16.7803 52.6173 15.8609 58.5479 16.6697 63.3203C16.7338 63.7044 17.0654 63.9837 17.4611 63.9837C17.8626 63.9837 18.1943 63.6928 18.2525 63.3028C18.8344 59.4093 20.1669 56.4352 21.1445 54.2644C21.7788 52.8559 22.2268 51.8549 22.2501 51.0634C24.2285 49.3406 27.1846 48.13 29.5762 47.6819C29.3609 47.9496 29.1863 48.2639 29.0699 48.6015C28.8139 49.3523 28.8954 50.2078 29.2969 50.9528C29.4889 51.3136 29.7624 51.6279 30.0708 51.8898C29.6227 52.2507 29.2678 52.7337 29.0699 53.3099C28.8139 54.0606 28.8954 54.9162 29.2969 55.6612C29.4947 56.022 29.7624 56.3363 30.0708 56.5982C29.6227 56.959 29.2678 57.4421 29.0699 58.0182C28.8139 58.769 28.8954 59.6246 29.2969 60.3695C29.4889 60.7304 29.7624 61.0446 30.0708 61.3065C29.6227 61.6674 29.2678 62.1505 29.0699 62.7267C28.9186 63.1632 28.9012 63.6404 28.9768 64.106C28.5811 64.2282 28.1913 64.3737 27.8014 64.5657C26.498 65.2001 25.4214 66.1313 24.7639 67.1789C24.0365 68.3429 23.9027 69.536 24.3857 70.5254C24.8279 71.4392 25.7473 72.0445 26.9518 72.2482C27.1439 73.2143 27.6327 73.9767 28.3775 74.4307C28.843 74.7101 29.3667 74.8497 29.9253 74.8497C30.6992 74.8497 31.5372 74.582 32.346 74.0699C32.9745 75.6529 34.2895 76.5375 36.1923 76.5375C38.0951 76.5375 39.4102 75.6529 40.0387 74.0699C40.8475 74.582 41.6854 74.8497 42.4594 74.8497C43.018 74.8497 43.5417 74.7101 44.0072 74.4307C44.752 73.9767 45.2408 73.2201 45.4328 72.2482C46.6315 72.0445 47.5509 71.4392 47.999 70.5254C48.9475 68.5757 47.4462 65.9567 44.5833 64.5657C44.1992 64.3795 43.8093 64.234 43.4136 64.106C43.4893 63.6404 43.4718 63.1632 43.3206 62.7267C43.1227 62.1505 42.7678 61.6674 42.3139 61.3124C42.6281 61.0505 42.8958 60.7362 43.0936 60.3695C43.4951 59.6246 43.5766 58.769 43.3206 58.0182C43.1227 57.4421 42.7678 56.959 42.3139 56.604C42.6281 56.3421 42.8958 56.0278 43.0936 55.6612C43.4951 54.9162 43.5766 54.0607 43.3206 53.3157C43.1227 52.7395 42.7678 52.2564 42.3139 51.9014C42.6281 51.6395 42.8958 51.3252 43.0936 50.9586C43.4951 50.2136 43.5766 49.3581 43.3206 48.6073C43.2042 48.2639 43.0296 47.9496 42.8085 47.6819C45.2059 48.13 48.1561 49.3406 50.1404 51.0634C50.1695 51.8549 50.6117 52.8559 51.246 54.2644C52.2236 56.4352 53.5619 59.4093 54.138 63.3028C54.1962 63.6928 54.5279 63.9837 54.9294 63.9837C55.3192 63.9837 55.6509 63.7044 55.7207 63.3203C56.5296 58.5479 55.6044 52.6173 53.7074 50.365C53.4921 50.1089 53.2768 49.9227 53.0673 49.7772C51.1878 46.4365 47.7255 44.8767 44.6066 44.673C44.7229 44.5159 44.8219 44.3413 44.9324 44.1783C47.3938 44.027 51.4845 44.3645 53.4921 45.3947C53.6434 46.2793 54.33 47.3211 55.3076 48.7994C56.7914 51.0459 58.8223 54.1247 60.1955 58.478C60.3003 58.8156 60.6145 59.0367 60.9578 59.0367C60.9985 59.0367 61.0393 59.0368 61.08 59.0252C61.4699 58.9669 61.7608 58.6293 61.7608 58.2336C61.755 52.2273 59.3052 44.7603 56.3608 43.4159C54.1438 40.3953 49.221 40.1334 46.5035 40.5699C46.5792 40.2847 46.6257 39.982 46.6839 39.6852C49.2326 39.3011 53.8587 39.2895 56.1688 40.017C56.4481 40.8434 57.286 41.7222 58.4789 42.9677C60.3003 44.8708 62.7966 47.4782 64.7169 51.366C64.8565 51.6454 65.1358 51.8142 65.4326 51.8142C65.5082 51.8142 65.5839 51.8025 65.6595 51.7792C66.032 51.6686 66.2705 51.3078 66.2298 50.9179C65.4733 44.318 61.435 37.59 58.2229 37.59C58.1763 37.59 58.1356 37.6017 58.0949 37.6075C55.1971 34.9128 49.7912 35.2096 46.9865 36.0652C46.969 35.3086 46.9108 34.5404 46.8061 33.7488C47.8826 34.1621 49.0289 34.3832 50.1578 34.3832C51.985 34.3832 53.7132 33.7896 55.0516 32.7827C56.6925 31.5488 57.7632 29.733 57.9552 27.5505C58.0949 25.9616 57.7283 24.4834 56.9544 23.3427C59.0201 21.8004 60.7018 18.3025 58.8688 13.891C56.8147 8.94979 51.7289 6.69161 46.2184 8.27465C45.9274 8.35613 45.7063 8.60058 45.654 8.8974C45.6016 9.19422 45.718 9.5027 45.9623 9.68312C48.6274 11.6852 49.2559 13.8852 49.8844 16.219C49.7913 16.1957 49.7039 16.1666 49.6108 16.1433C48.7031 15.8931 47.7662 15.637 46.8119 14.5137C46.6083 14.2751 46.2882 14.1762 45.9856 14.2635C45.6831 14.3449 45.4619 14.601 45.4096 14.9095C45.0372 17.2258 45.8867 19.6004 47.7488 21.4279C48.9591 22.621 50.4721 23.4242 52.0897 23.8083C51.2867 25.1294 50.9492 26.4564 51.0714 27.7193C49.0755 26.4971 46.7537 25.7929 44.2981 25.7172C42.855 23.3601 42.279 21.1485 41.5749 18.3898L41.3945 17.6915C41.3537 16.3412 40.6846 15.3169 39.771 15.1597C39.6954 15.1306 39.6372 15.1015 39.5731 15.0724C40.5856 11.8831 45.0895 3.9213 48.6624 1.63404C54.3533 2.51286 59.6776 6.08052 63.6927 11.7026C69.1742 19.3909 71.205 29.4886 69.2615 39.4117C69.1742 39.8482 69.4593 40.2672 69.8899 40.3487C69.9423 40.3603 69.9946 40.3662 70.047 40.3662C70.4252 40.3662 70.757 40.0985 70.8326 39.7202C72.8576 29.3664 70.7278 18.8147 64.9903 10.7773ZM12.7536 41.8619C11.6713 42.991 10.2631 44.4693 8.86072 46.3666C10.3271 42.2228 12.7652 39.1905 14.1676 39.1905C14.3014 39.1905 14.4178 39.2197 14.5342 39.2895C14.668 39.371 14.7146 39.4233 14.7204 39.4233C14.7204 39.8016 13.6264 40.9423 12.7478 41.8619H12.7536ZM15.9598 38.4281C15.9598 38.4281 15.9191 38.3873 15.9016 38.3699C18.5551 36.5482 23.4488 36.9731 25.4505 37.7763C25.4564 37.8636 25.468 37.9509 25.4738 38.0382C22.9659 37.7355 18.6133 37.6657 15.9598 38.4281ZM19.684 53.6009C19.2126 54.6485 18.6249 55.9522 18.0779 57.5003C18.334 54.7766 19.0439 52.4136 19.9051 51.3951C20.1262 51.1332 20.4288 50.9935 20.6557 50.9935C20.6732 51.4009 20.1262 52.6173 19.684 53.6009ZM52.4854 51.3893C53.3466 52.4136 54.0624 54.7707 54.3184 57.4945C53.7656 55.9464 53.1779 54.6426 52.7124 53.595C52.2701 52.6115 51.7231 51.4009 51.7406 50.9877C51.9094 50.9877 52.2643 51.1158 52.4912 51.3835L52.4854 51.3893ZM57.8563 39.2953C57.9727 39.2255 58.0832 39.1964 58.2229 39.1964C59.6253 39.1964 62.0634 42.2285 63.5298 46.3724C62.1332 44.4692 60.7192 42.9968 59.6427 41.8677C58.7582 40.9423 57.6585 39.7958 57.6643 39.4466C57.6643 39.4466 57.6992 39.3884 57.8621 39.2953H57.8563ZM46.94 37.7763C48.9417 36.9731 53.8296 36.5424 56.4889 38.3699C56.4714 38.3873 56.4481 38.4107 56.4307 38.4281C53.7714 37.6657 49.4188 37.7355 46.9108 38.0382C46.9167 37.9509 46.9283 37.8636 46.9341 37.7763H46.94ZM31.6885 8.97889C33.1199 11.0042 34.1557 12.919 34.5223 13.9899C34.4292 14.083 34.3361 14.1762 34.2313 14.2635C33.7484 12.9132 32.8406 10.9926 31.6885 8.97889ZM32.8523 16.7893C32.9628 16.9348 33.1141 17.284 33.1141 17.8253C33.1141 18.3666 32.957 18.7158 32.8523 18.8613C32.7475 18.7158 32.5904 18.3666 32.5904 17.8253C32.5904 17.284 32.7475 16.9348 32.8523 16.7893ZM23.2044 17.6915C23.8271 17.5227 24.5952 17.3073 25.404 16.7893C25.2062 18.0406 24.5603 19.2628 23.5187 20.2813C22.3432 21.4337 20.8419 22.1612 19.2359 22.394C20.7081 21.1369 21.4296 19.6935 21.9301 18.221C22.2094 17.9766 22.5934 17.8602 23.2044 17.6915ZM14.9997 14.5137C16.3672 11.2196 19.2359 9.37464 22.6924 9.37464C23.1928 9.37464 23.699 9.41539 24.2169 9.49105C22.0988 11.5921 21.482 13.8793 20.9292 15.9396C20.7838 16.4809 20.6441 17.0105 20.4753 17.5168C20.4695 17.5343 20.4637 17.5576 20.4579 17.575C19.8702 19.3792 18.9915 20.9564 16.6464 22.231C15.2557 21.3231 13.3238 18.5528 14.9997 14.5079V14.5137ZM17.6997 30.996C16.7687 30.0939 16.1577 28.8076 16.0355 27.4167C15.9191 26.0897 16.2624 24.8442 16.949 23.9887C17.3447 24.041 17.7462 24.076 18.1419 24.076C18.2758 24.076 18.4096 24.0643 18.5434 24.0585C20.0738 26.1304 20.2309 28.0976 18.7995 29.7155C18.4271 30.1404 18.0372 30.5478 17.6939 30.996H17.6997ZM18.9682 31.9679C20.9409 29.3489 23.9609 27.7019 27.3126 27.376C26.7016 28.8892 26.2477 30.379 25.9335 31.8399C23.7456 33.0504 20.8827 33.0911 18.9682 31.9737V31.9679ZM15.7503 47.9089C14.924 49.1602 13.8534 50.7781 12.8234 52.786C13.8126 48.1475 15.8202 44.7952 16.9607 44.7952C17.0247 44.7952 17.0887 44.8069 17.1527 44.8418C17.2866 44.9058 17.3273 44.9582 17.3273 44.964C17.432 45.3481 16.5359 46.7041 15.7503 47.9031V47.9089ZM18.4503 43.8291C18.3456 43.7243 18.2234 43.6312 18.0896 43.5439C20.5219 41.5884 25.0432 41.8794 26.4863 42.3333C26.5154 42.4032 26.5387 42.473 26.5736 42.537C24.3042 42.5137 20.7197 42.7873 18.4562 43.8291H18.4503ZM21.482 49.62C21.4529 49.6025 21.4238 49.5793 21.3947 49.5618C23.251 47.1931 26.1779 46.1803 28.6859 46.2385C26.3001 46.774 23.5477 47.9322 21.4878 49.62H21.482ZM28.4997 42.8455C26.3059 38.9519 26.498 33.388 29.0001 27.4923C31.3917 28.2955 33.9811 29.4071 35.3951 33.7197V38.1313C34.9413 40.9831 33.4574 44.3354 31.1298 45.7322C30.0941 45.0396 29.1922 44.0735 28.4997 42.8455ZM41.6854 54.8871C41.4643 55.3003 41.0686 55.6088 40.5973 55.731C37.7111 56.4701 34.6736 56.4701 31.7874 55.731C31.3219 55.6088 30.9262 55.3061 30.6992 54.8871C30.513 54.5379 30.4665 54.1479 30.577 53.8162C30.7865 53.2051 31.3219 52.8094 31.9387 52.8094C32.0492 52.8094 32.1656 52.821 32.2704 52.8501C34.8365 53.5077 37.5423 53.5077 40.0969 52.8501C40.8068 52.6696 41.5458 53.0887 41.796 53.8162C41.9066 54.1479 41.8658 54.5379 41.6738 54.8871H41.6854ZM41.6854 59.5955C41.4643 60.0087 41.0686 60.3171 40.5973 60.4335C37.7111 61.1785 34.6736 61.1785 31.7874 60.4335C31.3219 60.3113 30.9262 60.0087 30.6992 59.5955C30.513 59.2463 30.4665 58.8563 30.577 58.5246C30.7865 57.9135 31.3219 57.5177 31.9387 57.5177C32.0551 57.5177 32.1656 57.5352 32.2704 57.5585C34.8365 58.2162 37.5423 58.2162 40.0969 57.5585C40.8068 57.3839 41.5458 57.7971 41.796 58.5246C41.9066 58.8563 41.8658 59.2463 41.6738 59.5955H41.6854ZM41.6854 50.1845C41.4643 50.5977 41.0686 50.9062 40.5973 51.0226C37.7111 51.7676 34.6736 51.7676 31.7874 51.0226C31.3219 50.9004 30.9262 50.5977 30.6992 50.1845C30.513 49.8353 30.4665 49.4396 30.577 49.1078C30.7865 48.4967 31.3219 48.101 31.9387 48.101C32.0492 48.101 32.1656 48.1126 32.2704 48.1417C34.8365 48.7994 37.5423 48.7994 40.0969 48.1417C40.8068 47.9613 41.5516 48.3803 41.796 49.1078C41.9066 49.4396 41.8658 49.8295 41.6738 50.1787L41.6854 50.1845ZM32.6893 46.5936C34.3186 45.319 35.4766 43.3577 36.1982 41.3789C36.9197 43.3577 38.0718 45.3132 39.707 46.5936C37.4085 47.1814 34.9994 47.1814 32.6893 46.5936ZM28.04 67.371C27.4115 68.4012 27.0333 69.5128 26.9111 70.5779C26.3932 70.4324 26.0092 70.1762 25.8346 69.8096C25.5204 69.1636 25.887 68.4011 26.1314 68.0112C26.6202 67.2255 27.4872 66.4864 28.5113 65.9917C28.8314 65.8345 29.1514 65.7181 29.4773 65.6192C28.9419 66.1197 28.4531 66.7075 28.0458 67.3768L28.04 67.371ZM31.9329 71.672C31.9329 71.9106 31.9561 72.1259 31.9794 72.3529C30.9727 73.1735 29.8904 73.4587 29.2212 73.0455C28.5753 72.6556 28.4706 71.7826 28.4648 71.2995C28.4531 70.3392 28.7965 69.2101 29.4074 68.2091C29.8206 67.5281 30.3327 66.952 30.8855 66.5038C31.0542 66.5795 31.2171 66.6493 31.3975 66.6959C31.8921 66.8239 32.3926 66.9229 32.8988 67.0102C32.3053 68.4244 31.9387 70.1472 31.9387 71.6778L31.9329 71.672ZM36.1923 74.9195C35.046 74.9195 33.5272 74.582 33.5272 71.672C33.5272 70.2112 33.9288 68.4885 34.5456 67.2197C35.0925 67.2663 35.6454 67.3012 36.1923 67.3012C36.7393 67.3012 37.2921 67.2663 37.8391 67.2197C38.4559 68.4885 38.8574 70.2112 38.8574 71.672C38.8574 74.582 37.3387 74.9195 36.1923 74.9195ZM31.7932 65.1419C31.3277 65.0197 30.932 64.7171 30.7051 64.3039C30.5189 63.9547 30.4723 63.5589 30.5829 63.2272C30.7923 62.6161 31.3277 62.2203 31.9445 62.2203C32.0551 62.2203 32.1714 62.2319 32.2762 62.261C34.8424 62.9187 37.5482 62.9187 40.1027 62.261C40.8126 62.0806 41.5516 62.4997 41.8018 63.2272C41.9124 63.5589 41.8716 63.9488 41.6796 64.298C41.4585 64.7113 41.0628 65.0198 40.5915 65.1362C37.7053 65.8753 34.6678 65.8753 31.7816 65.1362L31.7932 65.1419ZM43.885 65.9859C46.0438 67.0393 47.0272 68.8434 46.5617 69.8037C46.3813 70.1704 45.9973 70.4265 45.4794 70.572C45.363 69.507 44.979 68.3953 44.3563 67.3652C43.949 66.6959 43.4602 66.1081 42.9249 65.6075C43.2507 65.7065 43.5708 65.8287 43.8908 65.98L43.885 65.9859ZM42.9889 68.2032C43.5999 69.2101 43.949 70.3334 43.9315 71.2937C43.9257 71.7768 43.8152 72.6498 43.1751 73.0455C42.5059 73.4529 41.4294 73.1677 40.4169 72.3529C40.4344 72.1318 40.4635 71.9106 40.4635 71.672C40.4635 70.1413 40.0969 68.4244 39.5033 67.0044C40.0096 66.9171 40.5042 66.8181 41.0046 66.6901C41.185 66.6435 41.3479 66.5737 41.5167 66.498C42.0753 66.9462 42.5757 67.5223 42.9947 68.2032H42.9889ZM50.9958 49.5618C50.9608 49.5793 50.9376 49.6025 50.9085 49.62C48.8485 47.9322 46.0962 46.774 43.7104 46.2385C46.2184 46.1862 49.1453 47.1931 50.9958 49.5618ZM55.2378 44.8476C55.3018 44.8126 55.3658 44.801 55.4298 44.801C56.5703 44.801 58.5778 48.1533 59.5671 52.7919C58.5371 50.784 57.4664 49.166 56.6402 47.9147C55.8488 46.7216 54.9526 45.3656 55.0632 44.9756C55.0632 44.9698 55.1039 44.9174 55.2378 44.8534V44.8476ZM54.3067 43.5439C54.1671 43.6312 54.0507 43.7243 53.946 43.8291C51.6766 42.7931 48.0979 42.5196 45.8285 42.537C45.8576 42.4672 45.8867 42.3974 45.9158 42.3333C47.3531 41.8794 51.8861 41.5884 54.3126 43.5439H54.3067ZM56.355 27.4167C56.2328 28.8076 55.6218 30.0939 54.6908 30.996C54.3475 30.542 53.9402 30.152 53.5852 29.7214C52.2643 28.1092 52.3167 26.1304 53.8412 24.0585C53.9751 24.0643 54.1089 24.076 54.2427 24.076C54.6384 24.076 55.0399 24.041 55.4356 23.9887C56.1223 24.8384 56.4656 26.0897 56.3492 27.4167H56.355ZM48.1678 9.49105C52.2992 8.87413 55.8197 10.7482 57.385 14.5137C59.0666 18.5586 57.1347 21.3289 55.744 22.2368C53.399 20.9623 52.5145 19.3792 51.9268 17.5808C51.921 17.5634 51.9152 17.5401 51.9093 17.5227C51.7464 17.0105 51.6009 16.4867 51.4554 15.9454C50.9026 13.8851 50.2859 11.5921 48.1619 9.49688L48.1678 9.49105ZM48.8718 20.2872C47.8361 19.2687 47.1843 18.0465 46.9865 16.7952C47.7953 17.3131 48.5634 17.5227 49.1861 17.6973C49.7971 17.8661 50.1811 17.9824 50.4604 18.2269C50.955 19.6993 51.6824 21.1427 53.1546 22.3998C51.5544 22.1728 50.0473 21.4453 48.8718 20.2872ZM53.4223 31.9679C51.5078 33.0853 48.6449 33.0446 46.457 31.834C46.1428 30.379 45.6831 28.8833 45.0779 27.3701C48.4296 27.7019 51.4496 29.3489 53.4223 31.9621V31.9679ZM43.8908 42.8455C43.1983 44.0735 42.2964 45.0396 41.2607 45.7322C38.9331 44.3354 37.4492 40.9831 36.9954 38.1313V33.7197C38.4094 29.4013 40.9988 28.2955 43.3904 27.4923C45.8925 33.388 46.0845 38.9519 43.8908 42.8455ZM42.6281 26.0606C40.4693 26.8056 37.8857 27.9696 36.1923 31.4267C34.499 27.9696 31.9154 26.8056 29.7566 26.0606C30.8622 24.1284 31.4499 22.2543 31.9911 20.229C32.2471 20.4152 32.5322 20.5258 32.8464 20.5258C32.9919 20.5258 33.1316 20.5025 33.2654 20.4618C33.2072 20.9856 33.1141 21.4628 32.9977 21.8528C32.8697 22.2776 33.1083 22.7199 33.5331 22.848C33.6087 22.8713 33.6902 22.8829 33.7658 22.8829C34.1092 22.8829 34.4292 22.6617 34.5339 22.3125C35.046 20.6072 35.1217 18.3665 34.5689 16.7544C34.4932 16.5332 34.4176 16.3237 34.3186 16.1375C35.1682 15.6719 35.7385 15.1306 36.1982 14.473C36.6579 15.1306 37.2281 15.6719 38.0777 16.1375C37.9787 16.3237 37.9031 16.5332 37.8333 16.7486C37.263 18.4306 37.3445 20.6072 37.8624 22.3125C37.9671 22.6559 38.2872 22.8829 38.6305 22.8829C38.7061 22.8829 38.7876 22.8713 38.8633 22.848C39.288 22.7199 39.5266 22.2718 39.3986 21.8528C39.2822 21.4687 39.1891 20.9914 39.1309 20.4618C39.2647 20.5025 39.4044 20.5258 39.5499 20.5258C39.8641 20.5258 40.155 20.4152 40.4111 20.229C40.9522 22.2543 41.54 24.1284 42.6456 26.0606H42.6281ZM39.8001 17.8253C39.8001 18.3666 39.643 18.7158 39.5382 18.8613C39.4277 18.7158 39.2764 18.3666 39.2764 17.8253C39.2764 17.284 39.4335 16.9348 39.5382 16.7893C39.6488 16.9348 39.8001 17.284 39.8001 17.8253ZM38.165 14.2635C38.0602 14.1762 37.9613 14.083 37.874 13.9899C38.2406 12.919 39.2822 11.0101 40.7079 8.97889C39.5557 10.9926 38.6479 12.9132 38.165 14.2635ZM30.6818 42.2693C30.4374 42.2693 30.1988 42.1587 30.0417 41.9492C28.7499 40.2207 28.5171 36.8917 28.7441 35.5123C28.8197 35.0758 29.227 34.779 29.6693 34.8546C30.1057 34.9303 30.3966 35.3435 30.3268 35.78C30.1115 37.0546 30.4374 39.8074 31.3219 40.9947C31.5837 41.3497 31.5139 41.8503 31.1589 42.1122C31.0135 42.2169 30.8447 42.2693 30.6818 42.2693ZM55.7149 19.8041C55.6509 19.8041 55.5811 19.7983 55.5171 19.7808C55.0865 19.6702 54.8305 19.2337 54.941 18.803C55.2553 17.5983 54.9992 16.3703 54.6384 15.7359C54.4173 15.3518 54.5512 14.8629 54.9352 14.6417C55.3193 14.4206 55.808 14.5544 56.0292 14.9386C56.5296 15.8057 56.9486 17.447 56.4947 19.2046C56.4016 19.5655 56.0757 19.8041 55.7207 19.8041H55.7149ZM41.7145 42.2693C41.5458 42.2693 41.377 42.2169 41.2374 42.1122C40.8824 41.8503 40.8126 41.3439 41.0744 40.9947C41.9647 39.8074 42.2848 37.0546 42.0695 35.78C41.9938 35.3435 42.2906 34.9303 42.727 34.8546C43.1634 34.779 43.5766 35.0758 43.6464 35.5123C43.8792 36.8917 43.6464 40.2207 42.3546 41.9492C42.1975 42.1587 41.9589 42.2693 41.7145 42.2693ZM16.6756 19.8041C16.3206 19.8041 15.9947 19.5655 15.9016 19.2046C15.4478 17.447 15.8667 15.8057 16.3671 14.9386C16.5825 14.5544 17.0771 14.4206 17.4611 14.6417C17.8452 14.8629 17.979 15.3518 17.7579 15.7359C17.3913 16.3703 17.1411 17.6041 17.4553 18.803C17.5659 19.2337 17.3098 19.6702 16.8792 19.7808C16.8094 19.7983 16.7454 19.8041 16.6814 19.8041H16.6756Z" fill="white"/>
</svg>
